<?xml version="1.0" encoding="utf-8" standalone="no"?>
<!DOCTYPE svg PUBLIC "-//W3C//DTD SVG 1.1//EN"
  "http://www.w3.org/Graphics/SVG/1.1/DTD/svg11.dtd">
<svg xmlns:xlink="http://www.w3.org/1999/xlink" width="775.08pt" height="720pt" viewBox="0 0 775.08 720" xmlns="http://www.w3.org/2000/svg" version="1.1">
 <metadata>
  <rdf:RDF xmlns:dc="http://purl.org/dc/elements/1.1/" xmlns:cc="http://creativecommons.org/ns#" xmlns:rdf="http://www.w3.org/1999/02/22-rdf-syntax-ns#">
   <cc:Work>
    <dc:type rdf:resource="http://purl.org/dc/dcmitype/StillImage"/>
    <dc:date>2025-12-30T18:55:45.535925</dc:date>
    <dc:format>image/svg+xml</dc:format>
    <dc:creator>
     <cc:Agent>
      <dc:title>Matplotlib v3.10.6, https://matplotlib.org/</dc:title>
     </cc:Agent>
    </dc:creator>
   </cc:Work>
  </rdf:RDF>
 </metadata>
 <defs>
  <style type="text/css">*{stroke-linejoin: round; stroke-linecap: butt}</style>
 </defs>
 <g id="figure_1">
  <g id="patch_1">
   <path d="M 0 720 
L 775.08 720 
L 775.08 0 
L 0 0 
z
" style="fill: #ffffff"/>
  </g>
  <g id="axes_1">
   <g id="patch_2">
    <path d="M 54.03125 337.94 
L 397.410625 337.94 
L 397.410625 24.72 
L 54.03125 24.72 
z
" style="fill: #eaeaf2"/>
   </g>
   <g id="matplotlib.axis_1">
    <g id="xtick_1">
     <g id="line2d_1">
      <path d="M 54.03125 337.94 
L 54.03125 24.72 
" clip-path="url(#p58eec24003)" style="fill: none; stroke: #ffffff; stroke-width: 0.8; stroke-linecap: round"/>
     </g>
    </g>
    <g id="xtick_2">
     <g id="line2d_2">
      <path d="M 116.463864 337.94 
L 116.463864 24.72 
" clip-path="url(#p58eec24003)" style="fill: none; stroke: #ffffff; stroke-width: 0.8; stroke-linecap: round"/>
     </g>
    </g>
    <g id="xtick_3">
     <g id="line2d_3">
      <path d="M 178.896477 337.94 
L 178.896477 24.72 
" clip-path="url(#p58eec24003)" style="fill: none; stroke: #ffffff; stroke-width: 0.8; stroke-linecap: round"/>
     </g>
    </g>
    <g id="xtick_4">
     <g id="line2d_4">
      <path d="M 241.329091 337.94 
L 241.329091 24.72 
" clip-path="url(#p58eec24003)" style="fill: none; stroke: #ffffff; stroke-width: 0.8; stroke-linecap: round"/>
     </g>
    </g>
    <g id="xtick_5">
     <g id="line2d_5">
      <path d="M 303.761705 337.94 
L 303.761705 24.72 
" clip-path="url(#p58eec24003)" style="fill: none; stroke: #ffffff; stroke-width: 0.8; stroke-linecap: round"/>
     </g>
    </g>
    <g id="xtick_6">
     <g id="line2d_6">
      <path d="M 366.194318 337.94 
L 366.194318 24.72 
" clip-path="url(#p58eec24003)" style="fill: none; stroke: #ffffff; stroke-width: 0.8; stroke-linecap: round"/>
     </g>
    </g>
   </g>
   <g id="matplotlib.axis_2">
    <g id="ytick_1">
     <g id="line2d_7">
      <path d="M 54.03125 294.743323 
L 397.410625 294.743323 
" clip-path="url(#p58eec24003)" style="fill: none; stroke: #ffffff; stroke-width: 0.8; stroke-linecap: round"/>
     </g>
     <g id="text_1">
      <!-- 52.5 -->
      <g style="fill: #262626" transform="translate(24.765625 298.542542) scale(0.1 -0.1)">
       <defs>
        <path id="DejaVuSans-35" d="M 691 4666 
L 3169 4666 
L 3169 4134 
L 1269 4134 
L 1269 2991 
Q 1406 3038 1543 3061 
Q 1681 3084 1819 3084 
Q 2600 3084 3056 2656 
Q 3513 2228 3513 1497 
Q 3513 744 3044 326 
Q 2575 -91 1722 -91 
Q 1428 -91 1123 -41 
Q 819 9 494 109 
L 494 744 
Q 775 591 1075 516 
Q 1375 441 1709 441 
Q 2250 441 2565 725 
Q 2881 1009 2881 1497 
Q 2881 1984 2565 2268 
Q 2250 2553 1709 2553 
Q 1456 2553 1204 2497 
Q 953 2441 691 2322 
L 691 4666 
z
" transform="scale(0.015625)"/>
        <path id="DejaVuSans-32" d="M 1228 531 
L 3431 531 
L 3431 0 
L 469 0 
L 469 531 
Q 828 903 1448 1529 
Q 2069 2156 2228 2338 
Q 2531 2678 2651 2914 
Q 2772 3150 2772 3378 
Q 2772 3750 2511 3984 
Q 2250 4219 1831 4219 
Q 1534 4219 1204 4116 
Q 875 4013 500 3803 
L 500 4441 
Q 881 4594 1212 4672 
Q 1544 4750 1819 4750 
Q 2544 4750 2975 4387 
Q 3406 4025 3406 3419 
Q 3406 3131 3298 2873 
Q 3191 2616 2906 2266 
Q 2828 2175 2409 1742 
Q 1991 1309 1228 531 
z
" transform="scale(0.015625)"/>
        <path id="DejaVuSans-2e" d="M 684 794 
L 1344 794 
L 1344 0 
L 684 0 
L 684 794 
z
" transform="scale(0.015625)"/>
       </defs>
       <use xlink:href="#DejaVuSans-35"/>
       <use xlink:href="#DejaVuSans-32" transform="translate(63.623047 0)"/>
       <use xlink:href="#DejaVuSans-2e" transform="translate(127.246094 0)"/>
       <use xlink:href="#DejaVuSans-35" transform="translate(159.033203 0)"/>
      </g>
     </g>
    </g>
    <g id="ytick_2">
     <g id="line2d_8">
      <path d="M 54.03125 235.024225 
L 397.410625 235.024225 
" clip-path="url(#p58eec24003)" style="fill: none; stroke: #ffffff; stroke-width: 0.8; stroke-linecap: round"/>
     </g>
     <g id="text_2">
      <!-- 53.0 -->
      <g style="fill: #262626" transform="translate(24.765625 238.823444) scale(0.1 -0.1)">
       <defs>
        <path id="DejaVuSans-33" d="M 2597 2516 
Q 3050 2419 3304 2112 
Q 3559 1806 3559 1356 
Q 3559 666 3084 287 
Q 2609 -91 1734 -91 
Q 1441 -91 1130 -33 
Q 819 25 488 141 
L 488 750 
Q 750 597 1062 519 
Q 1375 441 1716 441 
Q 2309 441 2620 675 
Q 2931 909 2931 1356 
Q 2931 1769 2642 2001 
Q 2353 2234 1838 2234 
L 1294 2234 
L 1294 2753 
L 1863 2753 
Q 2328 2753 2575 2939 
Q 2822 3125 2822 3475 
Q 2822 3834 2567 4026 
Q 2313 4219 1838 4219 
Q 1578 4219 1281 4162 
Q 984 4106 628 3988 
L 628 4550 
Q 988 4650 1302 4700 
Q 1616 4750 1894 4750 
Q 2613 4750 3031 4423 
Q 3450 4097 3450 3541 
Q 3450 3153 3228 2886 
Q 3006 2619 2597 2516 
z
" transform="scale(0.015625)"/>
        <path id="DejaVuSans-30" d="M 2034 4250 
Q 1547 4250 1301 3770 
Q 1056 3291 1056 2328 
Q 1056 1369 1301 889 
Q 1547 409 2034 409 
Q 2525 409 2770 889 
Q 3016 1369 3016 2328 
Q 3016 3291 2770 3770 
Q 2525 4250 2034 4250 
z
M 2034 4750 
Q 2819 4750 3233 4129 
Q 3647 3509 3647 2328 
Q 3647 1150 3233 529 
Q 2819 -91 2034 -91 
Q 1250 -91 836 529 
Q 422 1150 422 2328 
Q 422 3509 836 4129 
Q 1250 4750 2034 4750 
z
" transform="scale(0.015625)"/>
       </defs>
       <use xlink:href="#DejaVuSans-35"/>
       <use xlink:href="#DejaVuSans-33" transform="translate(63.623047 0)"/>
       <use xlink:href="#DejaVuSans-2e" transform="translate(127.246094 0)"/>
       <use xlink:href="#DejaVuSans-30" transform="translate(159.033203 0)"/>
      </g>
     </g>
    </g>
    <g id="ytick_3">
     <g id="line2d_9">
      <path d="M 54.03125 175.305127 
L 397.410625 175.305127 
" clip-path="url(#p58eec24003)" style="fill: none; stroke: #ffffff; stroke-width: 0.8; stroke-linecap: round"/>
     </g>
     <g id="text_3">
      <!-- 53.5 -->
      <g style="fill: #262626" transform="translate(24.765625 179.104346) scale(0.1 -0.1)">
       <use xlink:href="#DejaVuSans-35"/>
       <use xlink:href="#DejaVuSans-33" transform="translate(63.623047 0)"/>
       <use xlink:href="#DejaVuSans-2e" transform="translate(127.246094 0)"/>
       <use xlink:href="#DejaVuSans-35" transform="translate(159.033203 0)"/>
      </g>
     </g>
    </g>
    <g id="ytick_4">
     <g id="line2d_10">
      <path d="M 54.03125 115.586029 
L 397.410625 115.586029 
" clip-path="url(#p58eec24003)" style="fill: none; stroke: #ffffff; stroke-width: 0.8; stroke-linecap: round"/>
     </g>
     <g id="text_4">
      <!-- 54.0 -->
      <g style="fill: #262626" transform="translate(24.765625 119.385248) scale(0.1 -0.1)">
       <defs>
        <path id="DejaVuSans-34" d="M 2419 4116 
L 825 1625 
L 2419 1625 
L 2419 4116 
z
M 2253 4666 
L 3047 4666 
L 3047 1625 
L 3713 1625 
L 3713 1100 
L 3047 1100 
L 3047 0 
L 2419 0 
L 2419 1100 
L 313 1100 
L 313 1709 
L 2253 4666 
z
" transform="scale(0.015625)"/>
       </defs>
       <use xlink:href="#DejaVuSans-35"/>
       <use xlink:href="#DejaVuSans-34" transform="translate(63.623047 0)"/>
       <use xlink:href="#DejaVuSans-2e" transform="translate(127.246094 0)"/>
       <use xlink:href="#DejaVuSans-30" transform="translate(159.033203 0)"/>
      </g>
     </g>
    </g>
    <g id="ytick_5">
     <g id="line2d_11">
      <path d="M 54.03125 55.866931 
L 397.410625 55.866931 
" clip-path="url(#p58eec24003)" style="fill: none; stroke: #ffffff; stroke-width: 0.8; stroke-linecap: round"/>
     </g>
     <g id="text_5">
      <!-- 54.5 -->
      <g style="fill: #262626" transform="translate(24.765625 59.66615) scale(0.1 -0.1)">
       <use xlink:href="#DejaVuSans-35"/>
       <use xlink:href="#DejaVuSans-34" transform="translate(63.623047 0)"/>
       <use xlink:href="#DejaVuSans-2e" transform="translate(127.246094 0)"/>
       <use xlink:href="#DejaVuSans-35" transform="translate(159.033203 0)"/>
      </g>
     </g>
    </g>
    <g id="text_6">
     <!-- min_ratio_roll_mean -->
     <g style="fill: #262626" transform="translate(18.407813 231.746406) rotate(-90) scale(0.1 -0.1)">
      <defs>
       <path id="DejaVuSans-6d" d="M 3328 2828 
Q 3544 3216 3844 3400 
Q 4144 3584 4550 3584 
Q 5097 3584 5394 3201 
Q 5691 2819 5691 2113 
L 5691 0 
L 5113 0 
L 5113 2094 
Q 5113 2597 4934 2840 
Q 4756 3084 4391 3084 
Q 3944 3084 3684 2787 
Q 3425 2491 3425 1978 
L 3425 0 
L 2847 0 
L 2847 2094 
Q 2847 2600 2669 2842 
Q 2491 3084 2119 3084 
Q 1678 3084 1418 2786 
Q 1159 2488 1159 1978 
L 1159 0 
L 581 0 
L 581 3500 
L 1159 3500 
L 1159 2956 
Q 1356 3278 1631 3431 
Q 1906 3584 2284 3584 
Q 2666 3584 2933 3390 
Q 3200 3197 3328 2828 
z
" transform="scale(0.015625)"/>
       <path id="DejaVuSans-69" d="M 603 3500 
L 1178 3500 
L 1178 0 
L 603 0 
L 603 3500 
z
M 603 4863 
L 1178 4863 
L 1178 4134 
L 603 4134 
L 603 4863 
z
" transform="scale(0.015625)"/>
       <path id="DejaVuSans-6e" d="M 3513 2113 
L 3513 0 
L 2938 0 
L 2938 2094 
Q 2938 2591 2744 2837 
Q 2550 3084 2163 3084 
Q 1697 3084 1428 2787 
Q 1159 2491 1159 1978 
L 1159 0 
L 581 0 
L 581 3500 
L 1159 3500 
L 1159 2956 
Q 1366 3272 1645 3428 
Q 1925 3584 2291 3584 
Q 2894 3584 3203 3211 
Q 3513 2838 3513 2113 
z
" transform="scale(0.015625)"/>
       <path id="DejaVuSans-5f" d="M 3263 -1063 
L 3263 -1509 
L -63 -1509 
L -63 -1063 
L 3263 -1063 
z
" transform="scale(0.015625)"/>
       <path id="DejaVuSans-72" d="M 2631 2963 
Q 2534 3019 2420 3045 
Q 2306 3072 2169 3072 
Q 1681 3072 1420 2755 
Q 1159 2438 1159 1844 
L 1159 0 
L 581 0 
L 581 3500 
L 1159 3500 
L 1159 2956 
Q 1341 3275 1631 3429 
Q 1922 3584 2338 3584 
Q 2397 3584 2469 3576 
Q 2541 3569 2628 3553 
L 2631 2963 
z
" transform="scale(0.015625)"/>
       <path id="DejaVuSans-61" d="M 2194 1759 
Q 1497 1759 1228 1600 
Q 959 1441 959 1056 
Q 959 750 1161 570 
Q 1363 391 1709 391 
Q 2188 391 2477 730 
Q 2766 1069 2766 1631 
L 2766 1759 
L 2194 1759 
z
M 3341 1997 
L 3341 0 
L 2766 0 
L 2766 531 
Q 2569 213 2275 61 
Q 1981 -91 1556 -91 
Q 1019 -91 701 211 
Q 384 513 384 1019 
Q 384 1609 779 1909 
Q 1175 2209 1959 2209 
L 2766 2209 
L 2766 2266 
Q 2766 2663 2505 2880 
Q 2244 3097 1772 3097 
Q 1472 3097 1187 3025 
Q 903 2953 641 2809 
L 641 3341 
Q 956 3463 1253 3523 
Q 1550 3584 1831 3584 
Q 2591 3584 2966 3190 
Q 3341 2797 3341 1997 
z
" transform="scale(0.015625)"/>
       <path id="DejaVuSans-74" d="M 1172 4494 
L 1172 3500 
L 2356 3500 
L 2356 3053 
L 1172 3053 
L 1172 1153 
Q 1172 725 1289 603 
Q 1406 481 1766 481 
L 2356 481 
L 2356 0 
L 1766 0 
Q 1100 0 847 248 
Q 594 497 594 1153 
L 594 3053 
L 172 3053 
L 172 3500 
L 594 3500 
L 594 4494 
L 1172 4494 
z
" transform="scale(0.015625)"/>
       <path id="DejaVuSans-6f" d="M 1959 3097 
Q 1497 3097 1228 2736 
Q 959 2375 959 1747 
Q 959 1119 1226 758 
Q 1494 397 1959 397 
Q 2419 397 2687 759 
Q 2956 1122 2956 1747 
Q 2956 2369 2687 2733 
Q 2419 3097 1959 3097 
z
M 1959 3584 
Q 2709 3584 3137 3096 
Q 3566 2609 3566 1747 
Q 3566 888 3137 398 
Q 2709 -91 1959 -91 
Q 1206 -91 779 398 
Q 353 888 353 1747 
Q 353 2609 779 3096 
Q 1206 3584 1959 3584 
z
" transform="scale(0.015625)"/>
       <path id="DejaVuSans-6c" d="M 603 4863 
L 1178 4863 
L 1178 0 
L 603 0 
L 603 4863 
z
" transform="scale(0.015625)"/>
       <path id="DejaVuSans-65" d="M 3597 1894 
L 3597 1613 
L 953 1613 
Q 991 1019 1311 708 
Q 1631 397 2203 397 
Q 2534 397 2845 478 
Q 3156 559 3463 722 
L 3463 178 
Q 3153 47 2828 -22 
Q 2503 -91 2169 -91 
Q 1331 -91 842 396 
Q 353 884 353 1716 
Q 353 2575 817 3079 
Q 1281 3584 2069 3584 
Q 2775 3584 3186 3129 
Q 3597 2675 3597 1894 
z
M 3022 2063 
Q 3016 2534 2758 2815 
Q 2500 3097 2075 3097 
Q 1594 3097 1305 2825 
Q 1016 2553 972 2059 
L 3022 2063 
z
" transform="scale(0.015625)"/>
      </defs>
      <use xlink:href="#DejaVuSans-6d"/>
      <use xlink:href="#DejaVuSans-69" transform="translate(97.412109 0)"/>
      <use xlink:href="#DejaVuSans-6e" transform="translate(125.195312 0)"/>
      <use xlink:href="#DejaVuSans-5f" transform="translate(188.574219 0)"/>
      <use xlink:href="#DejaVuSans-72" transform="translate(238.574219 0)"/>
      <use xlink:href="#DejaVuSans-61" transform="translate(279.6875 0)"/>
      <use xlink:href="#DejaVuSans-74" transform="translate(340.966797 0)"/>
      <use xlink:href="#DejaVuSans-69" transform="translate(380.175781 0)"/>
      <use xlink:href="#DejaVuSans-6f" transform="translate(407.958984 0)"/>
      <use xlink:href="#DejaVuSans-5f" transform="translate(469.140625 0)"/>
      <use xlink:href="#DejaVuSans-72" transform="translate(519.140625 0)"/>
      <use xlink:href="#DejaVuSans-6f" transform="translate(558.003906 0)"/>
      <use xlink:href="#DejaVuSans-6c" transform="translate(619.185547 0)"/>
      <use xlink:href="#DejaVuSans-6c" transform="translate(646.96875 0)"/>
      <use xlink:href="#DejaVuSans-5f" transform="translate(674.751953 0)"/>
      <use xlink:href="#DejaVuSans-6d" transform="translate(724.751953 0)"/>
      <use xlink:href="#DejaVuSans-65" transform="translate(822.164062 0)"/>
      <use xlink:href="#DejaVuSans-61" transform="translate(883.6875 0)"/>
      <use xlink:href="#DejaVuSans-6e" transform="translate(944.966797 0)"/>
     </g>
    </g>
   </g>
   <g id="line2d_12">
    <path d="M 69.639403 323.346327 
L 72.761034 323.702727 
L 75.882665 287.241413 
L 79.004295 266.01703 
L 82.125926 246.455692 
L 85.247557 228.01111 
L 88.369187 216.623923 
L 91.490818 205.864437 
L 94.612449 204.379344 
L 97.73408 202.027772 
L 100.85571 197.952516 
L 103.977341 195.488504 
L 107.098972 192.339136 
L 110.220602 187.548013 
L 113.342233 183.215352 
L 116.463864 189.374965 
L 119.585494 196.162982 
L 122.707125 206.192654 
L 125.828756 213.655627 
L 128.950386 219.738081 
L 132.072017 226.292786 
L 135.193648 229.840879 
L 138.315278 231.495097 
L 141.436909 230.259221 
L 144.55854 224.19997 
L 147.68017 216.026881 
L 150.801801 211.328266 
L 153.923432 210.769538 
L 157.045062 217.2714 
L 160.166693 232.120679 
L 163.288324 241.003569 
L 166.409955 247.122564 
L 169.531585 251.847053 
L 172.653216 254.049342 
L 175.774847 246.87406 
L 178.896477 244.793759 
L 182.018108 243.660623 
L 185.139739 246.809645 
L 188.261369 248.261454 
L 191.383 257.193534 
L 194.504631 262.148897 
L 197.626261 262.570794 
L 200.747892 260.260485 
L 203.869523 258.375444 
L 206.991153 258.868885 
L 210.112784 259.090623 
L 213.234415 262.162286 
L 216.356045 262.705352 
L 219.477676 265.83964 
L 222.599307 264.277322 
L 225.720938 267.177533 
L 228.842568 267.681916 
L 231.964199 268.532623 
L 235.08583 259.116092 
L 238.20746 250.614858 
L 241.329091 239.126545 
L 244.450722 232.771704 
L 247.572352 231.32414 
L 250.693983 236.380762 
L 253.815614 239.577644 
L 256.937244 245.962854 
L 260.058875 246.758151 
L 263.180506 241.800882 
L 266.302136 237.602033 
L 269.423767 235.905369 
L 272.545398 237.699729 
L 275.667028 245.31135 
L 278.788659 250.951057 
L 281.91029 259.173804 
L 285.03192 264.967097 
L 288.153551 269.094924 
L 291.275182 268.476196 
L 294.396813 272.88651 
L 297.518443 276.105504 
L 300.640074 278.207352 
L 303.761705 279.257391 
L 306.883335 278.652906 
L 310.004966 280.117914 
L 313.126597 279.511714 
L 316.248227 282.377709 
L 319.369858 277.328614 
L 322.491489 279.424361 
L 325.613119 277.358552 
L 328.73475 279.520343 
L 331.856381 278.394653 
L 334.978011 283.600168 
L 338.099642 287.495888 
L 341.221273 285.474278 
L 344.342903 281.672403 
L 347.464534 284.523689 
L 350.586165 284.630356 
L 353.707795 282.741958 
L 356.829426 287.080116 
L 359.951057 293.480916 
L 363.072688 294.172141 
L 366.194318 296.780708 
L 369.315949 303.325927 
L 372.43758 309.921914 
L 375.55921 309.458219 
L 378.680841 311.532373 
L 381.802472 316.143897 
" clip-path="url(#p58eec24003)" style="fill: none; stroke: #1f77b4; stroke-width: 1.5; stroke-linecap: round"/>
   </g>
   <g id="line2d_13">
    <path d="M 69.639403 323.346327 
L 72.761034 320.898804 
L 75.882665 278.476607 
L 79.004295 250.443771 
L 82.125926 225.032508 
L 85.247557 200.349561 
L 88.369187 186.390429 
L 91.490818 175.626518 
L 94.612449 175.73683 
L 97.73408 174.649573 
L 100.85571 172.786528 
L 103.977341 169.416964 
L 107.098972 163.907704 
L 110.220602 155.303167 
L 113.342233 147.124703 
L 116.463864 150.479055 
L 119.585494 156.024024 
L 122.707125 167.744742 
L 125.828756 178.807948 
L 128.950386 187.402313 
L 132.072017 195.051536 
L 135.193648 199.384731 
L 138.315278 197.368544 
L 141.436909 191.231774 
L 144.55854 179.498302 
L 147.68017 166.07031 
L 150.801801 156.2444 
L 153.923432 156.588919 
L 157.045062 166.237148 
L 160.166693 185.787099 
L 163.288324 197.967152 
L 166.409955 208.653129 
L 169.531585 213.392079 
L 172.653216 213.977089 
L 175.774847 204.370249 
L 178.896477 200.979152 
L 182.018108 197.55769 
L 185.139739 199.436534 
L 188.261369 199.996884 
L 191.383 208.941734 
L 194.504631 213.022508 
L 197.626261 210.617054 
L 200.747892 203.361582 
L 203.869523 198.641915 
L 206.991153 197.54544 
L 210.112784 197.213529 
L 213.234415 200.060853 
L 216.356045 201.349649 
L 219.477676 203.888837 
L 222.599307 199.250505 
L 225.720938 200.340252 
L 228.842568 202.410715 
L 231.964199 206.742916 
L 235.08583 199.028001 
L 238.20746 193.68992 
L 241.329091 182.645855 
L 244.450722 174.153133 
L 247.572352 169.973306 
L 250.693983 174.426893 
L 253.815614 177.751194 
L 256.937244 183.81894 
L 260.058875 185.003987 
L 263.180506 180.117865 
L 266.302136 174.03094 
L 269.423767 170.064504 
L 272.545398 171.126793 
L 275.667028 178.542234 
L 278.788659 184.308821 
L 281.91029 193.327487 
L 285.03192 198.606898 
L 288.153551 201.593581 
L 291.275182 199.664235 
L 294.396813 202.730099 
L 297.518443 204.222615 
L 300.640074 206.075161 
L 303.761705 207.80606 
L 306.883335 205.539051 
L 310.004966 203.95067 
L 313.126597 201.087236 
L 316.248227 201.827334 
L 319.369858 194.963256 
L 322.491489 197.206094 
L 325.613119 197.223994 
L 328.73475 201.464865 
L 331.856381 201.575352 
L 334.978011 206.226734 
L 338.099642 209.753226 
L 341.221273 206.945129 
L 344.342903 200.804773 
L 347.464534 201.227179 
L 350.586165 200.96628 
L 353.707795 197.915995 
L 356.829426 200.083841 
L 359.951057 205.719874 
L 363.072688 206.747132 
L 366.194318 209.040009 
L 369.315949 215.888093 
L 372.43758 222.869637 
L 375.55921 223.27313 
L 378.680841 225.380397 
L 381.802472 229.7339 
" clip-path="url(#p58eec24003)" style="fill: none; stroke: #ff7f0e; stroke-width: 1.5; stroke-linecap: round"/>
   </g>
   <g id="line2d_14">
    <path d="M 69.639403 323.346327 
L 72.761034 311.817405 
L 75.882665 275.489633 
L 79.004295 246.474344 
L 82.125926 221.05417 
L 85.247557 196.390976 
L 88.369187 178.122723 
L 91.490818 166.986348 
L 94.612449 168.311326 
L 97.73408 169.141384 
L 100.85571 166.837164 
L 103.977341 167.220149 
L 107.098972 160.494605 
L 110.220602 151.489763 
L 113.342233 143.853227 
L 116.463864 150.55511 
L 119.585494 156.377422 
L 122.707125 168.150179 
L 125.828756 179.395753 
L 128.950386 188.676772 
L 132.072017 194.574058 
L 135.193648 199.789846 
L 138.315278 200.119789 
L 141.436909 194.57823 
L 144.55854 181.10016 
L 147.68017 168.544427 
L 150.801801 157.954142 
L 153.923432 157.366771 
L 157.045062 167.031183 
L 160.166693 184.069847 
L 163.288324 196.525696 
L 166.409955 206.304713 
L 169.531585 212.01992 
L 172.653216 212.583587 
L 175.774847 206.18729 
L 178.896477 202.184348 
L 182.018108 198.838584 
L 185.139739 198.973815 
L 188.261369 197.817243 
L 191.383 207.98029 
L 194.504631 213.868842 
L 197.626261 213.198602 
L 200.747892 206.618479 
L 203.869523 203.259886 
L 206.991153 199.755656 
L 210.112784 197.645344 
L 213.234415 200.005775 
L 216.356045 201.257735 
L 219.477676 205.022907 
L 222.599307 201.452941 
L 225.720938 204.128981 
L 228.842568 205.438443 
L 231.964199 206.406984 
L 235.08583 197.116049 
L 238.20746 192.430616 
L 241.329091 182.180774 
L 244.450722 174.979436 
L 247.572352 174.819958 
L 250.693983 179.530246 
L 253.815614 183.584263 
L 256.937244 187.326965 
L 260.058875 186.780622 
L 263.180506 183.171176 
L 266.302136 177.59336 
L 269.423767 172.143651 
L 272.545398 174.990247 
L 275.667028 183.525713 
L 278.788659 189.078107 
L 281.91029 199.898627 
L 285.03192 207.26798 
L 288.153551 210.188389 
L 291.275182 207.627646 
L 294.396813 210.218865 
L 297.518443 211.072558 
L 300.640074 211.305672 
L 303.761705 213.157332 
L 306.883335 213.696214 
L 310.004966 212.602207 
L 313.126597 209.204469 
L 316.248227 210.198591 
L 319.369858 202.551661 
L 322.491489 203.20693 
L 325.613119 203.39694 
L 328.73475 206.361999 
L 331.856381 207.561117 
L 334.978011 212.052033 
L 338.099642 215.650989 
L 341.221273 213.553296 
L 344.342903 208.478592 
L 347.464534 208.128879 
L 350.586165 208.845467 
L 353.707795 205.306605 
L 356.829426 207.502007 
L 359.951057 213.328284 
L 363.072688 214.992328 
L 366.194318 216.281808 
L 369.315949 222.76059 
L 372.43758 228.594183 
L 375.55921 230.506053 
L 378.680841 232.257681 
L 381.802472 237.390564 
" clip-path="url(#p58eec24003)" style="fill: none; stroke: #2ca02c; stroke-width: 1.5; stroke-linecap: round"/>
   </g>
   <g id="line2d_15">
    <path d="M 69.639403 323.346327 
L 72.761034 306.434447 
L 75.882665 271.754094 
L 79.004295 243.096503 
L 82.125926 218.197961 
L 85.247557 196.381551 
L 88.369187 179.034849 
L 91.490818 168.462679 
L 94.612449 170.2809 
L 97.73408 172.33795 
L 100.85571 170.221018 
L 103.977341 170.531739 
L 107.098972 162.818624 
L 110.220602 153.623503 
L 113.342233 145.889939 
L 116.463864 152.501081 
L 119.585494 158.266139 
L 122.707125 170.745907 
L 125.828756 180.511309 
L 128.950386 189.329741 
L 132.072017 194.680999 
L 135.193648 199.233689 
L 138.315278 199.813996 
L 141.436909 196.158856 
L 144.55854 182.938045 
L 147.68017 171.419223 
L 150.801801 161.903483 
L 153.923432 161.423875 
L 157.045062 170.711488 
L 160.166693 186.888366 
L 163.288324 199.122109 
L 166.409955 206.912098 
L 169.531585 210.839092 
L 172.653216 210.27579 
L 175.774847 204.21533 
L 178.896477 199.794721 
L 182.018108 199.727836 
L 185.139739 202.517523 
L 188.261369 203.403468 
L 191.383 213.574327 
L 194.504631 220.312437 
L 197.626261 219.006246 
L 200.747892 210.957403 
L 203.869523 207.645354 
L 206.991153 204.176628 
L 210.112784 200.072828 
L 213.234415 201.521087 
L 216.356045 204.710154 
L 219.477676 208.886004 
L 222.599307 207.289871 
L 225.720938 212.447019 
L 228.842568 214.729752 
L 231.964199 214.016482 
L 235.08583 204.285128 
L 238.20746 196.490812 
L 241.329091 183.69838 
L 244.450722 174.346566 
L 247.572352 176.869213 
L 250.693983 182.686048 
L 253.815614 188.094845 
L 256.937244 194.936915 
L 260.058875 196.207645 
L 263.180506 188.983608 
L 266.302136 181.594291 
L 269.423767 178.105942 
L 272.545398 181.785826 
L 275.667028 191.058944 
L 278.788659 199.12625 
L 281.91029 210.650958 
L 285.03192 217.724447 
L 288.153551 219.694285 
L 291.275182 216.803131 
L 294.396813 219.252571 
L 297.518443 221.282131 
L 300.640074 222.127725 
L 303.761705 223.055672 
L 306.883335 224.402176 
L 310.004966 223.50989 
L 313.126597 219.034705 
L 316.248227 218.231459 
L 319.369858 209.670814 
L 322.491489 211.062977 
L 325.613119 211.314275 
L 328.73475 215.066208 
L 331.856381 215.661367 
L 334.978011 222.745092 
L 338.099642 225.396735 
L 341.221273 222.67714 
L 344.342903 217.010555 
L 347.464534 219.782721 
L 350.586165 218.592959 
L 353.707795 215.00733 
L 356.829426 217.471525 
L 359.951057 224.286806 
L 363.072688 223.997453 
L 366.194318 226.313443 
L 369.315949 234.101997 
L 372.43758 239.58465 
L 375.55921 240.708051 
L 378.680841 243.570296 
L 381.802472 249.141339 
" clip-path="url(#p58eec24003)" style="fill: none; stroke: #d62728; stroke-width: 1.5; stroke-linecap: round"/>
   </g>
   <g id="line2d_16"/>
   <g id="line2d_17"/>
   <g id="line2d_18"/>
   <g id="line2d_19"/>
   <g id="patch_3">
    <path d="M 54.03125 337.94 
L 54.03125 24.72 
" style="fill: none; stroke: #ffffff; stroke-width: 0.8; stroke-linejoin: miter; stroke-linecap: square"/>
   </g>
   <g id="patch_4">
    <path d="M 54.03125 337.94 
L 397.410625 337.94 
" style="fill: none; stroke: #ffffff; stroke-width: 0.8; stroke-linejoin: miter; stroke-linecap: square"/>
   </g>
   <g id="text_7">
    <!-- Residue = 0.1 -->
    <g style="fill: #262626" transform="translate(190.662344 18.72) scale(0.1 -0.1)">
     <defs>
      <path id="DejaVuSans-52" d="M 2841 2188 
Q 3044 2119 3236 1894 
Q 3428 1669 3622 1275 
L 4263 0 
L 3584 0 
L 2988 1197 
Q 2756 1666 2539 1819 
Q 2322 1972 1947 1972 
L 1259 1972 
L 1259 0 
L 628 0 
L 628 4666 
L 2053 4666 
Q 2853 4666 3247 4331 
Q 3641 3997 3641 3322 
Q 3641 2881 3436 2590 
Q 3231 2300 2841 2188 
z
M 1259 4147 
L 1259 2491 
L 2053 2491 
Q 2509 2491 2742 2702 
Q 2975 2913 2975 3322 
Q 2975 3731 2742 3939 
Q 2509 4147 2053 4147 
L 1259 4147 
z
" transform="scale(0.015625)"/>
      <path id="DejaVuSans-73" d="M 2834 3397 
L 2834 2853 
Q 2591 2978 2328 3040 
Q 2066 3103 1784 3103 
Q 1356 3103 1142 2972 
Q 928 2841 928 2578 
Q 928 2378 1081 2264 
Q 1234 2150 1697 2047 
L 1894 2003 
Q 2506 1872 2764 1633 
Q 3022 1394 3022 966 
Q 3022 478 2636 193 
Q 2250 -91 1575 -91 
Q 1294 -91 989 -36 
Q 684 19 347 128 
L 347 722 
Q 666 556 975 473 
Q 1284 391 1588 391 
Q 1994 391 2212 530 
Q 2431 669 2431 922 
Q 2431 1156 2273 1281 
Q 2116 1406 1581 1522 
L 1381 1569 
Q 847 1681 609 1914 
Q 372 2147 372 2553 
Q 372 3047 722 3315 
Q 1072 3584 1716 3584 
Q 2034 3584 2315 3537 
Q 2597 3491 2834 3397 
z
" transform="scale(0.015625)"/>
      <path id="DejaVuSans-64" d="M 2906 2969 
L 2906 4863 
L 3481 4863 
L 3481 0 
L 2906 0 
L 2906 525 
Q 2725 213 2448 61 
Q 2172 -91 1784 -91 
Q 1150 -91 751 415 
Q 353 922 353 1747 
Q 353 2572 751 3078 
Q 1150 3584 1784 3584 
Q 2172 3584 2448 3432 
Q 2725 3281 2906 2969 
z
M 947 1747 
Q 947 1113 1208 752 
Q 1469 391 1925 391 
Q 2381 391 2643 752 
Q 2906 1113 2906 1747 
Q 2906 2381 2643 2742 
Q 2381 3103 1925 3103 
Q 1469 3103 1208 2742 
Q 947 2381 947 1747 
z
" transform="scale(0.015625)"/>
      <path id="DejaVuSans-75" d="M 544 1381 
L 544 3500 
L 1119 3500 
L 1119 1403 
Q 1119 906 1312 657 
Q 1506 409 1894 409 
Q 2359 409 2629 706 
Q 2900 1003 2900 1516 
L 2900 3500 
L 3475 3500 
L 3475 0 
L 2900 0 
L 2900 538 
Q 2691 219 2414 64 
Q 2138 -91 1772 -91 
Q 1169 -91 856 284 
Q 544 659 544 1381 
z
M 1991 3584 
L 1991 3584 
z
" transform="scale(0.015625)"/>
      <path id="DejaVuSans-20" transform="scale(0.015625)"/>
      <path id="DejaVuSans-3d" d="M 678 2906 
L 4684 2906 
L 4684 2381 
L 678 2381 
L 678 2906 
z
M 678 1631 
L 4684 1631 
L 4684 1100 
L 678 1100 
L 678 1631 
z
" transform="scale(0.015625)"/>
      <path id="DejaVuSans-31" d="M 794 531 
L 1825 531 
L 1825 4091 
L 703 3866 
L 703 4441 
L 1819 4666 
L 2450 4666 
L 2450 531 
L 3481 531 
L 3481 0 
L 794 0 
L 794 531 
z
" transform="scale(0.015625)"/>
     </defs>
     <use xlink:href="#DejaVuSans-52"/>
     <use xlink:href="#DejaVuSans-65" transform="translate(64.982422 0)"/>
     <use xlink:href="#DejaVuSans-73" transform="translate(126.505859 0)"/>
     <use xlink:href="#DejaVuSans-69" transform="translate(178.605469 0)"/>
     <use xlink:href="#DejaVuSans-64" transform="translate(206.388672 0)"/>
     <use xlink:href="#DejaVuSans-75" transform="translate(269.865234 0)"/>
     <use xlink:href="#DejaVuSans-65" transform="translate(333.244141 0)"/>
     <use xlink:href="#DejaVuSans-20" transform="translate(394.767578 0)"/>
     <use xlink:href="#DejaVuSans-3d" transform="translate(426.554688 0)"/>
     <use xlink:href="#DejaVuSans-20" transform="translate(510.34375 0)"/>
     <use xlink:href="#DejaVuSans-30" transform="translate(542.130859 0)"/>
     <use xlink:href="#DejaVuSans-2e" transform="translate(605.753906 0)"/>
     <use xlink:href="#DejaVuSans-31" transform="translate(637.541016 0)"/>
    </g>
   </g>
  </g>
  <g id="axes_2">
   <g id="patch_5">
    <path d="M 420.900625 337.94 
L 764.28 337.94 
L 764.28 24.72 
L 420.900625 24.72 
z
" style="fill: #eaeaf2"/>
   </g>
   <g id="matplotlib.axis_3">
    <g id="xtick_7">
     <g id="line2d_20">
      <path d="M 420.900625 337.94 
L 420.900625 24.72 
" clip-path="url(#p48ad10a4ae)" style="fill: none; stroke: #ffffff; stroke-width: 0.8; stroke-linecap: round"/>
     </g>
    </g>
    <g id="xtick_8">
     <g id="line2d_21">
      <path d="M 483.333239 337.94 
L 483.333239 24.72 
" clip-path="url(#p48ad10a4ae)" style="fill: none; stroke: #ffffff; stroke-width: 0.8; stroke-linecap: round"/>
     </g>
    </g>
    <g id="xtick_9">
     <g id="line2d_22">
      <path d="M 545.765852 337.94 
L 545.765852 24.72 
" clip-path="url(#p48ad10a4ae)" style="fill: none; stroke: #ffffff; stroke-width: 0.8; stroke-linecap: round"/>
     </g>
    </g>
    <g id="xtick_10">
     <g id="line2d_23">
      <path d="M 608.198466 337.94 
L 608.198466 24.72 
" clip-path="url(#p48ad10a4ae)" style="fill: none; stroke: #ffffff; stroke-width: 0.8; stroke-linecap: round"/>
     </g>
    </g>
    <g id="xtick_11">
     <g id="line2d_24">
      <path d="M 670.63108 337.94 
L 670.63108 24.72 
" clip-path="url(#p48ad10a4ae)" style="fill: none; stroke: #ffffff; stroke-width: 0.8; stroke-linecap: round"/>
     </g>
    </g>
    <g id="xtick_12">
     <g id="line2d_25">
      <path d="M 733.063693 337.94 
L 733.063693 24.72 
" clip-path="url(#p48ad10a4ae)" style="fill: none; stroke: #ffffff; stroke-width: 0.8; stroke-linecap: round"/>
     </g>
    </g>
   </g>
   <g id="matplotlib.axis_4">
    <g id="ytick_6">
     <g id="line2d_26">
      <path d="M 420.900625 294.743323 
L 764.28 294.743323 
" clip-path="url(#p48ad10a4ae)" style="fill: none; stroke: #ffffff; stroke-width: 0.8; stroke-linecap: round"/>
     </g>
    </g>
    <g id="ytick_7">
     <g id="line2d_27">
      <path d="M 420.900625 235.024225 
L 764.28 235.024225 
" clip-path="url(#p48ad10a4ae)" style="fill: none; stroke: #ffffff; stroke-width: 0.8; stroke-linecap: round"/>
     </g>
    </g>
    <g id="ytick_8">
     <g id="line2d_28">
      <path d="M 420.900625 175.305127 
L 764.28 175.305127 
" clip-path="url(#p48ad10a4ae)" style="fill: none; stroke: #ffffff; stroke-width: 0.8; stroke-linecap: round"/>
     </g>
    </g>
    <g id="ytick_9">
     <g id="line2d_29">
      <path d="M 420.900625 115.586029 
L 764.28 115.586029 
" clip-path="url(#p48ad10a4ae)" style="fill: none; stroke: #ffffff; stroke-width: 0.8; stroke-linecap: round"/>
     </g>
    </g>
    <g id="ytick_10">
     <g id="line2d_30">
      <path d="M 420.900625 55.866931 
L 764.28 55.866931 
" clip-path="url(#p48ad10a4ae)" style="fill: none; stroke: #ffffff; stroke-width: 0.8; stroke-linecap: round"/>
     </g>
    </g>
   </g>
   <g id="line2d_31">
    <path d="M 436.508778 323.346327 
L 439.630409 279.217833 
L 442.75204 246.504503 
L 445.87367 214.083927 
L 448.995301 193.369495 
L 452.116932 175.904136 
L 455.238562 166.408861 
L 458.360193 158.638281 
L 461.481824 161.659232 
L 464.603455 156.881653 
L 467.725085 151.646979 
L 470.846716 145.707529 
L 473.968347 137.974196 
L 477.089977 130.35262 
L 480.211608 128.865786 
L 483.333239 139.149723 
L 486.454869 153.236813 
L 489.5765 166.874752 
L 492.698131 173.759978 
L 495.819761 185.816142 
L 498.941392 188.113292 
L 502.063023 189.911186 
L 505.184653 189.231268 
L 508.306284 185.321356 
L 511.427915 171.487906 
L 514.549545 165.384123 
L 517.671176 159.04831 
L 520.792807 164.91125 
L 523.914437 181.303151 
L 527.036068 198.522405 
L 530.157699 211.880108 
L 533.27933 219.086576 
L 536.40096 218.529454 
L 539.522591 217.75664 
L 542.644222 212.581322 
L 545.765852 207.345329 
L 548.887483 209.365377 
L 552.009114 217.72649 
L 555.130744 219.869764 
L 558.252375 226.6509 
L 561.374006 229.465205 
L 564.495636 228.092654 
L 567.617267 220.657152 
L 570.738898 219.803231 
L 573.860528 220.165348 
L 576.982159 220.150116 
L 580.10379 224.096347 
L 583.22542 224.010532 
L 586.347051 228.137653 
L 589.468682 228.346272 
L 592.590313 232.426022 
L 595.711943 232.86914 
L 598.833574 233.544 
L 601.955205 220.111436 
L 605.076835 209.069048 
L 608.198466 196.599442 
L 611.320097 187.621131 
L 614.441727 189.651599 
L 617.563358 195.250556 
L 620.684989 201.735665 
L 623.806619 210.277368 
L 626.92825 209.835126 
L 630.049881 202.765084 
L 633.171511 197.499049 
L 636.293142 196.046267 
L 639.414773 200.291308 
L 642.536403 209.082056 
L 645.658034 219.193711 
L 648.779665 226.64655 
L 651.901295 234.43747 
L 655.022926 231.91742 
L 658.144557 234.817973 
L 661.266188 237.574423 
L 664.387818 244.772951 
L 667.509449 245.89979 
L 670.63108 250.877508 
L 673.75271 249.32836 
L 676.874341 253.658343 
L 679.995972 250.849104 
L 683.117602 250.005667 
L 686.239233 243.732524 
L 689.360864 249.256463 
L 692.482494 247.563197 
L 695.604125 249.610598 
L 698.725756 250.700152 
L 701.847386 261.110035 
L 704.969017 257.85824 
L 708.090648 252.637774 
L 711.212278 250.151702 
L 714.333909 256.639767 
L 717.45554 253.044951 
L 720.57717 254.676273 
L 723.698801 259.098745 
L 726.820432 265.410472 
L 729.942063 263.100975 
L 733.063693 266.85216 
L 736.185324 278.453383 
L 739.306955 284.161356 
L 742.428585 281.568726 
L 745.550216 284.691375 
L 748.671847 288.932322 
" clip-path="url(#p48ad10a4ae)" style="fill: none; stroke: #1f77b4; stroke-width: 1.5; stroke-linecap: round"/>
   </g>
   <g id="line2d_32">
    <path d="M 436.508778 323.346327 
L 439.630409 280.287047 
L 442.75204 235.761952 
L 445.87367 195.761932 
L 448.995301 168.561122 
L 452.116932 148.059462 
L 455.238562 137.292523 
L 458.360193 134.285682 
L 461.481824 142.206394 
L 464.603455 141.143726 
L 467.725085 135.304581 
L 470.846716 129.039793 
L 473.968347 116.733397 
L 477.089977 105.669886 
L 480.211608 100.890171 
L 483.333239 112.227098 
L 486.454869 127.109956 
L 489.5765 143.585191 
L 492.698131 151.830231 
L 495.819761 165.005105 
L 498.941392 166.443403 
L 502.063023 166.356528 
L 505.184653 161.562459 
L 508.306284 153.30716 
L 511.427915 134.970647 
L 514.549545 126.615497 
L 517.671176 120.20879 
L 520.792807 128.747291 
L 523.914437 149.736046 
L 527.036068 171.111107 
L 530.157699 185.711581 
L 533.27933 193.319241 
L 536.40096 191.038881 
L 539.522591 186.866758 
L 542.644222 178.807273 
L 545.765852 171.463033 
L 548.887483 171.998229 
L 552.009114 178.965431 
L 555.130744 180.848699 
L 558.252375 187.154171 
L 561.374006 188.067984 
L 564.495636 181.243667 
L 567.617267 170.078179 
L 570.738898 168.142025 
L 573.860528 167.906895 
L 576.982159 167.469887 
L 580.10379 173.476113 
L 583.22542 174.67923 
L 586.347051 178.158832 
L 589.468682 178.471154 
L 592.590313 183.583531 
L 595.711943 186.097266 
L 598.833574 189.244398 
L 601.955205 176.863865 
L 605.076835 165.234692 
L 608.198466 150.883749 
L 611.320097 139.677619 
L 614.441727 139.70513 
L 617.563358 145.329229 
L 620.684989 151.486274 
L 623.806619 160.71852 
L 626.92825 160.207979 
L 630.049881 152.164457 
L 633.171511 144.353797 
L 636.293142 141.503755 
L 639.414773 145.579119 
L 642.536403 155.345583 
L 645.658034 166.201635 
L 648.779665 173.564038 
L 651.901295 179.859262 
L 655.022926 175.395099 
L 658.144557 176.393922 
L 661.266188 178.227829 
L 664.387818 185.794164 
L 667.509449 188.517144 
L 670.63108 193.746023 
L 673.75271 189.640502 
L 676.874341 190.65168 
L 679.995972 184.810342 
L 683.117602 181.893633 
L 686.239233 174.615569 
L 689.360864 182.24826 
L 692.482494 183.750363 
L 695.604125 187.83919 
L 698.725756 189.248639 
L 701.847386 198.671648 
L 704.969017 194.584074 
L 708.090648 187.019125 
L 711.212278 182.780347 
L 714.333909 187.84247 
L 717.45554 184.006025 
L 720.57717 184.061957 
L 723.698801 187.118315 
L 726.820432 192.763608 
L 729.942063 190.959664 
L 733.063693 195.456805 
L 736.185324 207.311487 
L 739.306955 214.238852 
L 742.428585 211.420118 
L 745.550216 214.277936 
L 748.671847 217.504355 
" clip-path="url(#p48ad10a4ae)" style="fill: none; stroke: #ff7f0e; stroke-width: 1.5; stroke-linecap: round"/>
   </g>
   <g id="line2d_33">
    <path d="M 436.508778 323.346327 
L 439.630409 277.160648 
L 442.75204 235.982477 
L 445.87367 195.370839 
L 448.995301 168.160069 
L 452.116932 147.950046 
L 455.238562 135.14207 
L 458.360193 132.5709 
L 461.481824 141.409183 
L 464.603455 141.359192 
L 467.725085 136.918201 
L 470.846716 133.282495 
L 473.968347 122.369386 
L 477.089977 114.413643 
L 480.211608 112.439579 
L 483.333239 123.673044 
L 486.454869 137.920629 
L 489.5765 154.461944 
L 492.698131 160.588372 
L 495.819761 172.188118 
L 498.941392 172.962642 
L 502.063023 173.692036 
L 505.184653 168.881787 
L 508.306284 160.198018 
L 511.427915 143.105979 
L 514.549545 135.66859 
L 517.671176 129.834867 
L 520.792807 137.397343 
L 523.914437 158.297246 
L 527.036068 175.730092 
L 530.157699 189.395463 
L 533.27933 195.440903 
L 536.40096 194.261407 
L 539.522591 190.539701 
L 542.644222 184.996005 
L 545.765852 178.412284 
L 548.887483 180.911031 
L 552.009114 187.142253 
L 555.130744 190.485881 
L 558.252375 197.74039 
L 561.374006 198.728661 
L 564.495636 190.389879 
L 567.617267 178.869415 
L 570.738898 175.889714 
L 573.860528 173.916707 
L 576.982159 172.970867 
L 580.10379 179.311671 
L 583.22542 180.959074 
L 586.347051 184.369211 
L 589.468682 186.100412 
L 592.590313 191.222091 
L 595.711943 193.774985 
L 598.833574 194.655792 
L 601.955205 184.001839 
L 605.076835 171.800305 
L 608.198466 158.8294 
L 611.320097 147.873492 
L 614.441727 150.437073 
L 617.563358 154.137476 
L 620.684989 161.007545 
L 623.806619 170.037386 
L 626.92825 169.372845 
L 630.049881 161.996974 
L 633.171511 154.905278 
L 636.293142 152.805709 
L 639.414773 157.864167 
L 642.536403 168.279771 
L 645.658034 180.373318 
L 648.779665 188.474193 
L 651.901295 194.202187 
L 655.022926 188.10986 
L 658.144557 188.447598 
L 661.266188 189.284456 
L 664.387818 196.639252 
L 667.509449 200.253613 
L 670.63108 206.356196 
L 673.75271 202.934305 
L 676.874341 203.235377 
L 679.995972 196.381011 
L 683.117602 191.763204 
L 686.239233 183.132091 
L 689.360864 191.142421 
L 692.482494 192.761046 
L 695.604125 197.3007 
L 698.725756 199.22586 
L 701.847386 209.778981 
L 704.969017 205.436601 
L 708.090648 198.851645 
L 711.212278 194.734176 
L 714.333909 199.538843 
L 717.45554 195.398593 
L 720.57717 195.233225 
L 723.698801 198.254174 
L 726.820432 203.603997 
L 729.942063 202.341161 
L 733.063693 207.030686 
L 736.185324 218.604833 
L 739.306955 225.090611 
L 742.428585 223.481161 
L 745.550216 226.392237 
L 748.671847 229.500144 
" clip-path="url(#p48ad10a4ae)" style="fill: none; stroke: #2ca02c; stroke-width: 1.5; stroke-linecap: round"/>
   </g>
   <g id="line2d_34">
    <path d="M 436.508778 323.346327 
L 439.630409 274.79073 
L 442.75204 234.630826 
L 445.87367 195.168789 
L 448.995301 169.20607 
L 452.116932 151.27771 
L 455.238562 140.153269 
L 458.360193 138.076429 
L 461.481824 146.424602 
L 464.603455 146.187701 
L 467.725085 141.305871 
L 470.846716 136.401772 
L 473.968347 125.360319 
L 477.089977 117.240182 
L 480.211608 115.097399 
L 483.333239 126.094028 
L 486.454869 140.150247 
L 489.5765 156.584882 
L 492.698131 162.347943 
L 495.819761 173.744354 
L 498.941392 174.801131 
L 502.063023 175.521749 
L 505.184653 171.377674 
L 508.306284 163.7464 
L 511.427915 148.073417 
L 514.549545 141.211471 
L 517.671176 135.953312 
L 520.792807 143.094808 
L 523.914437 163.450336 
L 527.036068 179.597434 
L 530.157699 192.680104 
L 533.27933 198.064928 
L 536.40096 195.908675 
L 539.522591 192.165727 
L 542.644222 187.405255 
L 545.765852 183.060741 
L 548.887483 187.31158 
L 552.009114 194.984207 
L 555.130744 199.475137 
L 558.252375 205.898883 
L 561.374006 204.630941 
L 564.495636 195.949564 
L 567.617267 184.064749 
L 570.738898 180.745447 
L 573.860528 178.757126 
L 576.982159 177.851179 
L 580.10379 185.064371 
L 583.22542 188.045356 
L 586.347051 191.746313 
L 589.468682 194.752865 
L 592.590313 200.524383 
L 595.711943 201.753867 
L 598.833574 201.694046 
L 601.955205 190.469814 
L 605.076835 178.558865 
L 608.198466 165.587569 
L 611.320097 154.130299 
L 614.441727 158.055247 
L 617.563358 162.693248 
L 620.684989 169.20948 
L 623.806619 179.31251 
L 626.92825 179.752632 
L 630.049881 170.703938 
L 633.171511 164.155982 
L 636.293142 163.393878 
L 639.414773 168.227637 
L 642.536403 178.325687 
L 645.658034 191.971157 
L 648.779665 199.04305 
L 651.901295 203.979092 
L 655.022926 197.697393 
L 658.144557 198.341906 
L 661.266188 199.491749 
L 664.387818 207.289608 
L 667.509449 211.052838 
L 670.63108 216.314134 
L 673.75271 212.987994 
L 676.874341 212.114015 
L 679.995972 204.927149 
L 683.117602 199.07594 
L 686.239233 190.907456 
L 689.360864 199.656913 
L 692.482494 201.377778 
L 695.604125 206.872032 
L 698.725756 208.896014 
L 701.847386 220.532858 
L 704.969017 215.793324 
L 708.090648 209.223445 
L 711.212278 205.288894 
L 714.333909 211.331269 
L 717.45554 206.204935 
L 720.57717 207.218914 
L 723.698801 210.15352 
L 726.820432 215.594754 
L 729.942063 213.775961 
L 733.063693 220.193289 
L 736.185324 230.962617 
L 739.306955 237.316735 
L 742.428585 235.226158 
L 745.550216 238.899471 
L 748.671847 240.469924 
" clip-path="url(#p48ad10a4ae)" style="fill: none; stroke: #d62728; stroke-width: 1.5; stroke-linecap: round"/>
   </g>
   <g id="patch_6">
    <path d="M 420.900625 337.94 
L 420.900625 24.72 
" style="fill: none; stroke: #ffffff; stroke-width: 0.8; stroke-linejoin: miter; stroke-linecap: square"/>
   </g>
   <g id="patch_7">
    <path d="M 420.900625 337.94 
L 764.28 337.94 
" style="fill: none; stroke: #ffffff; stroke-width: 0.8; stroke-linejoin: miter; stroke-linecap: square"/>
   </g>
   <g id="text_8">
    <!-- Residue = 0.37 -->
    <g style="fill: #262626" transform="translate(554.350469 18.72) scale(0.1 -0.1)">
     <defs>
      <path id="DejaVuSans-37" d="M 525 4666 
L 3525 4666 
L 3525 4397 
L 1831 0 
L 1172 0 
L 2766 4134 
L 525 4134 
L 525 4666 
z
" transform="scale(0.015625)"/>
     </defs>
     <use xlink:href="#DejaVuSans-52"/>
     <use xlink:href="#DejaVuSans-65" transform="translate(64.982422 0)"/>
     <use xlink:href="#DejaVuSans-73" transform="translate(126.505859 0)"/>
     <use xlink:href="#DejaVuSans-69" transform="translate(178.605469 0)"/>
     <use xlink:href="#DejaVuSans-64" transform="translate(206.388672 0)"/>
     <use xlink:href="#DejaVuSans-75" transform="translate(269.865234 0)"/>
     <use xlink:href="#DejaVuSans-65" transform="translate(333.244141 0)"/>
     <use xlink:href="#DejaVuSans-20" transform="translate(394.767578 0)"/>
     <use xlink:href="#DejaVuSans-3d" transform="translate(426.554688 0)"/>
     <use xlink:href="#DejaVuSans-20" transform="translate(510.34375 0)"/>
     <use xlink:href="#DejaVuSans-30" transform="translate(542.130859 0)"/>
     <use xlink:href="#DejaVuSans-2e" transform="translate(605.753906 0)"/>
     <use xlink:href="#DejaVuSans-33" transform="translate(637.541016 0)"/>
     <use xlink:href="#DejaVuSans-37" transform="translate(701.164062 0)"/>
    </g>
   </g>
  </g>
  <g id="axes_3">
   <g id="patch_8">
    <path d="M 54.03125 678.04 
L 397.410625 678.04 
L 397.410625 364.82 
L 54.03125 364.82 
z
" style="fill: #eaeaf2"/>
   </g>
   <g id="matplotlib.axis_5">
    <g id="xtick_13">
     <g id="line2d_35">
      <path d="M 54.03125 678.04 
L 54.03125 364.82 
" clip-path="url(#p5869c17d94)" style="fill: none; stroke: #ffffff; stroke-width: 0.8; stroke-linecap: round"/>
     </g>
     <g id="text_9">
      <!-- 1900 -->
      <g style="fill: #262626" transform="translate(41.30625 692.638438) scale(0.1 -0.1)">
       <defs>
        <path id="DejaVuSans-39" d="M 703 97 
L 703 672 
Q 941 559 1184 500 
Q 1428 441 1663 441 
Q 2288 441 2617 861 
Q 2947 1281 2994 2138 
Q 2813 1869 2534 1725 
Q 2256 1581 1919 1581 
Q 1219 1581 811 2004 
Q 403 2428 403 3163 
Q 403 3881 828 4315 
Q 1253 4750 1959 4750 
Q 2769 4750 3195 4129 
Q 3622 3509 3622 2328 
Q 3622 1225 3098 567 
Q 2575 -91 1691 -91 
Q 1453 -91 1209 -44 
Q 966 3 703 97 
z
M 1959 2075 
Q 2384 2075 2632 2365 
Q 2881 2656 2881 3163 
Q 2881 3666 2632 3958 
Q 2384 4250 1959 4250 
Q 1534 4250 1286 3958 
Q 1038 3666 1038 3163 
Q 1038 2656 1286 2365 
Q 1534 2075 1959 2075 
z
" transform="scale(0.015625)"/>
       </defs>
       <use xlink:href="#DejaVuSans-31"/>
       <use xlink:href="#DejaVuSans-39" transform="translate(63.623047 0)"/>
       <use xlink:href="#DejaVuSans-30" transform="translate(127.246094 0)"/>
       <use xlink:href="#DejaVuSans-30" transform="translate(190.869141 0)"/>
      </g>
     </g>
    </g>
    <g id="xtick_14">
     <g id="line2d_36">
      <path d="M 116.463864 678.04 
L 116.463864 364.82 
" clip-path="url(#p5869c17d94)" style="fill: none; stroke: #ffffff; stroke-width: 0.8; stroke-linecap: round"/>
     </g>
     <g id="text_10">
      <!-- 1920 -->
      <g style="fill: #262626" transform="translate(103.738864 692.638438) scale(0.1 -0.1)">
       <use xlink:href="#DejaVuSans-31"/>
       <use xlink:href="#DejaVuSans-39" transform="translate(63.623047 0)"/>
       <use xlink:href="#DejaVuSans-32" transform="translate(127.246094 0)"/>
       <use xlink:href="#DejaVuSans-30" transform="translate(190.869141 0)"/>
      </g>
     </g>
    </g>
    <g id="xtick_15">
     <g id="line2d_37">
      <path d="M 178.896477 678.04 
L 178.896477 364.82 
" clip-path="url(#p5869c17d94)" style="fill: none; stroke: #ffffff; stroke-width: 0.8; stroke-linecap: round"/>
     </g>
     <g id="text_11">
      <!-- 1940 -->
      <g style="fill: #262626" transform="translate(166.171477 692.638438) scale(0.1 -0.1)">
       <use xlink:href="#DejaVuSans-31"/>
       <use xlink:href="#DejaVuSans-39" transform="translate(63.623047 0)"/>
       <use xlink:href="#DejaVuSans-34" transform="translate(127.246094 0)"/>
       <use xlink:href="#DejaVuSans-30" transform="translate(190.869141 0)"/>
      </g>
     </g>
    </g>
    <g id="xtick_16">
     <g id="line2d_38">
      <path d="M 241.329091 678.04 
L 241.329091 364.82 
" clip-path="url(#p5869c17d94)" style="fill: none; stroke: #ffffff; stroke-width: 0.8; stroke-linecap: round"/>
     </g>
     <g id="text_12">
      <!-- 1960 -->
      <g style="fill: #262626" transform="translate(228.604091 692.638438) scale(0.1 -0.1)">
       <defs>
        <path id="DejaVuSans-36" d="M 2113 2584 
Q 1688 2584 1439 2293 
Q 1191 2003 1191 1497 
Q 1191 994 1439 701 
Q 1688 409 2113 409 
Q 2538 409 2786 701 
Q 3034 994 3034 1497 
Q 3034 2003 2786 2293 
Q 2538 2584 2113 2584 
z
M 3366 4563 
L 3366 3988 
Q 3128 4100 2886 4159 
Q 2644 4219 2406 4219 
Q 1781 4219 1451 3797 
Q 1122 3375 1075 2522 
Q 1259 2794 1537 2939 
Q 1816 3084 2150 3084 
Q 2853 3084 3261 2657 
Q 3669 2231 3669 1497 
Q 3669 778 3244 343 
Q 2819 -91 2113 -91 
Q 1303 -91 875 529 
Q 447 1150 447 2328 
Q 447 3434 972 4092 
Q 1497 4750 2381 4750 
Q 2619 4750 2861 4703 
Q 3103 4656 3366 4563 
z
" transform="scale(0.015625)"/>
       </defs>
       <use xlink:href="#DejaVuSans-31"/>
       <use xlink:href="#DejaVuSans-39" transform="translate(63.623047 0)"/>
       <use xlink:href="#DejaVuSans-36" transform="translate(127.246094 0)"/>
       <use xlink:href="#DejaVuSans-30" transform="translate(190.869141 0)"/>
      </g>
     </g>
    </g>
    <g id="xtick_17">
     <g id="line2d_39">
      <path d="M 303.761705 678.04 
L 303.761705 364.82 
" clip-path="url(#p5869c17d94)" style="fill: none; stroke: #ffffff; stroke-width: 0.8; stroke-linecap: round"/>
     </g>
     <g id="text_13">
      <!-- 1980 -->
      <g style="fill: #262626" transform="translate(291.036705 692.638438) scale(0.1 -0.1)">
       <defs>
        <path id="DejaVuSans-38" d="M 2034 2216 
Q 1584 2216 1326 1975 
Q 1069 1734 1069 1313 
Q 1069 891 1326 650 
Q 1584 409 2034 409 
Q 2484 409 2743 651 
Q 3003 894 3003 1313 
Q 3003 1734 2745 1975 
Q 2488 2216 2034 2216 
z
M 1403 2484 
Q 997 2584 770 2862 
Q 544 3141 544 3541 
Q 544 4100 942 4425 
Q 1341 4750 2034 4750 
Q 2731 4750 3128 4425 
Q 3525 4100 3525 3541 
Q 3525 3141 3298 2862 
Q 3072 2584 2669 2484 
Q 3125 2378 3379 2068 
Q 3634 1759 3634 1313 
Q 3634 634 3220 271 
Q 2806 -91 2034 -91 
Q 1263 -91 848 271 
Q 434 634 434 1313 
Q 434 1759 690 2068 
Q 947 2378 1403 2484 
z
M 1172 3481 
Q 1172 3119 1398 2916 
Q 1625 2713 2034 2713 
Q 2441 2713 2670 2916 
Q 2900 3119 2900 3481 
Q 2900 3844 2670 4047 
Q 2441 4250 2034 4250 
Q 1625 4250 1398 4047 
Q 1172 3844 1172 3481 
z
" transform="scale(0.015625)"/>
       </defs>
       <use xlink:href="#DejaVuSans-31"/>
       <use xlink:href="#DejaVuSans-39" transform="translate(63.623047 0)"/>
       <use xlink:href="#DejaVuSans-38" transform="translate(127.246094 0)"/>
       <use xlink:href="#DejaVuSans-30" transform="translate(190.869141 0)"/>
      </g>
     </g>
    </g>
    <g id="xtick_18">
     <g id="line2d_40">
      <path d="M 366.194318 678.04 
L 366.194318 364.82 
" clip-path="url(#p5869c17d94)" style="fill: none; stroke: #ffffff; stroke-width: 0.8; stroke-linecap: round"/>
     </g>
     <g id="text_14">
      <!-- 2000 -->
      <g style="fill: #262626" transform="translate(353.469318 692.638438) scale(0.1 -0.1)">
       <use xlink:href="#DejaVuSans-32"/>
       <use xlink:href="#DejaVuSans-30" transform="translate(63.623047 0)"/>
       <use xlink:href="#DejaVuSans-30" transform="translate(127.246094 0)"/>
       <use xlink:href="#DejaVuSans-30" transform="translate(190.869141 0)"/>
      </g>
     </g>
    </g>
    <g id="text_15">
     <!-- year -->
     <g style="fill: #262626" transform="translate(214.565469 706.316563) scale(0.1 -0.1)">
      <defs>
       <path id="DejaVuSans-79" d="M 2059 -325 
Q 1816 -950 1584 -1140 
Q 1353 -1331 966 -1331 
L 506 -1331 
L 506 -850 
L 844 -850 
Q 1081 -850 1212 -737 
Q 1344 -625 1503 -206 
L 1606 56 
L 191 3500 
L 800 3500 
L 1894 763 
L 2988 3500 
L 3597 3500 
L 2059 -325 
z
" transform="scale(0.015625)"/>
      </defs>
      <use xlink:href="#DejaVuSans-79"/>
      <use xlink:href="#DejaVuSans-65" transform="translate(59.179688 0)"/>
      <use xlink:href="#DejaVuSans-61" transform="translate(120.703125 0)"/>
      <use xlink:href="#DejaVuSans-72" transform="translate(181.982422 0)"/>
     </g>
    </g>
   </g>
   <g id="matplotlib.axis_6">
    <g id="ytick_11">
     <g id="line2d_41">
      <path d="M 54.03125 634.843323 
L 397.410625 634.843323 
" clip-path="url(#p5869c17d94)" style="fill: none; stroke: #ffffff; stroke-width: 0.8; stroke-linecap: round"/>
     </g>
     <g id="text_16">
      <!-- 52.5 -->
      <g style="fill: #262626" transform="translate(24.765625 638.642542) scale(0.1 -0.1)">
       <use xlink:href="#DejaVuSans-35"/>
       <use xlink:href="#DejaVuSans-32" transform="translate(63.623047 0)"/>
       <use xlink:href="#DejaVuSans-2e" transform="translate(127.246094 0)"/>
       <use xlink:href="#DejaVuSans-35" transform="translate(159.033203 0)"/>
      </g>
     </g>
    </g>
    <g id="ytick_12">
     <g id="line2d_42">
      <path d="M 54.03125 575.124225 
L 397.410625 575.124225 
" clip-path="url(#p5869c17d94)" style="fill: none; stroke: #ffffff; stroke-width: 0.8; stroke-linecap: round"/>
     </g>
     <g id="text_17">
      <!-- 53.0 -->
      <g style="fill: #262626" transform="translate(24.765625 578.923444) scale(0.1 -0.1)">
       <use xlink:href="#DejaVuSans-35"/>
       <use xlink:href="#DejaVuSans-33" transform="translate(63.623047 0)"/>
       <use xlink:href="#DejaVuSans-2e" transform="translate(127.246094 0)"/>
       <use xlink:href="#DejaVuSans-30" transform="translate(159.033203 0)"/>
      </g>
     </g>
    </g>
    <g id="ytick_13">
     <g id="line2d_43">
      <path d="M 54.03125 515.405127 
L 397.410625 515.405127 
" clip-path="url(#p5869c17d94)" style="fill: none; stroke: #ffffff; stroke-width: 0.8; stroke-linecap: round"/>
     </g>
     <g id="text_18">
      <!-- 53.5 -->
      <g style="fill: #262626" transform="translate(24.765625 519.204346) scale(0.1 -0.1)">
       <use xlink:href="#DejaVuSans-35"/>
       <use xlink:href="#DejaVuSans-33" transform="translate(63.623047 0)"/>
       <use xlink:href="#DejaVuSans-2e" transform="translate(127.246094 0)"/>
       <use xlink:href="#DejaVuSans-35" transform="translate(159.033203 0)"/>
      </g>
     </g>
    </g>
    <g id="ytick_14">
     <g id="line2d_44">
      <path d="M 54.03125 455.686029 
L 397.410625 455.686029 
" clip-path="url(#p5869c17d94)" style="fill: none; stroke: #ffffff; stroke-width: 0.8; stroke-linecap: round"/>
     </g>
     <g id="text_19">
      <!-- 54.0 -->
      <g style="fill: #262626" transform="translate(24.765625 459.485248) scale(0.1 -0.1)">
       <use xlink:href="#DejaVuSans-35"/>
       <use xlink:href="#DejaVuSans-34" transform="translate(63.623047 0)"/>
       <use xlink:href="#DejaVuSans-2e" transform="translate(127.246094 0)"/>
       <use xlink:href="#DejaVuSans-30" transform="translate(159.033203 0)"/>
      </g>
     </g>
    </g>
    <g id="ytick_15">
     <g id="line2d_45">
      <path d="M 54.03125 395.966931 
L 397.410625 395.966931 
" clip-path="url(#p5869c17d94)" style="fill: none; stroke: #ffffff; stroke-width: 0.8; stroke-linecap: round"/>
     </g>
     <g id="text_20">
      <!-- 54.5 -->
      <g style="fill: #262626" transform="translate(24.765625 399.76615) scale(0.1 -0.1)">
       <use xlink:href="#DejaVuSans-35"/>
       <use xlink:href="#DejaVuSans-34" transform="translate(63.623047 0)"/>
       <use xlink:href="#DejaVuSans-2e" transform="translate(127.246094 0)"/>
       <use xlink:href="#DejaVuSans-35" transform="translate(159.033203 0)"/>
      </g>
     </g>
    </g>
    <g id="text_21">
     <!-- min_ratio_roll_mean -->
     <g style="fill: #262626" transform="translate(18.407813 571.846406) rotate(-90) scale(0.1 -0.1)">
      <use xlink:href="#DejaVuSans-6d"/>
      <use xlink:href="#DejaVuSans-69" transform="translate(97.412109 0)"/>
      <use xlink:href="#DejaVuSans-6e" transform="translate(125.195312 0)"/>
      <use xlink:href="#DejaVuSans-5f" transform="translate(188.574219 0)"/>
      <use xlink:href="#DejaVuSans-72" transform="translate(238.574219 0)"/>
      <use xlink:href="#DejaVuSans-61" transform="translate(279.6875 0)"/>
      <use xlink:href="#DejaVuSans-74" transform="translate(340.966797 0)"/>
      <use xlink:href="#DejaVuSans-69" transform="translate(380.175781 0)"/>
      <use xlink:href="#DejaVuSans-6f" transform="translate(407.958984 0)"/>
      <use xlink:href="#DejaVuSans-5f" transform="translate(469.140625 0)"/>
      <use xlink:href="#DejaVuSans-72" transform="translate(519.140625 0)"/>
      <use xlink:href="#DejaVuSans-6f" transform="translate(558.003906 0)"/>
      <use xlink:href="#DejaVuSans-6c" transform="translate(619.185547 0)"/>
      <use xlink:href="#DejaVuSans-6c" transform="translate(646.96875 0)"/>
      <use xlink:href="#DejaVuSans-5f" transform="translate(674.751953 0)"/>
      <use xlink:href="#DejaVuSans-6d" transform="translate(724.751953 0)"/>
      <use xlink:href="#DejaVuSans-65" transform="translate(822.164062 0)"/>
      <use xlink:href="#DejaVuSans-61" transform="translate(883.6875 0)"/>
      <use xlink:href="#DejaVuSans-6e" transform="translate(944.966797 0)"/>
     </g>
    </g>
   </g>
   <g id="line2d_46">
    <path d="M 69.639403 663.446327 
L 72.761034 576.653212 
L 75.882665 545.374714 
L 79.004295 502.690321 
L 82.125926 481.71336 
L 85.247557 468.897901 
L 88.369187 461.580911 
L 91.490818 458.6672 
L 94.612449 465.771077 
L 97.73408 457.675245 
L 100.85571 448.514664 
L 103.977341 440.824629 
L 107.098972 430.017594 
L 110.220602 422.486536 
L 113.342233 426.143937 
L 116.463864 441.841822 
L 119.585494 461.596868 
L 122.707125 477.425937 
L 125.828756 481.162286 
L 128.950386 497.253655 
L 132.072017 495.174765 
L 135.193648 495.05305 
L 138.315278 491.436443 
L 141.436909 485.494833 
L 144.55854 467.42566 
L 147.68017 465.426242 
L 150.801801 460.696682 
L 153.923432 472.5275 
L 157.045062 498.432141 
L 160.166693 513.728788 
L 163.288324 528.417151 
L 166.409955 534.442134 
L 169.531585 527.948499 
L 172.653216 523.019993 
L 175.774847 520.312021 
L 178.896477 513.791179 
L 182.018108 519.308971 
L 185.139739 532.26921 
L 188.261369 537.241716 
L 191.383 541.593773 
L 194.504631 540.996222 
L 197.626261 536.695389 
L 200.747892 525.370481 
L 203.869523 525.306488 
L 206.991153 526.123891 
L 210.112784 526.144445 
L 213.234415 531.849218 
L 216.356045 532.520191 
L 219.477676 537.240036 
L 222.599307 540.26565 
L 225.720938 545.214576 
L 228.842568 544.350718 
L 231.964199 542.302451 
L 235.08583 525.577192 
L 238.20746 511.639242 
L 241.329091 499.691134 
L 244.450722 488.190079 
L 247.572352 495.626284 
L 250.693983 501.063039 
L 253.815614 510.901309 
L 256.937244 521.850111 
L 260.058875 521.488243 
L 263.180506 511.107148 
L 266.302136 505.375435 
L 269.423767 504.892738 
L 272.545398 510.72891 
L 275.667028 520.58638 
L 278.788659 536.214988 
L 281.91029 542.060436 
L 285.03192 551.656908 
L 288.153551 542.046098 
L 291.275182 548.898988 
L 294.396813 550.252938 
L 297.518443 561.180575 
L 300.640074 560.852773 
L 303.761705 568.403262 
L 306.883335 563.860155 
L 310.004966 569.812128 
L 313.126597 565.495453 
L 316.248227 558.1966 
L 319.369858 551.710206 
L 322.491489 562.530382 
L 325.613119 561.371935 
L 328.73475 564.061835 
L 331.856381 568.92421 
L 334.978011 584.507837 
L 338.099642 573.408193 
L 341.221273 565.357435 
L 344.342903 563.498532 
L 347.464534 573.246017 
L 350.586165 566.78376 
L 353.707795 573.529469 
L 356.829426 578.765741 
L 359.951057 584.356674 
L 363.072688 580.336887 
L 366.194318 585.673884 
L 369.315949 599.769026 
L 372.43758 603.08517 
L 375.55921 597.567962 
L 378.680841 601.086569 
L 381.802472 602.508589 
" clip-path="url(#p5869c17d94)" style="fill: none; stroke: #1f77b4; stroke-width: 1.5; stroke-linecap: round"/>
   </g>
   <g id="line2d_47">
    <path d="M 69.639403 663.446327 
L 72.761034 580.193567 
L 75.882665 533.940673 
L 79.004295 483.093408 
L 82.125926 456.012313 
L 85.247557 441.819754 
L 88.369187 435.197329 
L 91.490818 439.363023 
L 94.612449 454.303698 
L 97.73408 452.673683 
L 100.85571 443.970615 
L 103.977341 436.587912 
L 107.098972 421.465041 
L 110.220602 410.926955 
L 113.342233 410.6432 
L 116.463864 427.340548 
L 119.585494 449.392151 
L 122.707125 468.538904 
L 125.828756 471.453349 
L 128.950386 487.457368 
L 132.072017 483.36299 
L 135.193648 478.256577 
L 138.315278 469.195866 
L 141.436909 459.149965 
L 144.55854 437.350909 
L 147.68017 434.099985 
L 150.801801 432.949474 
L 153.923432 449.819528 
L 157.045062 481.43039 
L 160.166693 500.912683 
L 163.288324 517.442027 
L 166.409955 520.994495 
L 169.531585 510.909869 
L 172.653216 501.451557 
L 175.774847 495.330295 
L 178.896477 485.208586 
L 182.018108 489.870203 
L 185.139739 501.661395 
L 188.261369 506.744378 
L 191.383 509.320493 
L 194.504631 505.489041 
L 197.626261 493.403469 
L 200.747892 479.458213 
L 203.869523 478.985543 
L 206.991153 480.360411 
L 210.112784 480.271387 
L 213.234415 489.882749 
L 216.356045 491.783404 
L 219.477676 496.012966 
L 222.599307 502.762745 
L 225.720938 511.71386 
L 228.842568 514.638759 
L 231.964199 514.137518 
L 235.08583 498.692953 
L 238.20746 479.908049 
L 241.329091 462.955189 
L 244.450722 447.847229 
L 247.572352 454.470099 
L 250.693983 459.602111 
L 253.815614 468.55867 
L 256.937244 481.734018 
L 260.058875 481.6227 
L 263.180506 468.8317 
L 266.302136 460.494279 
L 269.423767 459.683552 
L 272.545398 465.238649 
L 275.667028 475.97842 
L 278.788659 493.165553 
L 281.91029 497.829569 
L 285.03192 505.40319 
L 288.153551 493.353337 
L 291.275182 498.332716 
L 294.396813 498.958525 
L 297.518443 512.341979 
L 300.640074 514.807986 
L 303.761705 521.994457 
L 306.883335 513.54673 
L 310.004966 515.775694 
L 313.126597 507.94906 
L 316.248227 498.248602 
L 319.369858 491.93485 
L 322.491489 506.455268 
L 325.613119 509.722624 
L 328.73475 513.950442 
L 331.856381 518.504568 
L 334.978011 532.990504 
L 338.099642 521.058328 
L 341.221273 508.82697 
L 344.342903 505.846634 
L 347.464534 515.572299 
L 350.586165 508.266279 
L 353.707795 512.857855 
L 356.829426 516.909715 
L 359.951057 521.857018 
L 363.072688 517.769097 
L 366.194318 525.09909 
L 369.315949 539.723912 
L 372.43758 545.554352 
L 375.55921 538.771869 
L 378.680841 541.961616 
L 381.802472 541.574858 
" clip-path="url(#p5869c17d94)" style="fill: none; stroke: #ff7f0e; stroke-width: 1.5; stroke-linecap: round"/>
   </g>
   <g id="line2d_48">
    <path d="M 69.639403 663.446327 
L 72.761034 587.732877 
L 75.882665 538.301124 
L 79.004295 487.032071 
L 82.125926 458.354093 
L 85.247557 443.014402 
L 88.369187 436.646086 
L 91.490818 441.782736 
L 94.612449 457.305382 
L 97.73408 456.750815 
L 100.85571 449.291879 
L 103.977341 442.131683 
L 107.098972 431.234538 
L 110.220602 424.358746 
L 113.342233 426.48738 
L 116.463864 442.475097 
L 119.585494 463.657421 
L 122.707125 481.494404 
L 125.828756 483.645114 
L 128.950386 497.37749 
L 132.072017 494.485435 
L 135.193648 490.472632 
L 138.315278 480.127138 
L 141.436909 467.703071 
L 144.55854 448.367507 
L 147.68017 444.513409 
L 150.801801 443.994326 
L 153.923432 459.813032 
L 157.045062 491.325091 
L 160.166693 509.198229 
L 163.288324 524.144092 
L 166.409955 527.909454 
L 169.531585 519.47541 
L 172.653216 511.101234 
L 175.774847 505.386378 
L 178.896477 498.389469 
L 182.018108 503.987264 
L 185.139739 516.633809 
L 188.261369 524.573834 
L 191.383 527.700802 
L 194.504631 521.990864 
L 197.626261 506.695634 
L 200.747892 490.865471 
L 203.869523 487.985146 
L 206.991153 488.573711 
L 210.112784 489.319209 
L 213.234415 500.558331 
L 216.356045 502.723761 
L 219.477676 506.115021 
L 222.599307 512.674982 
L 225.720938 520.022702 
L 228.842568 522.310944 
L 231.964199 524.187666 
L 235.08583 511.740805 
L 238.20746 495.987051 
L 241.329091 480.977307 
L 244.450722 466.522148 
L 247.572352 471.507939 
L 250.693983 474.846786 
L 253.815614 482.300406 
L 256.937244 496.067363 
L 260.058875 497.18395 
L 263.180506 484.680246 
L 266.302136 477.971887 
L 269.423767 478.539821 
L 272.545398 484.485972 
L 275.667028 495.586828 
L 278.788659 514.844734 
L 281.91029 517.958837 
L 285.03192 522.677285 
L 288.153551 508.197042 
L 291.275182 512.453393 
L 294.396813 511.422142 
L 297.518443 525.482053 
L 300.640074 530.756702 
L 303.761705 539.862875 
L 306.883335 529.811404 
L 310.004966 530.42757 
L 313.126597 520.807972 
L 316.248227 508.001795 
L 319.369858 500.11504 
L 322.491489 515.992495 
L 325.613119 519.081367 
L 328.73475 525.161878 
L 331.856381 530.31043 
L 334.978011 546.016074 
L 338.099642 534.5169 
L 341.221273 524.124455 
L 344.342903 520.928569 
L 347.464534 531.169812 
L 350.586165 523.219306 
L 353.707795 527.761404 
L 356.829426 531.503871 
L 359.951057 536.077255 
L 363.072688 532.289911 
L 366.194318 541.012631 
L 369.315949 555.872292 
L 372.43758 562.926489 
L 375.55921 556.747983 
L 378.680841 560.521951 
L 381.802472 559.616976 
" clip-path="url(#p5869c17d94)" style="fill: none; stroke: #2ca02c; stroke-width: 1.5; stroke-linecap: round"/>
   </g>
   <g id="line2d_49">
    <path d="M 69.639403 663.446327 
L 72.761034 590.225258 
L 75.882665 543.002438 
L 79.004295 494.201043 
L 82.125926 467.401772 
L 85.247557 451.704532 
L 88.369187 445.906262 
L 91.490818 450.826971 
L 94.612449 464.533546 
L 97.73408 462.182964 
L 100.85571 453.987087 
L 103.977341 445.441501 
L 107.098972 434.520108 
L 110.220602 427.356411 
L 113.342233 429.219839 
L 116.463864 444.775799 
L 119.585494 465.669468 
L 122.707125 483.193193 
L 125.828756 486.121202 
L 128.950386 499.70192 
L 132.072017 497.529347 
L 135.193648 494.175317 
L 138.315278 484.856482 
L 141.436909 472.389715 
L 144.55854 455.231634 
L 147.68017 451.824534 
L 150.801801 451.225569 
L 153.923432 466.111345 
L 157.045062 496.981269 
L 160.166693 513.312309 
L 163.288324 527.211758 
L 166.409955 531.033878 
L 169.531585 523.688493 
L 172.653216 517.623571 
L 175.774847 513.073224 
L 178.896477 508.355586 
L 182.018108 515.131519 
L 185.139739 527.089296 
L 188.261369 533.815801 
L 191.383 536.720175 
L 194.504631 530.220046 
L 197.626261 515.063635 
L 200.747892 501.206084 
L 203.869523 498.207413 
L 206.991153 499.126199 
L 210.112784 500.61803 
L 213.234415 512.463914 
L 216.356045 513.107173 
L 219.477676 516.052686 
L 222.599307 521.576684 
L 225.720938 527.031735 
L 228.842568 527.180375 
L 231.964199 528.200488 
L 235.08583 515.621074 
L 238.20746 500.61247 
L 241.329091 488.275346 
L 244.450722 475.690442 
L 247.572352 481.212226 
L 250.693983 484.585207 
L 253.815614 492.438272 
L 256.937244 504.163978 
L 260.058875 503.894914 
L 263.180506 492.133466 
L 266.302136 486.684576 
L 269.423767 487.464594 
L 272.545398 493.204683 
L 275.667028 504.560639 
L 278.788659 523.433222 
L 281.91029 525.989988 
L 285.03192 530.473513 
L 288.153551 516.839017 
L 291.275182 521.828812 
L 294.396813 521.784663 
L 297.518443 535.543602 
L 300.640074 540.295161 
L 303.761705 548.795733 
L 306.883335 538.118065 
L 310.004966 537.905155 
L 313.126597 529.604826 
L 316.248227 516.413124 
L 319.369858 510.47721 
L 322.491489 526.794928 
L 325.613119 529.243747 
L 328.73475 534.82524 
L 331.856381 541.375051 
L 334.978011 555.780212 
L 338.099642 544.376701 
L 341.221273 535.644576 
L 344.342903 532.886097 
L 347.464534 541.780145 
L 350.586165 534.386452 
L 353.707795 539.653525 
L 356.829426 543.537089 
L 359.951057 547.970342 
L 363.072688 545.879832 
L 366.194318 554.866055 
L 369.315949 568.638707 
L 372.43758 574.960481 
L 375.55921 568.852075 
L 378.680841 571.902191 
L 381.802472 570.002641 
" clip-path="url(#p5869c17d94)" style="fill: none; stroke: #d62728; stroke-width: 1.5; stroke-linecap: round"/>
   </g>
   <g id="patch_9">
    <path d="M 54.03125 678.04 
L 54.03125 364.82 
" style="fill: none; stroke: #ffffff; stroke-width: 0.8; stroke-linejoin: miter; stroke-linecap: square"/>
   </g>
   <g id="patch_10">
    <path d="M 54.03125 678.04 
L 397.410625 678.04 
" style="fill: none; stroke: #ffffff; stroke-width: 0.8; stroke-linejoin: miter; stroke-linecap: square"/>
   </g>
   <g id="text_22">
    <!-- Residue = 0.63 -->
    <g style="fill: #262626" transform="translate(187.481094 358.82) scale(0.1 -0.1)">
     <use xlink:href="#DejaVuSans-52"/>
     <use xlink:href="#DejaVuSans-65" transform="translate(64.982422 0)"/>
     <use xlink:href="#DejaVuSans-73" transform="translate(126.505859 0)"/>
     <use xlink:href="#DejaVuSans-69" transform="translate(178.605469 0)"/>
     <use xlink:href="#DejaVuSans-64" transform="translate(206.388672 0)"/>
     <use xlink:href="#DejaVuSans-75" transform="translate(269.865234 0)"/>
     <use xlink:href="#DejaVuSans-65" transform="translate(333.244141 0)"/>
     <use xlink:href="#DejaVuSans-20" transform="translate(394.767578 0)"/>
     <use xlink:href="#DejaVuSans-3d" transform="translate(426.554688 0)"/>
     <use xlink:href="#DejaVuSans-20" transform="translate(510.34375 0)"/>
     <use xlink:href="#DejaVuSans-30" transform="translate(542.130859 0)"/>
     <use xlink:href="#DejaVuSans-2e" transform="translate(605.753906 0)"/>
     <use xlink:href="#DejaVuSans-36" transform="translate(637.541016 0)"/>
     <use xlink:href="#DejaVuSans-33" transform="translate(701.164062 0)"/>
    </g>
   </g>
  </g>
  <g id="axes_4">
   <g id="patch_11">
    <path d="M 420.900625 678.04 
L 764.28 678.04 
L 764.28 364.82 
L 420.900625 364.82 
z
" style="fill: #eaeaf2"/>
   </g>
   <g id="matplotlib.axis_7">
    <g id="xtick_19">
     <g id="line2d_50">
      <path d="M 420.900625 678.04 
L 420.900625 364.82 
" clip-path="url(#pd3120ff799)" style="fill: none; stroke: #ffffff; stroke-width: 0.8; stroke-linecap: round"/>
     </g>
     <g id="text_23">
      <!-- 1900 -->
      <g style="fill: #262626" transform="translate(408.175625 692.638438) scale(0.1 -0.1)">
       <use xlink:href="#DejaVuSans-31"/>
       <use xlink:href="#DejaVuSans-39" transform="translate(63.623047 0)"/>
       <use xlink:href="#DejaVuSans-30" transform="translate(127.246094 0)"/>
       <use xlink:href="#DejaVuSans-30" transform="translate(190.869141 0)"/>
      </g>
     </g>
    </g>
    <g id="xtick_20">
     <g id="line2d_51">
      <path d="M 483.333239 678.04 
L 483.333239 364.82 
" clip-path="url(#pd3120ff799)" style="fill: none; stroke: #ffffff; stroke-width: 0.8; stroke-linecap: round"/>
     </g>
     <g id="text_24">
      <!-- 1920 -->
      <g style="fill: #262626" transform="translate(470.608239 692.638438) scale(0.1 -0.1)">
       <use xlink:href="#DejaVuSans-31"/>
       <use xlink:href="#DejaVuSans-39" transform="translate(63.623047 0)"/>
       <use xlink:href="#DejaVuSans-32" transform="translate(127.246094 0)"/>
       <use xlink:href="#DejaVuSans-30" transform="translate(190.869141 0)"/>
      </g>
     </g>
    </g>
    <g id="xtick_21">
     <g id="line2d_52">
      <path d="M 545.765852 678.04 
L 545.765852 364.82 
" clip-path="url(#pd3120ff799)" style="fill: none; stroke: #ffffff; stroke-width: 0.8; stroke-linecap: round"/>
     </g>
     <g id="text_25">
      <!-- 1940 -->
      <g style="fill: #262626" transform="translate(533.040852 692.638438) scale(0.1 -0.1)">
       <use xlink:href="#DejaVuSans-31"/>
       <use xlink:href="#DejaVuSans-39" transform="translate(63.623047 0)"/>
       <use xlink:href="#DejaVuSans-34" transform="translate(127.246094 0)"/>
       <use xlink:href="#DejaVuSans-30" transform="translate(190.869141 0)"/>
      </g>
     </g>
    </g>
    <g id="xtick_22">
     <g id="line2d_53">
      <path d="M 608.198466 678.04 
L 608.198466 364.82 
" clip-path="url(#pd3120ff799)" style="fill: none; stroke: #ffffff; stroke-width: 0.8; stroke-linecap: round"/>
     </g>
     <g id="text_26">
      <!-- 1960 -->
      <g style="fill: #262626" transform="translate(595.473466 692.638438) scale(0.1 -0.1)">
       <use xlink:href="#DejaVuSans-31"/>
       <use xlink:href="#DejaVuSans-39" transform="translate(63.623047 0)"/>
       <use xlink:href="#DejaVuSans-36" transform="translate(127.246094 0)"/>
       <use xlink:href="#DejaVuSans-30" transform="translate(190.869141 0)"/>
      </g>
     </g>
    </g>
    <g id="xtick_23">
     <g id="line2d_54">
      <path d="M 670.63108 678.04 
L 670.63108 364.82 
" clip-path="url(#pd3120ff799)" style="fill: none; stroke: #ffffff; stroke-width: 0.8; stroke-linecap: round"/>
     </g>
     <g id="text_27">
      <!-- 1980 -->
      <g style="fill: #262626" transform="translate(657.90608 692.638438) scale(0.1 -0.1)">
       <use xlink:href="#DejaVuSans-31"/>
       <use xlink:href="#DejaVuSans-39" transform="translate(63.623047 0)"/>
       <use xlink:href="#DejaVuSans-38" transform="translate(127.246094 0)"/>
       <use xlink:href="#DejaVuSans-30" transform="translate(190.869141 0)"/>
      </g>
     </g>
    </g>
    <g id="xtick_24">
     <g id="line2d_55">
      <path d="M 733.063693 678.04 
L 733.063693 364.82 
" clip-path="url(#pd3120ff799)" style="fill: none; stroke: #ffffff; stroke-width: 0.8; stroke-linecap: round"/>
     </g>
     <g id="text_28">
      <!-- 2000 -->
      <g style="fill: #262626" transform="translate(720.338693 692.638438) scale(0.1 -0.1)">
       <use xlink:href="#DejaVuSans-32"/>
       <use xlink:href="#DejaVuSans-30" transform="translate(63.623047 0)"/>
       <use xlink:href="#DejaVuSans-30" transform="translate(127.246094 0)"/>
       <use xlink:href="#DejaVuSans-30" transform="translate(190.869141 0)"/>
      </g>
     </g>
    </g>
    <g id="text_29">
     <!-- year -->
     <g style="fill: #262626" transform="translate(581.434844 706.316563) scale(0.1 -0.1)">
      <use xlink:href="#DejaVuSans-79"/>
      <use xlink:href="#DejaVuSans-65" transform="translate(59.179688 0)"/>
      <use xlink:href="#DejaVuSans-61" transform="translate(120.703125 0)"/>
      <use xlink:href="#DejaVuSans-72" transform="translate(181.982422 0)"/>
     </g>
    </g>
   </g>
   <g id="matplotlib.axis_8">
    <g id="ytick_16">
     <g id="line2d_56">
      <path d="M 420.900625 634.843323 
L 764.28 634.843323 
" clip-path="url(#pd3120ff799)" style="fill: none; stroke: #ffffff; stroke-width: 0.8; stroke-linecap: round"/>
     </g>
    </g>
    <g id="ytick_17">
     <g id="line2d_57">
      <path d="M 420.900625 575.124225 
L 764.28 575.124225 
" clip-path="url(#pd3120ff799)" style="fill: none; stroke: #ffffff; stroke-width: 0.8; stroke-linecap: round"/>
     </g>
    </g>
    <g id="ytick_18">
     <g id="line2d_58">
      <path d="M 420.900625 515.405127 
L 764.28 515.405127 
" clip-path="url(#pd3120ff799)" style="fill: none; stroke: #ffffff; stroke-width: 0.8; stroke-linecap: round"/>
     </g>
    </g>
    <g id="ytick_19">
     <g id="line2d_59">
      <path d="M 420.900625 455.686029 
L 764.28 455.686029 
" clip-path="url(#pd3120ff799)" style="fill: none; stroke: #ffffff; stroke-width: 0.8; stroke-linecap: round"/>
     </g>
    </g>
    <g id="ytick_20">
     <g id="line2d_60">
      <path d="M 420.900625 395.966931 
L 764.28 395.966931 
" clip-path="url(#pd3120ff799)" style="fill: none; stroke: #ffffff; stroke-width: 0.8; stroke-linecap: round"/>
     </g>
    </g>
   </g>
   <g id="line2d_61">
    <path d="M 436.508778 663.446327 
L 439.630409 542.982831 
L 442.75204 506.154947 
L 445.87367 454.201496 
L 448.995301 430.86445 
L 452.116932 422.407245 
L 455.238562 418.282292 
L 458.360193 420.325256 
L 461.481824 429.522871 
L 464.603455 421.365732 
L 467.725085 407.768776 
L 470.846716 397.852615 
L 473.968347 386.101684 
L 477.089977 379.057273 
L 480.211608 383.975034 
L 483.333239 404.820927 
L 486.454869 427.755829 
L 489.5765 446.404834 
L 492.698131 448.871472 
L 495.819761 469.068089 
L 498.941392 465.722975 
L 502.063023 465.474046 
L 505.184653 460.863085 
L 508.306284 453.31452 
L 511.427915 432.325218 
L 514.549545 431.637789 
L 517.671176 429.458828 
L 520.792807 444.270113 
L 523.914437 478.210116 
L 527.036068 493.864772 
L 530.157699 510.253378 
L 533.27933 514.723887 
L 536.40096 504.101858 
L 539.522591 494.580561 
L 542.644222 491.327662 
L 545.765852 483.08276 
L 548.887483 490.717275 
L 552.009114 505.964889 
L 555.130744 513.828398 
L 558.252375 518.597829 
L 561.374006 516.403354 
L 564.495636 509.248949 
L 567.617267 498.10085 
L 570.738898 498.678201 
L 573.860528 500.044618 
L 576.982159 500.008471 
L 580.10379 506.721851 
L 583.22542 505.086288 
L 586.347051 510.780454 
L 589.468682 517.231519 
L 592.590313 522.854898 
L 595.711943 521.404662 
L 598.833574 520.01444 
L 601.955205 500.082753 
L 605.076835 482.711872 
L 608.198466 469.924952 
L 611.320097 457.406447 
L 614.441727 465.71074 
L 617.563358 470.383894 
L 620.684989 482.579761 
L 623.806619 495.60926 
L 626.92825 494.757391 
L 630.049881 482.120269 
L 633.171511 476.945509 
L 636.293142 476.671599 
L 639.414773 483.22295 
L 642.536403 494.899341 
L 645.658034 516.093745 
L 648.779665 520.64992 
L 651.901295 530.509964 
L 655.022926 516.677101 
L 658.144557 526.549887 
L 661.266188 526.186373 
L 664.387818 539.321975 
L 667.509449 537.954907 
L 670.63108 547.860264 
L 673.75271 541.126803 
L 676.874341 547.380125 
L 679.995972 543.669488 
L 683.117602 530.836525 
L 686.239233 525.328624 
L 689.360864 538.758792 
L 692.482494 538.828417 
L 695.604125 540.54799 
L 698.725756 549.749911 
L 701.847386 567.094417 
L 704.969017 550.684501 
L 708.090648 541.856246 
L 711.212278 540.818774 
L 714.333909 551.816 
L 717.45554 543.134439 
L 720.57717 553.07451 
L 723.698801 558.245227 
L 726.820432 563.533938 
L 729.942063 560.639963 
L 733.063693 569.397032 
L 736.185324 585.799356 
L 739.306955 588.296885 
L 742.428585 580.742376 
L 745.550216 583.762487 
L 748.671847 581.396746 
" clip-path="url(#pd3120ff799)" style="fill: none; stroke: #1f77b4; stroke-width: 1.5; stroke-linecap: round"/>
   </g>
   <g id="line2d_62">
    <path d="M 436.508778 663.446327 
L 439.630409 549.58536 
L 442.75204 497.570067 
L 445.87367 437.667943 
L 448.995301 408.400973 
L 452.116932 398.263355 
L 455.238562 395.94121 
L 458.360193 406.825016 
L 461.481824 426.279518 
L 464.603455 426.285246 
L 467.725085 415.328744 
L 470.846716 406.09 
L 473.968347 390.955898 
L 477.089977 381.238915 
L 480.211608 382.878023 
L 483.333239 403.865437 
L 486.454869 430.216343 
L 489.5765 451.614324 
L 492.698131 451.419458 
L 495.819761 470.567676 
L 498.941392 464.981354 
L 502.063023 457.653612 
L 505.184653 446.463556 
L 508.306284 434.150261 
L 511.427915 408.373708 
L 514.549545 405.982263 
L 517.671176 408.246226 
L 520.792807 429.59336 
L 523.914437 470.091844 
L 527.036068 491.675135 
L 530.157699 510.517373 
L 533.27933 511.870498 
L 536.40096 496.322526 
L 539.522591 481.858658 
L 542.644222 474.182505 
L 545.765852 461.806552 
L 548.887483 468.787173 
L 552.009114 482.89482 
L 555.130744 491.229343 
L 558.252375 493.268266 
L 561.374006 486.57687 
L 564.495636 470.300269 
L 567.617267 456.155494 
L 570.738898 456.178905 
L 573.860528 458.483574 
L 576.982159 458.387887 
L 580.10379 469.97512 
L 583.22542 469.960704 
L 586.347051 475.601246 
L 589.468682 486.801324 
L 592.590313 496.967124 
L 595.711943 500.924318 
L 598.833574 502.777953 
L 601.955205 484.461772 
L 605.076835 461.677902 
L 608.198466 443.721367 
L 611.320097 426.130376 
L 614.441727 432.857119 
L 617.563358 438.181558 
L 620.684989 449.391346 
L 623.806619 465.523993 
L 626.92825 465.250543 
L 630.049881 449.208106 
L 633.171511 439.904421 
L 636.293142 439.180873 
L 639.414773 444.945372 
L 642.536403 458.417725 
L 645.658034 482.233443 
L 648.779665 484.711248 
L 651.901295 492.218813 
L 655.022926 475.423686 
L 658.144557 483.751644 
L 661.266188 482.281314 
L 664.387818 499.964282 
L 667.509449 502.904692 
L 670.63108 512.424452 
L 673.75271 500.132646 
L 676.874341 502.27807 
L 679.995972 494.073597 
L 683.117602 477.673374 
L 686.239233 473.005627 
L 689.360864 490.841979 
L 692.482494 496.324907 
L 695.604125 499.667586 
L 698.725756 508.662493 
L 701.847386 524.567596 
L 704.969017 507.335078 
L 708.090648 493.241781 
L 711.212278 490.767089 
L 714.333909 502.286504 
L 717.45554 492.938603 
L 720.57717 500.375121 
L 723.698801 504.404534 
L 726.820432 509.169041 
L 729.942063 505.590594 
L 733.063693 516.434653 
L 736.185324 533.447391 
L 739.306955 539.077045 
L 742.428585 529.947748 
L 745.550216 532.680423 
L 748.671847 528.313862 
" clip-path="url(#pd3120ff799)" style="fill: none; stroke: #ff7f0e; stroke-width: 1.5; stroke-linecap: round"/>
   </g>
   <g id="line2d_63">
    <path d="M 436.508778 663.446327 
L 439.630409 564.153342 
L 442.75204 507.113032 
L 445.87367 447.797481 
L 448.995301 416.741418 
L 452.116932 403.475415 
L 455.238562 401.002596 
L 458.360193 413.065303 
L 461.481824 432.223964 
L 464.603455 432.074259 
L 467.725085 421.543628 
L 470.846716 412.341402 
L 473.968347 402.195404 
L 477.089977 396.045664 
L 480.211608 400.216174 
L 483.333239 420.743837 
L 486.454869 447.259435 
L 489.5765 466.490903 
L 492.698131 467.212066 
L 495.819761 483.89061 
L 498.941392 480.117491 
L 502.063023 474.570312 
L 505.184653 462.217425 
L 508.306284 446.280245 
L 511.427915 423.886238 
L 514.549545 420.463876 
L 517.671176 421.802509 
L 520.792807 441.718403 
L 523.914437 481.556067 
L 527.036068 501.142183 
L 530.157699 517.663686 
L 533.27933 520.505691 
L 536.40096 508.064646 
L 539.522591 496.114034 
L 542.644222 489.763306 
L 545.765852 482.686313 
L 548.887483 490.150651 
L 552.009114 505.473838 
L 555.130744 516.76731 
L 558.252375 519.347924 
L 561.374006 509.500955 
L 564.495636 489.299194 
L 567.617267 472.059423 
L 570.738898 468.814668 
L 573.860528 470.215733 
L 576.982159 471.592649 
L 580.10379 485.045941 
L 583.22542 484.516232 
L 586.347051 488.200136 
L 589.468682 497.2533 
L 592.590313 504.171833 
L 595.711943 506.043174 
L 598.833574 509.529233 
L 601.955205 494.893151 
L 605.076835 476.667512 
L 608.198466 462.74652 
L 611.320097 447.302203 
L 614.441727 453.951139 
L 617.563358 457.849174 
L 620.684989 468.219253 
L 623.806619 484.247979 
L 626.92825 485.379993 
L 630.049881 470.360762 
L 633.171511 463.691424 
L 636.293142 463.904425 
L 639.414773 469.827403 
L 642.536403 483.918391 
L 645.658034 508.303178 
L 648.779665 507.479413 
L 651.901295 511.126459 
L 655.022926 491.192191 
L 658.144557 497.862857 
L 661.266188 494.992695 
L 664.387818 513.519262 
L 667.509449 520.036042 
L 670.63108 533.292116 
L 673.75271 519.104438 
L 676.874341 519.318595 
L 679.995972 509.311478 
L 683.117602 489.398498 
L 686.239233 481.788463 
L 689.360864 501.410281 
L 692.482494 506.317504 
L 695.604125 512.434181 
L 698.725756 522.447464 
L 701.847386 539.972624 
L 704.969017 523.921963 
L 708.090648 512.660537 
L 711.212278 509.84116 
L 714.333909 521.877314 
L 717.45554 511.419161 
L 720.57717 518.943661 
L 723.698801 522.438117 
L 726.820432 526.62672 
L 729.942063 523.243861 
L 733.063693 535.686022 
L 736.185324 552.764798 
L 739.306955 560.793801 
L 742.428585 552.041242 
L 745.550216 555.520249 
L 748.671847 551.130787 
" clip-path="url(#pd3120ff799)" style="fill: none; stroke: #2ca02c; stroke-width: 1.5; stroke-linecap: round"/>
   </g>
   <g id="line2d_64">
    <path d="M 436.508778 663.446327 
L 439.630409 567.938775 
L 442.75204 513.150628 
L 445.87367 457.632742 
L 448.995301 429.500652 
L 452.116932 416.015941 
L 455.238562 413.785218 
L 458.360193 424.845114 
L 461.481824 440.751846 
L 464.603455 437.413108 
L 467.725085 425.787759 
L 470.846716 415.168741 
L 473.968347 404.885322 
L 477.089977 398.437791 
L 480.211608 402.486176 
L 483.333239 422.567028 
L 486.454869 448.837101 
L 489.5765 467.710142 
L 492.698131 468.919797 
L 495.819761 485.386197 
L 498.941392 481.95819 
L 502.063023 477.377198 
L 505.184653 467.871516 
L 508.306284 452.955703 
L 511.427915 433.659797 
L 514.549545 431.356772 
L 517.671176 432.363561 
L 520.792807 449.616157 
L 523.914437 487.996592 
L 527.036068 504.838472 
L 530.157699 519.917592 
L 533.27933 522.503527 
L 536.40096 511.215175 
L 539.522591 502.73493 
L 542.644222 497.99496 
L 545.765852 492.685587 
L 548.887483 501.377886 
L 552.009114 516.281927 
L 555.130744 525.230122 
L 558.252375 528.351672 
L 561.374006 519.016194 
L 564.495636 500.484671 
L 567.617267 485.759054 
L 570.738898 482.830295 
L 573.860528 483.797788 
L 576.982159 485.29077 
L 580.10379 498.428797 
L 583.22542 495.334275 
L 586.347051 497.921987 
L 589.468682 505.48902 
L 592.590313 510.304238 
L 595.711943 509.437817 
L 598.833574 512.033688 
L 601.955205 497.647534 
L 605.076835 479.561849 
L 608.198466 468.044101 
L 611.320097 454.098757 
L 614.441727 461.035128 
L 617.563358 464.454044 
L 620.684989 475.166552 
L 623.806619 489.094589 
L 626.92825 489.147158 
L 630.049881 474.822644 
L 633.171511 469.828608 
L 636.293142 470.797084 
L 639.414773 476.860399 
L 642.536403 491.204999 
L 645.658034 515.363038 
L 648.779665 514.723307 
L 651.901295 518.988629 
L 655.022926 500.843819 
L 658.144557 508.227688 
L 661.266188 506.721322 
L 664.387818 524.298721 
L 667.509449 529.494515 
L 670.63108 541.305884 
L 673.75271 527.886546 
L 676.874341 528.286122 
L 679.995972 520.247347 
L 683.117602 501.946916 
L 686.239233 496.032737 
L 689.360864 514.723381 
L 692.482494 517.724628 
L 695.604125 522.313905 
L 698.725756 531.625525 
L 701.847386 548.141851 
L 704.969017 532.232671 
L 708.090648 522.66189 
L 711.212278 520.714549 
L 714.333909 531.914328 
L 717.45554 522.591255 
L 720.57717 530.76209 
L 723.698801 535.002881 
L 726.820432 538.917648 
L 729.942063 537.180118 
L 733.063693 548.935655 
L 736.185324 565.304486 
L 739.306955 571.809117 
L 742.428585 564.520767 
L 745.550216 567.371405 
L 748.671847 562.894344 
" clip-path="url(#pd3120ff799)" style="fill: none; stroke: #d62728; stroke-width: 1.5; stroke-linecap: round"/>
   </g>
   <g id="patch_12">
    <path d="M 420.900625 678.04 
L 420.900625 364.82 
" style="fill: none; stroke: #ffffff; stroke-width: 0.8; stroke-linejoin: miter; stroke-linecap: square"/>
   </g>
   <g id="patch_13">
    <path d="M 420.900625 678.04 
L 764.28 678.04 
" style="fill: none; stroke: #ffffff; stroke-width: 0.8; stroke-linejoin: miter; stroke-linecap: square"/>
   </g>
   <g id="text_30">
    <!-- Moving average SOC -->
    <g style="fill: #262626" transform="translate(529.8125 358.82) scale(0.12 -0.12)">
     <defs>
      <path id="DejaVuSans-4d" d="M 628 4666 
L 1569 4666 
L 2759 1491 
L 3956 4666 
L 4897 4666 
L 4897 0 
L 4281 0 
L 4281 4097 
L 3078 897 
L 2444 897 
L 1241 4097 
L 1241 0 
L 628 0 
L 628 4666 
z
" transform="scale(0.015625)"/>
      <path id="DejaVuSans-76" d="M 191 3500 
L 800 3500 
L 1894 563 
L 2988 3500 
L 3597 3500 
L 2284 0 
L 1503 0 
L 191 3500 
z
" transform="scale(0.015625)"/>
      <path id="DejaVuSans-67" d="M 2906 1791 
Q 2906 2416 2648 2759 
Q 2391 3103 1925 3103 
Q 1463 3103 1205 2759 
Q 947 2416 947 1791 
Q 947 1169 1205 825 
Q 1463 481 1925 481 
Q 2391 481 2648 825 
Q 2906 1169 2906 1791 
z
M 3481 434 
Q 3481 -459 3084 -895 
Q 2688 -1331 1869 -1331 
Q 1566 -1331 1297 -1286 
Q 1028 -1241 775 -1147 
L 775 -588 
Q 1028 -725 1275 -790 
Q 1522 -856 1778 -856 
Q 2344 -856 2625 -561 
Q 2906 -266 2906 331 
L 2906 616 
Q 2728 306 2450 153 
Q 2172 0 1784 0 
Q 1141 0 747 490 
Q 353 981 353 1791 
Q 353 2603 747 3093 
Q 1141 3584 1784 3584 
Q 2172 3584 2450 3431 
Q 2728 3278 2906 2969 
L 2906 3500 
L 3481 3500 
L 3481 434 
z
" transform="scale(0.015625)"/>
      <path id="DejaVuSans-53" d="M 3425 4513 
L 3425 3897 
Q 3066 4069 2747 4153 
Q 2428 4238 2131 4238 
Q 1616 4238 1336 4038 
Q 1056 3838 1056 3469 
Q 1056 3159 1242 3001 
Q 1428 2844 1947 2747 
L 2328 2669 
Q 3034 2534 3370 2195 
Q 3706 1856 3706 1288 
Q 3706 609 3251 259 
Q 2797 -91 1919 -91 
Q 1588 -91 1214 -16 
Q 841 59 441 206 
L 441 856 
Q 825 641 1194 531 
Q 1563 422 1919 422 
Q 2459 422 2753 634 
Q 3047 847 3047 1241 
Q 3047 1584 2836 1778 
Q 2625 1972 2144 2069 
L 1759 2144 
Q 1053 2284 737 2584 
Q 422 2884 422 3419 
Q 422 4038 858 4394 
Q 1294 4750 2059 4750 
Q 2388 4750 2728 4690 
Q 3069 4631 3425 4513 
z
" transform="scale(0.015625)"/>
      <path id="DejaVuSans-4f" d="M 2522 4238 
Q 1834 4238 1429 3725 
Q 1025 3213 1025 2328 
Q 1025 1447 1429 934 
Q 1834 422 2522 422 
Q 3209 422 3611 934 
Q 4013 1447 4013 2328 
Q 4013 3213 3611 3725 
Q 3209 4238 2522 4238 
z
M 2522 4750 
Q 3503 4750 4090 4092 
Q 4678 3434 4678 2328 
Q 4678 1225 4090 567 
Q 3503 -91 2522 -91 
Q 1538 -91 948 565 
Q 359 1222 359 2328 
Q 359 3434 948 4092 
Q 1538 4750 2522 4750 
z
" transform="scale(0.015625)"/>
      <path id="DejaVuSans-43" d="M 4122 4306 
L 4122 3641 
Q 3803 3938 3442 4084 
Q 3081 4231 2675 4231 
Q 1875 4231 1450 3742 
Q 1025 3253 1025 2328 
Q 1025 1406 1450 917 
Q 1875 428 2675 428 
Q 3081 428 3442 575 
Q 3803 722 4122 1019 
L 4122 359 
Q 3791 134 3420 21 
Q 3050 -91 2638 -91 
Q 1578 -91 968 557 
Q 359 1206 359 2328 
Q 359 3453 968 4101 
Q 1578 4750 2638 4750 
Q 3056 4750 3426 4639 
Q 3797 4528 4122 4306 
z
" transform="scale(0.015625)"/>
     </defs>
     <use xlink:href="#DejaVuSans-4d"/>
     <use xlink:href="#DejaVuSans-6f" transform="translate(86.279297 0)"/>
     <use xlink:href="#DejaVuSans-76" transform="translate(147.460938 0)"/>
     <use xlink:href="#DejaVuSans-69" transform="translate(206.640625 0)"/>
     <use xlink:href="#DejaVuSans-6e" transform="translate(234.423828 0)"/>
     <use xlink:href="#DejaVuSans-67" transform="translate(297.802734 0)"/>
     <use xlink:href="#DejaVuSans-20" transform="translate(361.279297 0)"/>
     <use xlink:href="#DejaVuSans-61" transform="translate(393.066406 0)"/>
     <use xlink:href="#DejaVuSans-76" transform="translate(454.345703 0)"/>
     <use xlink:href="#DejaVuSans-65" transform="translate(513.525391 0)"/>
     <use xlink:href="#DejaVuSans-72" transform="translate(575.048828 0)"/>
     <use xlink:href="#DejaVuSans-61" transform="translate(616.162109 0)"/>
     <use xlink:href="#DejaVuSans-67" transform="translate(677.441406 0)"/>
     <use xlink:href="#DejaVuSans-65" transform="translate(740.917969 0)"/>
     <use xlink:href="#DejaVuSans-20" transform="translate(802.441406 0)"/>
     <use xlink:href="#DejaVuSans-53" transform="translate(834.228516 0)"/>
     <use xlink:href="#DejaVuSans-4f" transform="translate(897.705078 0)"/>
     <use xlink:href="#DejaVuSans-43" transform="translate(976.416016 0)"/>
    </g>
   </g>
  </g>
  <g id="legend_1">
   <g id="text_31">
    <!-- Nitrogen -->
    <g style="fill: #262626" transform="translate(721.024531 333.403125) scale(0.1 -0.1)">
     <defs>
      <path id="DejaVuSans-4e" d="M 628 4666 
L 1478 4666 
L 3547 763 
L 3547 4666 
L 4159 4666 
L 4159 0 
L 3309 0 
L 1241 3903 
L 1241 0 
L 628 0 
L 628 4666 
z
" transform="scale(0.015625)"/>
     </defs>
     <use xlink:href="#DejaVuSans-4e"/>
     <use xlink:href="#DejaVuSans-69" transform="translate(74.804688 0)"/>
     <use xlink:href="#DejaVuSans-74" transform="translate(102.587891 0)"/>
     <use xlink:href="#DejaVuSans-72" transform="translate(141.796875 0)"/>
     <use xlink:href="#DejaVuSans-6f" transform="translate(180.660156 0)"/>
     <use xlink:href="#DejaVuSans-67" transform="translate(241.841797 0)"/>
     <use xlink:href="#DejaVuSans-65" transform="translate(305.318359 0)"/>
     <use xlink:href="#DejaVuSans-6e" transform="translate(366.841797 0)"/>
    </g>
   </g>
   <g id="line2d_65">
    <path d="M 718.9925 344.58125 
L 728.9925 344.58125 
L 738.9925 344.58125 
" style="fill: none; stroke: #1f77b4; stroke-width: 1.5; stroke-linecap: round"/>
   </g>
   <g id="text_32">
    <!-- 137 -->
    <g style="fill: #262626" transform="translate(746.9925 348.08125) scale(0.1 -0.1)">
     <use xlink:href="#DejaVuSans-31"/>
     <use xlink:href="#DejaVuSans-33" transform="translate(63.623047 0)"/>
     <use xlink:href="#DejaVuSans-37" transform="translate(127.246094 0)"/>
    </g>
   </g>
   <g id="line2d_66">
    <path d="M 718.9925 359.259375 
L 728.9925 359.259375 
L 738.9925 359.259375 
" style="fill: none; stroke: #ff7f0e; stroke-width: 1.5; stroke-linecap: round"/>
   </g>
   <g id="text_33">
    <!-- 180 -->
    <g style="fill: #262626" transform="translate(746.9925 362.759375) scale(0.1 -0.1)">
     <use xlink:href="#DejaVuSans-31"/>
     <use xlink:href="#DejaVuSans-38" transform="translate(63.623047 0)"/>
     <use xlink:href="#DejaVuSans-30" transform="translate(127.246094 0)"/>
    </g>
   </g>
   <g id="line2d_67">
    <path d="M 718.9925 373.9375 
L 728.9925 373.9375 
L 738.9925 373.9375 
" style="fill: none; stroke: #2ca02c; stroke-width: 1.5; stroke-linecap: round"/>
   </g>
   <g id="text_34">
    <!-- 217 -->
    <g style="fill: #262626" transform="translate(746.9925 377.4375) scale(0.1 -0.1)">
     <use xlink:href="#DejaVuSans-32"/>
     <use xlink:href="#DejaVuSans-31" transform="translate(63.623047 0)"/>
     <use xlink:href="#DejaVuSans-37" transform="translate(127.246094 0)"/>
    </g>
   </g>
   <g id="line2d_68">
    <path d="M 718.9925 388.615625 
L 728.9925 388.615625 
L 738.9925 388.615625 
" style="fill: none; stroke: #d62728; stroke-width: 1.5; stroke-linecap: round"/>
   </g>
   <g id="text_35">
    <!-- 247 -->
    <g style="fill: #262626" transform="translate(746.9925 392.115625) scale(0.1 -0.1)">
     <use xlink:href="#DejaVuSans-32"/>
     <use xlink:href="#DejaVuSans-34" transform="translate(63.623047 0)"/>
     <use xlink:href="#DejaVuSans-37" transform="translate(127.246094 0)"/>
    </g>
   </g>
  </g>
 </g>
 <defs>
  <clipPath id="p58eec24003">
   <rect x="54.03125" y="24.72" width="343.379375" height="313.22"/>
  </clipPath>
  <clipPath id="p48ad10a4ae">
   <rect x="420.900625" y="24.72" width="343.379375" height="313.22"/>
  </clipPath>
  <clipPath id="p5869c17d94">
   <rect x="54.03125" y="364.82" width="343.379375" height="313.22"/>
  </clipPath>
  <clipPath id="pd3120ff799">
   <rect x="420.900625" y="364.82" width="343.379375" height="313.22"/>
  </clipPath>
 </defs>
</svg>
