<?xml version="1.0" encoding="utf-8" standalone="no"?>
<!DOCTYPE svg PUBLIC "-//W3C//DTD SVG 1.1//EN"
  "http://www.w3.org/Graphics/SVG/1.1/DTD/svg11.dtd">
<svg xmlns:xlink="http://www.w3.org/1999/xlink" width="800.465937pt" height="564.265625pt" viewBox="0 0 800.465937 564.265625" xmlns="http://www.w3.org/2000/svg" version="1.1">
 <metadata>
  <rdf:RDF xmlns:dc="http://purl.org/dc/elements/1.1/" xmlns:cc="http://creativecommons.org/ns#" xmlns:rdf="http://www.w3.org/1999/02/22-rdf-syntax-ns#">
   <cc:Work>
    <dc:type rdf:resource="http://purl.org/dc/dcmitype/StillImage"/>
    <dc:date>2026-01-06T15:09:47.714411</dc:date>
    <dc:format>image/svg+xml</dc:format>
    <dc:creator>
     <cc:Agent>
      <dc:title>Matplotlib v3.10.6, https://matplotlib.org/</dc:title>
     </cc:Agent>
    </dc:creator>
   </cc:Work>
  </rdf:RDF>
 </metadata>
 <defs>
  <style type="text/css">*{stroke-linejoin: round; stroke-linecap: butt}</style>
 </defs>
 <g id="figure_1">
  <g id="patch_1">
   <path d="M 0 564.265625 
L 800.465937 564.265625 
L 800.465937 0 
L 0 0 
z
" style="fill: #ffffff"/>
  </g>
  <g id="axes_1">
   <g id="patch_2">
    <path d="M 58.175938 510.66 
L 785.805938 510.66 
L 785.805938 7.2 
L 58.175938 7.2 
z
" style="fill: #eaeaf2"/>
   </g>
   <g id="matplotlib.axis_1">
    <g id="xtick_1">
     <g id="line2d_1">
      <path d="M 125.78957 510.66 
L 125.78957 7.2 
" clip-path="url(#pe98f6f2e4a)" style="fill: none; stroke: #ffffff; stroke-linecap: round"/>
     </g>
     <g id="text_1">
      <!-- 150 -->
      <g style="fill: #262626" transform="translate(111.473945 531.557656) scale(0.15 -0.15)">
       <defs>
        <path id="DejaVuSans-31" d="M 794 531 
L 1825 531 
L 1825 4091 
L 703 3866 
L 703 4441 
L 1819 4666 
L 2450 4666 
L 2450 531 
L 3481 531 
L 3481 0 
L 794 0 
L 794 531 
z
" transform="scale(0.015625)"/>
        <path id="DejaVuSans-35" d="M 691 4666 
L 3169 4666 
L 3169 4134 
L 1269 4134 
L 1269 2991 
Q 1406 3038 1543 3061 
Q 1681 3084 1819 3084 
Q 2600 3084 3056 2656 
Q 3513 2228 3513 1497 
Q 3513 744 3044 326 
Q 2575 -91 1722 -91 
Q 1428 -91 1123 -41 
Q 819 9 494 109 
L 494 744 
Q 775 591 1075 516 
Q 1375 441 1709 441 
Q 2250 441 2565 725 
Q 2881 1009 2881 1497 
Q 2881 1984 2565 2268 
Q 2250 2553 1709 2553 
Q 1456 2553 1204 2497 
Q 953 2441 691 2322 
L 691 4666 
z
" transform="scale(0.015625)"/>
        <path id="DejaVuSans-30" d="M 2034 4250 
Q 1547 4250 1301 3770 
Q 1056 3291 1056 2328 
Q 1056 1369 1301 889 
Q 1547 409 2034 409 
Q 2525 409 2770 889 
Q 3016 1369 3016 2328 
Q 3016 3291 2770 3770 
Q 2525 4250 2034 4250 
z
M 2034 4750 
Q 2819 4750 3233 4129 
Q 3647 3509 3647 2328 
Q 3647 1150 3233 529 
Q 2819 -91 2034 -91 
Q 1250 -91 836 529 
Q 422 1150 422 2328 
Q 422 3509 836 4129 
Q 1250 4750 2034 4750 
z
" transform="scale(0.015625)"/>
       </defs>
       <use xlink:href="#DejaVuSans-31"/>
       <use xlink:href="#DejaVuSans-35" transform="translate(63.623047 0)"/>
       <use xlink:href="#DejaVuSans-30" transform="translate(127.246094 0)"/>
      </g>
     </g>
    </g>
    <g id="xtick_2">
     <g id="line2d_2">
      <path d="M 214.843871 510.66 
L 214.843871 7.2 
" clip-path="url(#pe98f6f2e4a)" style="fill: none; stroke: #ffffff; stroke-linecap: round"/>
     </g>
     <g id="text_2">
      <!-- 175 -->
      <g style="fill: #262626" transform="translate(200.528246 531.557656) scale(0.15 -0.15)">
       <defs>
        <path id="DejaVuSans-37" d="M 525 4666 
L 3525 4666 
L 3525 4397 
L 1831 0 
L 1172 0 
L 2766 4134 
L 525 4134 
L 525 4666 
z
" transform="scale(0.015625)"/>
       </defs>
       <use xlink:href="#DejaVuSans-31"/>
       <use xlink:href="#DejaVuSans-37" transform="translate(63.623047 0)"/>
       <use xlink:href="#DejaVuSans-35" transform="translate(127.246094 0)"/>
      </g>
     </g>
    </g>
    <g id="xtick_3">
     <g id="line2d_3">
      <path d="M 303.898171 510.66 
L 303.898171 7.2 
" clip-path="url(#pe98f6f2e4a)" style="fill: none; stroke: #ffffff; stroke-linecap: round"/>
     </g>
     <g id="text_3">
      <!-- 200 -->
      <g style="fill: #262626" transform="translate(289.582546 531.557656) scale(0.15 -0.15)">
       <defs>
        <path id="DejaVuSans-32" d="M 1228 531 
L 3431 531 
L 3431 0 
L 469 0 
L 469 531 
Q 828 903 1448 1529 
Q 2069 2156 2228 2338 
Q 2531 2678 2651 2914 
Q 2772 3150 2772 3378 
Q 2772 3750 2511 3984 
Q 2250 4219 1831 4219 
Q 1534 4219 1204 4116 
Q 875 4013 500 3803 
L 500 4441 
Q 881 4594 1212 4672 
Q 1544 4750 1819 4750 
Q 2544 4750 2975 4387 
Q 3406 4025 3406 3419 
Q 3406 3131 3298 2873 
Q 3191 2616 2906 2266 
Q 2828 2175 2409 1742 
Q 1991 1309 1228 531 
z
" transform="scale(0.015625)"/>
       </defs>
       <use xlink:href="#DejaVuSans-32"/>
       <use xlink:href="#DejaVuSans-30" transform="translate(63.623047 0)"/>
       <use xlink:href="#DejaVuSans-30" transform="translate(127.246094 0)"/>
      </g>
     </g>
    </g>
    <g id="xtick_4">
     <g id="line2d_4">
      <path d="M 392.952472 510.66 
L 392.952472 7.2 
" clip-path="url(#pe98f6f2e4a)" style="fill: none; stroke: #ffffff; stroke-linecap: round"/>
     </g>
     <g id="text_4">
      <!-- 225 -->
      <g style="fill: #262626" transform="translate(378.636847 531.557656) scale(0.15 -0.15)">
       <use xlink:href="#DejaVuSans-32"/>
       <use xlink:href="#DejaVuSans-32" transform="translate(63.623047 0)"/>
       <use xlink:href="#DejaVuSans-35" transform="translate(127.246094 0)"/>
      </g>
     </g>
    </g>
    <g id="xtick_5">
     <g id="line2d_5">
      <path d="M 482.006773 510.66 
L 482.006773 7.2 
" clip-path="url(#pe98f6f2e4a)" style="fill: none; stroke: #ffffff; stroke-linecap: round"/>
     </g>
     <g id="text_5">
      <!-- 250 -->
      <g style="fill: #262626" transform="translate(467.691148 531.557656) scale(0.15 -0.15)">
       <use xlink:href="#DejaVuSans-32"/>
       <use xlink:href="#DejaVuSans-35" transform="translate(63.623047 0)"/>
       <use xlink:href="#DejaVuSans-30" transform="translate(127.246094 0)"/>
      </g>
     </g>
    </g>
    <g id="xtick_6">
     <g id="line2d_6">
      <path d="M 571.061073 510.66 
L 571.061073 7.2 
" clip-path="url(#pe98f6f2e4a)" style="fill: none; stroke: #ffffff; stroke-linecap: round"/>
     </g>
     <g id="text_6">
      <!-- 275 -->
      <g style="fill: #262626" transform="translate(556.745448 531.557656) scale(0.15 -0.15)">
       <use xlink:href="#DejaVuSans-32"/>
       <use xlink:href="#DejaVuSans-37" transform="translate(63.623047 0)"/>
       <use xlink:href="#DejaVuSans-35" transform="translate(127.246094 0)"/>
      </g>
     </g>
    </g>
    <g id="xtick_7">
     <g id="line2d_7">
      <path d="M 660.115374 510.66 
L 660.115374 7.2 
" clip-path="url(#pe98f6f2e4a)" style="fill: none; stroke: #ffffff; stroke-linecap: round"/>
     </g>
     <g id="text_7">
      <!-- 300 -->
      <g style="fill: #262626" transform="translate(645.799749 531.557656) scale(0.15 -0.15)">
       <defs>
        <path id="DejaVuSans-33" d="M 2597 2516 
Q 3050 2419 3304 2112 
Q 3559 1806 3559 1356 
Q 3559 666 3084 287 
Q 2609 -91 1734 -91 
Q 1441 -91 1130 -33 
Q 819 25 488 141 
L 488 750 
Q 750 597 1062 519 
Q 1375 441 1716 441 
Q 2309 441 2620 675 
Q 2931 909 2931 1356 
Q 2931 1769 2642 2001 
Q 2353 2234 1838 2234 
L 1294 2234 
L 1294 2753 
L 1863 2753 
Q 2328 2753 2575 2939 
Q 2822 3125 2822 3475 
Q 2822 3834 2567 4026 
Q 2313 4219 1838 4219 
Q 1578 4219 1281 4162 
Q 984 4106 628 3988 
L 628 4550 
Q 988 4650 1302 4700 
Q 1616 4750 1894 4750 
Q 2613 4750 3031 4423 
Q 3450 4097 3450 3541 
Q 3450 3153 3228 2886 
Q 3006 2619 2597 2516 
z
" transform="scale(0.015625)"/>
       </defs>
       <use xlink:href="#DejaVuSans-33"/>
       <use xlink:href="#DejaVuSans-30" transform="translate(63.623047 0)"/>
       <use xlink:href="#DejaVuSans-30" transform="translate(127.246094 0)"/>
      </g>
     </g>
    </g>
    <g id="xtick_8">
     <g id="line2d_8">
      <path d="M 749.169675 510.66 
L 749.169675 7.2 
" clip-path="url(#pe98f6f2e4a)" style="fill: none; stroke: #ffffff; stroke-linecap: round"/>
     </g>
     <g id="text_8">
      <!-- 325 -->
      <g style="fill: #262626" transform="translate(734.85405 531.557656) scale(0.15 -0.15)">
       <use xlink:href="#DejaVuSans-33"/>
       <use xlink:href="#DejaVuSans-32" transform="translate(63.623047 0)"/>
       <use xlink:href="#DejaVuSans-35" transform="translate(127.246094 0)"/>
      </g>
     </g>
    </g>
    <g id="text_9">
     <!-- Nitrogen fertilizer (kg ha⁻¹) -->
     <g style="fill: #262626" transform="translate(292.976484 553.114219) scale(0.19 -0.19)">
      <defs>
       <path id="DejaVuSans-4e" d="M 628 4666 
L 1478 4666 
L 3547 763 
L 3547 4666 
L 4159 4666 
L 4159 0 
L 3309 0 
L 1241 3903 
L 1241 0 
L 628 0 
L 628 4666 
z
" transform="scale(0.015625)"/>
       <path id="DejaVuSans-69" d="M 603 3500 
L 1178 3500 
L 1178 0 
L 603 0 
L 603 3500 
z
M 603 4863 
L 1178 4863 
L 1178 4134 
L 603 4134 
L 603 4863 
z
" transform="scale(0.015625)"/>
       <path id="DejaVuSans-74" d="M 1172 4494 
L 1172 3500 
L 2356 3500 
L 2356 3053 
L 1172 3053 
L 1172 1153 
Q 1172 725 1289 603 
Q 1406 481 1766 481 
L 2356 481 
L 2356 0 
L 1766 0 
Q 1100 0 847 248 
Q 594 497 594 1153 
L 594 3053 
L 172 3053 
L 172 3500 
L 594 3500 
L 594 4494 
L 1172 4494 
z
" transform="scale(0.015625)"/>
       <path id="DejaVuSans-72" d="M 2631 2963 
Q 2534 3019 2420 3045 
Q 2306 3072 2169 3072 
Q 1681 3072 1420 2755 
Q 1159 2438 1159 1844 
L 1159 0 
L 581 0 
L 581 3500 
L 1159 3500 
L 1159 2956 
Q 1341 3275 1631 3429 
Q 1922 3584 2338 3584 
Q 2397 3584 2469 3576 
Q 2541 3569 2628 3553 
L 2631 2963 
z
" transform="scale(0.015625)"/>
       <path id="DejaVuSans-6f" d="M 1959 3097 
Q 1497 3097 1228 2736 
Q 959 2375 959 1747 
Q 959 1119 1226 758 
Q 1494 397 1959 397 
Q 2419 397 2687 759 
Q 2956 1122 2956 1747 
Q 2956 2369 2687 2733 
Q 2419 3097 1959 3097 
z
M 1959 3584 
Q 2709 3584 3137 3096 
Q 3566 2609 3566 1747 
Q 3566 888 3137 398 
Q 2709 -91 1959 -91 
Q 1206 -91 779 398 
Q 353 888 353 1747 
Q 353 2609 779 3096 
Q 1206 3584 1959 3584 
z
" transform="scale(0.015625)"/>
       <path id="DejaVuSans-67" d="M 2906 1791 
Q 2906 2416 2648 2759 
Q 2391 3103 1925 3103 
Q 1463 3103 1205 2759 
Q 947 2416 947 1791 
Q 947 1169 1205 825 
Q 1463 481 1925 481 
Q 2391 481 2648 825 
Q 2906 1169 2906 1791 
z
M 3481 434 
Q 3481 -459 3084 -895 
Q 2688 -1331 1869 -1331 
Q 1566 -1331 1297 -1286 
Q 1028 -1241 775 -1147 
L 775 -588 
Q 1028 -725 1275 -790 
Q 1522 -856 1778 -856 
Q 2344 -856 2625 -561 
Q 2906 -266 2906 331 
L 2906 616 
Q 2728 306 2450 153 
Q 2172 0 1784 0 
Q 1141 0 747 490 
Q 353 981 353 1791 
Q 353 2603 747 3093 
Q 1141 3584 1784 3584 
Q 2172 3584 2450 3431 
Q 2728 3278 2906 2969 
L 2906 3500 
L 3481 3500 
L 3481 434 
z
" transform="scale(0.015625)"/>
       <path id="DejaVuSans-65" d="M 3597 1894 
L 3597 1613 
L 953 1613 
Q 991 1019 1311 708 
Q 1631 397 2203 397 
Q 2534 397 2845 478 
Q 3156 559 3463 722 
L 3463 178 
Q 3153 47 2828 -22 
Q 2503 -91 2169 -91 
Q 1331 -91 842 396 
Q 353 884 353 1716 
Q 353 2575 817 3079 
Q 1281 3584 2069 3584 
Q 2775 3584 3186 3129 
Q 3597 2675 3597 1894 
z
M 3022 2063 
Q 3016 2534 2758 2815 
Q 2500 3097 2075 3097 
Q 1594 3097 1305 2825 
Q 1016 2553 972 2059 
L 3022 2063 
z
" transform="scale(0.015625)"/>
       <path id="DejaVuSans-6e" d="M 3513 2113 
L 3513 0 
L 2938 0 
L 2938 2094 
Q 2938 2591 2744 2837 
Q 2550 3084 2163 3084 
Q 1697 3084 1428 2787 
Q 1159 2491 1159 1978 
L 1159 0 
L 581 0 
L 581 3500 
L 1159 3500 
L 1159 2956 
Q 1366 3272 1645 3428 
Q 1925 3584 2291 3584 
Q 2894 3584 3203 3211 
Q 3513 2838 3513 2113 
z
" transform="scale(0.015625)"/>
       <path id="DejaVuSans-20" transform="scale(0.015625)"/>
       <path id="DejaVuSans-66" d="M 2375 4863 
L 2375 4384 
L 1825 4384 
Q 1516 4384 1395 4259 
Q 1275 4134 1275 3809 
L 1275 3500 
L 2222 3500 
L 2222 3053 
L 1275 3053 
L 1275 0 
L 697 0 
L 697 3053 
L 147 3053 
L 147 3500 
L 697 3500 
L 697 3744 
Q 697 4328 969 4595 
Q 1241 4863 1831 4863 
L 2375 4863 
z
" transform="scale(0.015625)"/>
       <path id="DejaVuSans-6c" d="M 603 4863 
L 1178 4863 
L 1178 0 
L 603 0 
L 603 4863 
z
" transform="scale(0.015625)"/>
       <path id="DejaVuSans-7a" d="M 353 3500 
L 3084 3500 
L 3084 2975 
L 922 459 
L 3084 459 
L 3084 0 
L 275 0 
L 275 525 
L 2438 3041 
L 353 3041 
L 353 3500 
z
" transform="scale(0.015625)"/>
       <path id="DejaVuSans-28" d="M 1984 4856 
Q 1566 4138 1362 3434 
Q 1159 2731 1159 2009 
Q 1159 1288 1364 580 
Q 1569 -128 1984 -844 
L 1484 -844 
Q 1016 -109 783 600 
Q 550 1309 550 2009 
Q 550 2706 781 3412 
Q 1013 4119 1484 4856 
L 1984 4856 
z
" transform="scale(0.015625)"/>
       <path id="DejaVuSans-6b" d="M 581 4863 
L 1159 4863 
L 1159 1991 
L 2875 3500 
L 3609 3500 
L 1753 1863 
L 3688 0 
L 2938 0 
L 1159 1709 
L 1159 0 
L 581 0 
L 581 4863 
z
" transform="scale(0.015625)"/>
       <path id="DejaVuSans-68" d="M 3513 2113 
L 3513 0 
L 2938 0 
L 2938 2094 
Q 2938 2591 2744 2837 
Q 2550 3084 2163 3084 
Q 1697 3084 1428 2787 
Q 1159 2491 1159 1978 
L 1159 0 
L 581 0 
L 581 4863 
L 1159 4863 
L 1159 2956 
Q 1366 3272 1645 3428 
Q 1925 3584 2291 3584 
Q 2894 3584 3203 3211 
Q 3513 2838 3513 2113 
z
" transform="scale(0.015625)"/>
       <path id="DejaVuSans-61" d="M 2194 1759 
Q 1497 1759 1228 1600 
Q 959 1441 959 1056 
Q 959 750 1161 570 
Q 1363 391 1709 391 
Q 2188 391 2477 730 
Q 2766 1069 2766 1631 
L 2766 1759 
L 2194 1759 
z
M 3341 1997 
L 3341 0 
L 2766 0 
L 2766 531 
Q 2569 213 2275 61 
Q 1981 -91 1556 -91 
Q 1019 -91 701 211 
Q 384 513 384 1019 
Q 384 1609 779 1909 
Q 1175 2209 1959 2209 
L 2766 2209 
L 2766 2266 
Q 2766 2663 2505 2880 
Q 2244 3097 1772 3097 
Q 1472 3097 1187 3025 
Q 903 2953 641 2809 
L 641 3341 
Q 956 3463 1253 3523 
Q 1550 3584 1831 3584 
Q 2591 3584 2966 3190 
Q 3341 2797 3341 1997 
z
" transform="scale(0.015625)"/>
       <path id="DejaVuSans-207b" d="M 428 3359 
L 2950 3359 
L 2950 3063 
L 428 3063 
L 428 3359 
z
" transform="scale(0.015625)"/>
       <path id="DejaVuSans-b9" d="M 488 2431 
L 1125 2431 
L 1125 4341 
L 428 4213 
L 428 4575 
L 1147 4697 
L 1575 4697 
L 1575 2431 
L 2216 2431 
L 2216 2088 
L 488 2088 
L 488 2431 
z
" transform="scale(0.015625)"/>
       <path id="DejaVuSans-29" d="M 513 4856 
L 1013 4856 
Q 1481 4119 1714 3412 
Q 1947 2706 1947 2009 
Q 1947 1309 1714 600 
Q 1481 -109 1013 -844 
L 513 -844 
Q 928 -128 1133 580 
Q 1338 1288 1338 2009 
Q 1338 2731 1133 3434 
Q 928 4138 513 4856 
z
" transform="scale(0.015625)"/>
      </defs>
      <use xlink:href="#DejaVuSans-4e"/>
      <use xlink:href="#DejaVuSans-69" transform="translate(74.804688 0)"/>
      <use xlink:href="#DejaVuSans-74" transform="translate(102.587891 0)"/>
      <use xlink:href="#DejaVuSans-72" transform="translate(141.796875 0)"/>
      <use xlink:href="#DejaVuSans-6f" transform="translate(180.660156 0)"/>
      <use xlink:href="#DejaVuSans-67" transform="translate(241.841797 0)"/>
      <use xlink:href="#DejaVuSans-65" transform="translate(305.318359 0)"/>
      <use xlink:href="#DejaVuSans-6e" transform="translate(366.841797 0)"/>
      <use xlink:href="#DejaVuSans-20" transform="translate(430.220703 0)"/>
      <use xlink:href="#DejaVuSans-66" transform="translate(462.007812 0)"/>
      <use xlink:href="#DejaVuSans-65" transform="translate(497.212891 0)"/>
      <use xlink:href="#DejaVuSans-72" transform="translate(558.736328 0)"/>
      <use xlink:href="#DejaVuSans-74" transform="translate(599.849609 0)"/>
      <use xlink:href="#DejaVuSans-69" transform="translate(639.058594 0)"/>
      <use xlink:href="#DejaVuSans-6c" transform="translate(666.841797 0)"/>
      <use xlink:href="#DejaVuSans-69" transform="translate(694.625 0)"/>
      <use xlink:href="#DejaVuSans-7a" transform="translate(722.408203 0)"/>
      <use xlink:href="#DejaVuSans-65" transform="translate(774.898438 0)"/>
      <use xlink:href="#DejaVuSans-72" transform="translate(836.421875 0)"/>
      <use xlink:href="#DejaVuSans-20" transform="translate(877.535156 0)"/>
      <use xlink:href="#DejaVuSans-28" transform="translate(909.322266 0)"/>
      <use xlink:href="#DejaVuSans-6b" transform="translate(948.335938 0)"/>
      <use xlink:href="#DejaVuSans-67" transform="translate(1006.246094 0)"/>
      <use xlink:href="#DejaVuSans-20" transform="translate(1069.722656 0)"/>
      <use xlink:href="#DejaVuSans-68" transform="translate(1101.509766 0)"/>
      <use xlink:href="#DejaVuSans-61" transform="translate(1164.888672 0)"/>
      <use xlink:href="#DejaVuSans-207b" transform="translate(1226.167969 0)"/>
      <use xlink:href="#DejaVuSans-b9" transform="translate(1278.951172 0)"/>
      <use xlink:href="#DejaVuSans-29" transform="translate(1319.039062 0)"/>
     </g>
    </g>
   </g>
   <g id="matplotlib.axis_2">
    <g id="ytick_1">
     <g id="line2d_9">
      <path d="M 58.175938 469.893971 
L 785.805938 469.893971 
" clip-path="url(#pe98f6f2e4a)" style="fill: none; stroke: #ffffff; stroke-linecap: round"/>
     </g>
     <g id="text_10">
      <!-- 10 -->
      <g style="fill: #262626" transform="translate(29.588438 475.592799) scale(0.15 -0.15)">
       <use xlink:href="#DejaVuSans-31"/>
       <use xlink:href="#DejaVuSans-30" transform="translate(63.623047 0)"/>
      </g>
     </g>
    </g>
    <g id="ytick_2">
     <g id="line2d_10">
      <path d="M 58.175938 401.461607 
L 785.805938 401.461607 
" clip-path="url(#pe98f6f2e4a)" style="fill: none; stroke: #ffffff; stroke-linecap: round"/>
     </g>
     <g id="text_11">
      <!-- 11 -->
      <g style="fill: #262626" transform="translate(29.588438 407.160435) scale(0.15 -0.15)">
       <use xlink:href="#DejaVuSans-31"/>
       <use xlink:href="#DejaVuSans-31" transform="translate(63.623047 0)"/>
      </g>
     </g>
    </g>
    <g id="ytick_3">
     <g id="line2d_11">
      <path d="M 58.175938 333.029243 
L 785.805938 333.029243 
" clip-path="url(#pe98f6f2e4a)" style="fill: none; stroke: #ffffff; stroke-linecap: round"/>
     </g>
     <g id="text_12">
      <!-- 12 -->
      <g style="fill: #262626" transform="translate(29.588438 338.728071) scale(0.15 -0.15)">
       <use xlink:href="#DejaVuSans-31"/>
       <use xlink:href="#DejaVuSans-32" transform="translate(63.623047 0)"/>
      </g>
     </g>
    </g>
    <g id="ytick_4">
     <g id="line2d_12">
      <path d="M 58.175938 264.596878 
L 785.805938 264.596878 
" clip-path="url(#pe98f6f2e4a)" style="fill: none; stroke: #ffffff; stroke-linecap: round"/>
     </g>
     <g id="text_13">
      <!-- 13 -->
      <g style="fill: #262626" transform="translate(29.588438 270.295706) scale(0.15 -0.15)">
       <use xlink:href="#DejaVuSans-31"/>
       <use xlink:href="#DejaVuSans-33" transform="translate(63.623047 0)"/>
      </g>
     </g>
    </g>
    <g id="ytick_5">
     <g id="line2d_13">
      <path d="M 58.175938 196.164514 
L 785.805938 196.164514 
" clip-path="url(#pe98f6f2e4a)" style="fill: none; stroke: #ffffff; stroke-linecap: round"/>
     </g>
     <g id="text_14">
      <!-- 14 -->
      <g style="fill: #262626" transform="translate(29.588438 201.863342) scale(0.15 -0.15)">
       <defs>
        <path id="DejaVuSans-34" d="M 2419 4116 
L 825 1625 
L 2419 1625 
L 2419 4116 
z
M 2253 4666 
L 3047 4666 
L 3047 1625 
L 3713 1625 
L 3713 1100 
L 3047 1100 
L 3047 0 
L 2419 0 
L 2419 1100 
L 313 1100 
L 313 1709 
L 2253 4666 
z
" transform="scale(0.015625)"/>
       </defs>
       <use xlink:href="#DejaVuSans-31"/>
       <use xlink:href="#DejaVuSans-34" transform="translate(63.623047 0)"/>
      </g>
     </g>
    </g>
    <g id="ytick_6">
     <g id="line2d_14">
      <path d="M 58.175938 127.73215 
L 785.805938 127.73215 
" clip-path="url(#pe98f6f2e4a)" style="fill: none; stroke: #ffffff; stroke-linecap: round"/>
     </g>
     <g id="text_15">
      <!-- 15 -->
      <g style="fill: #262626" transform="translate(29.588438 133.430978) scale(0.15 -0.15)">
       <use xlink:href="#DejaVuSans-31"/>
       <use xlink:href="#DejaVuSans-35" transform="translate(63.623047 0)"/>
      </g>
     </g>
    </g>
    <g id="ytick_7">
     <g id="line2d_15">
      <path d="M 58.175938 59.299785 
L 785.805938 59.299785 
" clip-path="url(#pe98f6f2e4a)" style="fill: none; stroke: #ffffff; stroke-linecap: round"/>
     </g>
     <g id="text_16">
      <!-- 16 -->
      <g style="fill: #262626" transform="translate(29.588438 64.998614) scale(0.15 -0.15)">
       <defs>
        <path id="DejaVuSans-36" d="M 2113 2584 
Q 1688 2584 1439 2293 
Q 1191 2003 1191 1497 
Q 1191 994 1439 701 
Q 1688 409 2113 409 
Q 2538 409 2786 701 
Q 3034 994 3034 1497 
Q 3034 2003 2786 2293 
Q 2538 2584 2113 2584 
z
M 3366 4563 
L 3366 3988 
Q 3128 4100 2886 4159 
Q 2644 4219 2406 4219 
Q 1781 4219 1451 3797 
Q 1122 3375 1075 2522 
Q 1259 2794 1537 2939 
Q 1816 3084 2150 3084 
Q 2853 3084 3261 2657 
Q 3669 2231 3669 1497 
Q 3669 778 3244 343 
Q 2819 -91 2113 -91 
Q 1303 -91 875 529 
Q 447 1150 447 2328 
Q 447 3434 972 4092 
Q 1497 4750 2381 4750 
Q 2619 4750 2861 4703 
Q 3103 4656 3366 4563 
z
" transform="scale(0.015625)"/>
       </defs>
       <use xlink:href="#DejaVuSans-31"/>
       <use xlink:href="#DejaVuSans-36" transform="translate(63.623047 0)"/>
      </g>
     </g>
    </g>
    <g id="text_17">
     <!-- Percentage change in corn grain yield -->
     <g style="fill: #262626" transform="translate(21.637031 439.07375) rotate(-90) scale(0.19 -0.19)">
      <defs>
       <path id="DejaVuSans-50" d="M 1259 4147 
L 1259 2394 
L 2053 2394 
Q 2494 2394 2734 2622 
Q 2975 2850 2975 3272 
Q 2975 3691 2734 3919 
Q 2494 4147 2053 4147 
L 1259 4147 
z
M 628 4666 
L 2053 4666 
Q 2838 4666 3239 4311 
Q 3641 3956 3641 3272 
Q 3641 2581 3239 2228 
Q 2838 1875 2053 1875 
L 1259 1875 
L 1259 0 
L 628 0 
L 628 4666 
z
" transform="scale(0.015625)"/>
       <path id="DejaVuSans-63" d="M 3122 3366 
L 3122 2828 
Q 2878 2963 2633 3030 
Q 2388 3097 2138 3097 
Q 1578 3097 1268 2742 
Q 959 2388 959 1747 
Q 959 1106 1268 751 
Q 1578 397 2138 397 
Q 2388 397 2633 464 
Q 2878 531 3122 666 
L 3122 134 
Q 2881 22 2623 -34 
Q 2366 -91 2075 -91 
Q 1284 -91 818 406 
Q 353 903 353 1747 
Q 353 2603 823 3093 
Q 1294 3584 2113 3584 
Q 2378 3584 2631 3529 
Q 2884 3475 3122 3366 
z
" transform="scale(0.015625)"/>
       <path id="DejaVuSans-79" d="M 2059 -325 
Q 1816 -950 1584 -1140 
Q 1353 -1331 966 -1331 
L 506 -1331 
L 506 -850 
L 844 -850 
Q 1081 -850 1212 -737 
Q 1344 -625 1503 -206 
L 1606 56 
L 191 3500 
L 800 3500 
L 1894 763 
L 2988 3500 
L 3597 3500 
L 2059 -325 
z
" transform="scale(0.015625)"/>
       <path id="DejaVuSans-64" d="M 2906 2969 
L 2906 4863 
L 3481 4863 
L 3481 0 
L 2906 0 
L 2906 525 
Q 2725 213 2448 61 
Q 2172 -91 1784 -91 
Q 1150 -91 751 415 
Q 353 922 353 1747 
Q 353 2572 751 3078 
Q 1150 3584 1784 3584 
Q 2172 3584 2448 3432 
Q 2725 3281 2906 2969 
z
M 947 1747 
Q 947 1113 1208 752 
Q 1469 391 1925 391 
Q 2381 391 2643 752 
Q 2906 1113 2906 1747 
Q 2906 2381 2643 2742 
Q 2381 3103 1925 3103 
Q 1469 3103 1208 2742 
Q 947 2381 947 1747 
z
" transform="scale(0.015625)"/>
      </defs>
      <use xlink:href="#DejaVuSans-50"/>
      <use xlink:href="#DejaVuSans-65" transform="translate(56.677734 0)"/>
      <use xlink:href="#DejaVuSans-72" transform="translate(118.201172 0)"/>
      <use xlink:href="#DejaVuSans-63" transform="translate(157.064453 0)"/>
      <use xlink:href="#DejaVuSans-65" transform="translate(212.044922 0)"/>
      <use xlink:href="#DejaVuSans-6e" transform="translate(273.568359 0)"/>
      <use xlink:href="#DejaVuSans-74" transform="translate(336.947266 0)"/>
      <use xlink:href="#DejaVuSans-61" transform="translate(376.15625 0)"/>
      <use xlink:href="#DejaVuSans-67" transform="translate(437.435547 0)"/>
      <use xlink:href="#DejaVuSans-65" transform="translate(500.912109 0)"/>
      <use xlink:href="#DejaVuSans-20" transform="translate(562.435547 0)"/>
      <use xlink:href="#DejaVuSans-63" transform="translate(594.222656 0)"/>
      <use xlink:href="#DejaVuSans-68" transform="translate(649.203125 0)"/>
      <use xlink:href="#DejaVuSans-61" transform="translate(712.582031 0)"/>
      <use xlink:href="#DejaVuSans-6e" transform="translate(773.861328 0)"/>
      <use xlink:href="#DejaVuSans-67" transform="translate(837.240234 0)"/>
      <use xlink:href="#DejaVuSans-65" transform="translate(900.716797 0)"/>
      <use xlink:href="#DejaVuSans-20" transform="translate(962.240234 0)"/>
      <use xlink:href="#DejaVuSans-69" transform="translate(994.027344 0)"/>
      <use xlink:href="#DejaVuSans-6e" transform="translate(1021.810547 0)"/>
      <use xlink:href="#DejaVuSans-20" transform="translate(1085.189453 0)"/>
      <use xlink:href="#DejaVuSans-63" transform="translate(1116.976562 0)"/>
      <use xlink:href="#DejaVuSans-6f" transform="translate(1171.957031 0)"/>
      <use xlink:href="#DejaVuSans-72" transform="translate(1233.138672 0)"/>
      <use xlink:href="#DejaVuSans-6e" transform="translate(1272.501953 0)"/>
      <use xlink:href="#DejaVuSans-20" transform="translate(1335.880859 0)"/>
      <use xlink:href="#DejaVuSans-67" transform="translate(1367.667969 0)"/>
      <use xlink:href="#DejaVuSans-72" transform="translate(1431.144531 0)"/>
      <use xlink:href="#DejaVuSans-61" transform="translate(1472.257812 0)"/>
      <use xlink:href="#DejaVuSans-69" transform="translate(1533.537109 0)"/>
      <use xlink:href="#DejaVuSans-6e" transform="translate(1561.320312 0)"/>
      <use xlink:href="#DejaVuSans-20" transform="translate(1624.699219 0)"/>
      <use xlink:href="#DejaVuSans-79" transform="translate(1656.486328 0)"/>
      <use xlink:href="#DejaVuSans-69" transform="translate(1715.666016 0)"/>
      <use xlink:href="#DejaVuSans-65" transform="translate(1743.449219 0)"/>
      <use xlink:href="#DejaVuSans-6c" transform="translate(1804.972656 0)"/>
      <use xlink:href="#DejaVuSans-64" transform="translate(1832.755859 0)"/>
     </g>
    </g>
   </g>
   <g id="FillBetweenPolyCollection_1"/>
   <g id="FillBetweenPolyCollection_2"/>
   <g id="FillBetweenPolyCollection_3"/>
   <g id="FillBetweenPolyCollection_4"/>
   <g id="line2d_16">
    <path d="M 91.250028 463.142605 
L 105.949624 438.791657 
L 120.64922 423.21937 
L 135.348816 414.891903 
L 150.048412 411.134255 
L 164.748008 397.021863 
L 179.447604 369.275718 
L 189.908666 354.717166 
L 194.1472 350.31926 
L 208.846796 327.159427 
L 223.546392 286.791542 
L 238.245988 246.229013 
L 252.945584 235.175047 
L 267.64518 223.585955 
L 282.344776 240.968102 
L 297.044372 265.690073 
L 311.743968 300.897523 
L 326.443564 330.693352 
L 341.14316 337.067421 
L 355.842756 350.701292 
L 370.542352 362.982099 
L 385.241948 382.599821 
L 399.941544 400.978785 
L 414.64114 420.486462 
L 429.340735 447.087824 
L 444.040331 470.212179 
L 458.739927 481.918739 
L 473.439523 483.955395 
L 488.139119 487.775455 
L 502.838715 483.767963 
L 517.538311 482.732409 
L 532.237907 478.460315 
L 546.937503 475.874906 
L 561.637099 479.640545 
L 576.336695 478.194424 
L 591.036291 477.505983 
L 605.735887 477.150466 
L 620.435483 479.346978 
L 635.135079 479.210535 
L 649.834675 479.074271 
L 664.534271 479.110498 
L 679.233867 479.000184 
L 693.933463 478.810792 
L 708.633059 478.773261 
L 723.332655 478.732193 
L 738.032251 478.657149 
L 752.731847 478.566603 
" clip-path="url(#pe98f6f2e4a)" style="fill: none; stroke: #1f77b4; stroke-width: 1.5; stroke-linecap: round"/>
   </g>
   <g id="line2d_17">
    <path d="M 91.250028 370.514623 
L 105.949624 340.677347 
L 120.64922 316.027092 
L 135.348816 299.007819 
L 150.048412 280.572417 
L 164.748008 270.882287 
L 179.447604 256.348869 
L 189.908666 234.792787 
L 194.1472 223.270787 
L 208.846796 189.07583 
L 223.546392 155.535005 
L 238.245988 144.14091 
L 252.945584 152.658267 
L 267.64518 176.250063 
L 282.344776 217.865988 
L 297.044372 253.613811 
L 311.743968 274.343496 
L 326.443564 287.995006 
L 341.14316 303.430966 
L 355.842756 328.99789 
L 370.542352 358.137008 
L 385.241948 376.850904 
L 399.941544 398.112613 
L 414.64114 420.036108 
L 429.340735 435.066435 
L 444.040331 440.574254 
L 458.739927 441.050971 
L 473.439523 443.058934 
L 488.139119 436.3537 
L 502.838715 433.353681 
L 517.538311 432.181434 
L 532.237907 430.865508 
L 546.937503 430.011882 
L 561.637099 429.533516 
L 576.336695 429.247254 
L 591.036291 429.137438 
L 605.735887 429.057844 
L 620.435483 428.990832 
L 635.135079 428.937167 
L 649.834675 428.889659 
L 664.534271 428.874531 
L 679.233867 428.845588 
L 693.933463 428.814277 
L 708.633059 428.814727 
L 723.332655 428.819575 
L 738.032251 428.825152 
L 752.731847 428.832888 
" clip-path="url(#pe98f6f2e4a)" style="fill: none; stroke: #ff7f0e; stroke-width: 1.5; stroke-linecap: round"/>
   </g>
   <g id="line2d_18">
    <path d="M 91.250028 266.478232 
L 105.949624 230.279327 
L 120.64922 203.541003 
L 135.348816 182.62185 
L 150.048412 177.438279 
L 164.748008 160.25421 
L 179.447604 145.739953 
L 189.908666 121.067007 
L 194.1472 110.304107 
L 208.846796 91.969524 
L 223.546392 85.056751 
L 238.245988 96.423856 
L 252.945584 126.640851 
L 267.64518 178.01514 
L 282.344776 215.798643 
L 297.044372 247.947724 
L 311.743968 265.210946 
L 326.443564 283.556832 
L 341.14316 301.919583 
L 355.842756 330.461167 
L 370.542352 348.750103 
L 385.241948 366.639287 
L 399.941544 382.909547 
L 414.64114 395.678124 
L 429.340735 397.519386 
L 444.040331 395.980003 
L 458.739927 394.050877 
L 473.439523 392.541163 
L 488.139119 391.845476 
L 502.838715 391.430895 
L 517.538311 391.385135 
L 532.237907 391.428112 
L 546.937503 391.501315 
L 561.637099 391.543833 
L 576.336695 391.586564 
L 591.036291 391.672725 
L 605.735887 391.696463 
L 620.435483 391.761993 
L 635.135079 391.794377 
L 649.834675 391.810998 
L 664.534271 391.821638 
L 679.233867 391.833163 
L 693.933463 391.845769 
L 708.633059 391.860193 
L 723.332655 391.873202 
L 738.032251 392.244203 
L 752.731847 392.256069 
" clip-path="url(#pe98f6f2e4a)" style="fill: none; stroke: #2ca02c; stroke-width: 1.5; stroke-linecap: round"/>
   </g>
   <g id="line2d_19">
    <path d="M 91.250028 156.842563 
L 105.949624 131.005203 
L 120.64922 132.926205 
L 135.348816 119.48296 
L 150.048412 91.539072 
L 164.748008 71.724625 
L 179.447604 40.538771 
L 189.908666 36.510647 
L 194.1472 33.224811 
L 208.846796 30.084545 
L 223.546392 47.713143 
L 238.245988 84.805425 
L 252.945584 145.773992 
L 267.64518 192.239109 
L 282.344776 213.659902 
L 297.044372 238.584164 
L 311.743968 259.370411 
L 326.443564 281.807259 
L 341.14316 300.299481 
L 355.842756 319.264315 
L 370.542352 333.288137 
L 385.241948 339.434512 
L 399.941544 343.083468 
L 414.64114 344.159697 
L 429.340735 342.930174 
L 444.040331 341.326343 
L 458.739927 340.643136 
L 473.439523 340.268109 
L 488.139119 340.161791 
L 502.838715 340.10587 
L 517.538311 340.063834 
L 532.237907 340.022321 
L 546.937503 339.991562 
L 561.637099 339.963115 
L 576.336695 339.938099 
L 591.036291 339.934639 
L 605.735887 339.934639 
L 620.435483 339.934639 
L 635.135079 339.934639 
L 649.834675 339.934639 
L 664.534271 339.934639 
L 679.233867 339.934639 
L 693.933463 339.934639 
L 708.633059 339.934639 
L 723.332655 339.934639 
L 738.032251 339.934639 
L 752.731847 339.934639 
" clip-path="url(#pe98f6f2e4a)" style="fill: none; stroke: #d62728; stroke-width: 1.5; stroke-linecap: round"/>
   </g>
   <g id="line2d_20"/>
   <g id="line2d_21"/>
   <g id="line2d_22"/>
   <g id="line2d_23"/>
   <g id="patch_3">
    <path d="M 58.175938 510.66 
L 58.175938 7.2 
" style="fill: none; stroke: #ffffff; stroke-width: 1.25; stroke-linejoin: miter; stroke-linecap: square"/>
   </g>
   <g id="patch_4">
    <path d="M 58.175938 510.66 
L 785.805938 510.66 
" style="fill: none; stroke: #ffffff; stroke-width: 1.25; stroke-linejoin: miter; stroke-linecap: square"/>
   </g>
  </g>
  <g id="legend_1">
   <g id="text_18">
    <!-- Residue -->
    <g style="fill: #262626" transform="translate(743.192187 253.152187) scale(0.12 -0.12)">
     <defs>
      <path id="DejaVuSans-52" d="M 2841 2188 
Q 3044 2119 3236 1894 
Q 3428 1669 3622 1275 
L 4263 0 
L 3584 0 
L 2988 1197 
Q 2756 1666 2539 1819 
Q 2322 1972 1947 1972 
L 1259 1972 
L 1259 0 
L 628 0 
L 628 4666 
L 2053 4666 
Q 2853 4666 3247 4331 
Q 3641 3997 3641 3322 
Q 3641 2881 3436 2590 
Q 3231 2300 2841 2188 
z
M 1259 4147 
L 1259 2491 
L 2053 2491 
Q 2509 2491 2742 2702 
Q 2975 2913 2975 3322 
Q 2975 3731 2742 3939 
Q 2509 4147 2053 4147 
L 1259 4147 
z
" transform="scale(0.015625)"/>
      <path id="DejaVuSans-73" d="M 2834 3397 
L 2834 2853 
Q 2591 2978 2328 3040 
Q 2066 3103 1784 3103 
Q 1356 3103 1142 2972 
Q 928 2841 928 2578 
Q 928 2378 1081 2264 
Q 1234 2150 1697 2047 
L 1894 2003 
Q 2506 1872 2764 1633 
Q 3022 1394 3022 966 
Q 3022 478 2636 193 
Q 2250 -91 1575 -91 
Q 1294 -91 989 -36 
Q 684 19 347 128 
L 347 722 
Q 666 556 975 473 
Q 1284 391 1588 391 
Q 1994 391 2212 530 
Q 2431 669 2431 922 
Q 2431 1156 2273 1281 
Q 2116 1406 1581 1522 
L 1381 1569 
Q 847 1681 609 1914 
Q 372 2147 372 2553 
Q 372 3047 722 3315 
Q 1072 3584 1716 3584 
Q 2034 3584 2315 3537 
Q 2597 3491 2834 3397 
z
" transform="scale(0.015625)"/>
      <path id="DejaVuSans-75" d="M 544 1381 
L 544 3500 
L 1119 3500 
L 1119 1403 
Q 1119 906 1312 657 
Q 1506 409 1894 409 
Q 2359 409 2629 706 
Q 2900 1003 2900 1516 
L 2900 3500 
L 3475 3500 
L 3475 0 
L 2900 0 
L 2900 538 
Q 2691 219 2414 64 
Q 2138 -91 1772 -91 
Q 1169 -91 856 284 
Q 544 659 544 1381 
z
M 1991 3584 
L 1991 3584 
z
" transform="scale(0.015625)"/>
     </defs>
     <use xlink:href="#DejaVuSans-52"/>
     <use xlink:href="#DejaVuSans-65" transform="translate(64.982422 0)"/>
     <use xlink:href="#DejaVuSans-73" transform="translate(126.505859 0)"/>
     <use xlink:href="#DejaVuSans-69" transform="translate(178.605469 0)"/>
     <use xlink:href="#DejaVuSans-64" transform="translate(206.388672 0)"/>
     <use xlink:href="#DejaVuSans-75" transform="translate(269.865234 0)"/>
     <use xlink:href="#DejaVuSans-65" transform="translate(333.244141 0)"/>
    </g>
   </g>
   <g id="line2d_24">
    <path d="M 744.480312 265.656094 
L 755.480312 265.656094 
L 766.480312 265.656094 
" style="fill: none; stroke: #1f77b4; stroke-width: 1.5; stroke-linecap: round"/>
   </g>
   <g id="text_19">
    <!-- 10 -->
    <g style="fill: #262626" transform="translate(775.280312 269.506094) scale(0.11 -0.11)">
     <use xlink:href="#DejaVuSans-31"/>
     <use xlink:href="#DejaVuSans-30" transform="translate(63.623047 0)"/>
    </g>
   </g>
   <g id="line2d_25">
    <path d="M 744.480312 281.802031 
L 755.480312 281.802031 
L 766.480312 281.802031 
" style="fill: none; stroke: #ff7f0e; stroke-width: 1.5; stroke-linecap: round"/>
   </g>
   <g id="text_20">
    <!-- 37 -->
    <g style="fill: #262626" transform="translate(775.280312 285.652031) scale(0.11 -0.11)">
     <use xlink:href="#DejaVuSans-33"/>
     <use xlink:href="#DejaVuSans-37" transform="translate(63.623047 0)"/>
    </g>
   </g>
   <g id="line2d_26">
    <path d="M 744.480312 297.947969 
L 755.480312 297.947969 
L 766.480312 297.947969 
" style="fill: none; stroke: #2ca02c; stroke-width: 1.5; stroke-linecap: round"/>
   </g>
   <g id="text_21">
    <!-- 63 -->
    <g style="fill: #262626" transform="translate(775.280312 301.797969) scale(0.11 -0.11)">
     <use xlink:href="#DejaVuSans-36"/>
     <use xlink:href="#DejaVuSans-33" transform="translate(63.623047 0)"/>
    </g>
   </g>
   <g id="line2d_27">
    <path d="M 744.480312 314.093906 
L 755.480312 314.093906 
L 766.480312 314.093906 
" style="fill: none; stroke: #d62728; stroke-width: 1.5; stroke-linecap: round"/>
   </g>
   <g id="text_22">
    <!-- 90 -->
    <g style="fill: #262626" transform="translate(775.280312 317.943906) scale(0.11 -0.11)">
     <defs>
      <path id="DejaVuSans-39" d="M 703 97 
L 703 672 
Q 941 559 1184 500 
Q 1428 441 1663 441 
Q 2288 441 2617 861 
Q 2947 1281 2994 2138 
Q 2813 1869 2534 1725 
Q 2256 1581 1919 1581 
Q 1219 1581 811 2004 
Q 403 2428 403 3163 
Q 403 3881 828 4315 
Q 1253 4750 1959 4750 
Q 2769 4750 3195 4129 
Q 3622 3509 3622 2328 
Q 3622 1225 3098 567 
Q 2575 -91 1691 -91 
Q 1453 -91 1209 -44 
Q 966 3 703 97 
z
M 1959 2075 
Q 2384 2075 2632 2365 
Q 2881 2656 2881 3163 
Q 2881 3666 2632 3958 
Q 2384 4250 1959 4250 
Q 1534 4250 1286 3958 
Q 1038 3666 1038 3163 
Q 1038 2656 1286 2365 
Q 1534 2075 1959 2075 
z
" transform="scale(0.015625)"/>
     </defs>
     <use xlink:href="#DejaVuSans-39"/>
     <use xlink:href="#DejaVuSans-30" transform="translate(63.623047 0)"/>
    </g>
   </g>
  </g>
 </g>
 <defs>
  <clipPath id="pe98f6f2e4a">
   <rect x="58.175938" y="7.2" width="727.63" height="503.46"/>
  </clipPath>
 </defs>
</svg>
