<?xml version="1.0" encoding="utf-8" standalone="no"?>
<!DOCTYPE svg PUBLIC "-//W3C//DTD SVG 1.1//EN"
  "http://www.w3.org/Graphics/SVG/1.1/DTD/svg11.dtd">
<svg xmlns:xlink="http://www.w3.org/1999/xlink" width="808.496875pt" height="564.265625pt" viewBox="0 0 808.496875 564.265625" xmlns="http://www.w3.org/2000/svg" version="1.1">
 <metadata>
  <rdf:RDF xmlns:dc="http://purl.org/dc/elements/1.1/" xmlns:cc="http://creativecommons.org/ns#" xmlns:rdf="http://www.w3.org/1999/02/22-rdf-syntax-ns#">
   <cc:Work>
    <dc:type rdf:resource="http://purl.org/dc/dcmitype/StillImage"/>
    <dc:date>2026-01-06T15:09:06.196117</dc:date>
    <dc:format>image/svg+xml</dc:format>
    <dc:creator>
     <cc:Agent>
      <dc:title>Matplotlib v3.10.6, https://matplotlib.org/</dc:title>
     </cc:Agent>
    </dc:creator>
   </cc:Work>
  </rdf:RDF>
 </metadata>
 <defs>
  <style type="text/css">*{stroke-linejoin: round; stroke-linecap: butt}</style>
 </defs>
 <g id="figure_1">
  <g id="patch_1">
   <path d="M 0 564.265625 
L 808.496875 564.265625 
L 808.496875 0 
L 0 0 
z
" style="fill: #ffffff"/>
  </g>
  <g id="axes_1">
   <g id="patch_2">
    <path d="M 72.486875 510.66 
L 793.836875 510.66 
L 793.836875 7.2 
L 72.486875 7.2 
z
" style="fill: #eaeaf2"/>
   </g>
   <g id="matplotlib.axis_1">
    <g id="xtick_1">
     <g id="line2d_1">
      <path d="M 105.275511 510.66 
L 105.275511 7.2 
" clip-path="url(#p194e43f14c)" style="fill: none; stroke: #ffffff; stroke-linecap: round"/>
     </g>
     <g id="text_1">
      <!-- 0 -->
      <g style="fill: #262626" transform="translate(100.503636 531.557656) scale(0.15 -0.15)">
       <defs>
        <path id="DejaVuSans-30" d="M 2034 4250 
Q 1547 4250 1301 3770 
Q 1056 3291 1056 2328 
Q 1056 1369 1301 889 
Q 1547 409 2034 409 
Q 2525 409 2770 889 
Q 3016 1369 3016 2328 
Q 3016 3291 2770 3770 
Q 2525 4250 2034 4250 
z
M 2034 4750 
Q 2819 4750 3233 4129 
Q 3647 3509 3647 2328 
Q 3647 1150 3233 529 
Q 2819 -91 2034 -91 
Q 1250 -91 836 529 
Q 422 1150 422 2328 
Q 422 3509 836 4129 
Q 1250 4750 2034 4750 
z
" transform="scale(0.015625)"/>
       </defs>
       <use xlink:href="#DejaVuSans-30"/>
      </g>
     </g>
    </g>
    <g id="xtick_2">
     <g id="line2d_2">
      <path d="M 205.854151 510.66 
L 205.854151 7.2 
" clip-path="url(#p194e43f14c)" style="fill: none; stroke: #ffffff; stroke-linecap: round"/>
     </g>
     <g id="text_2">
      <!-- 50 -->
      <g style="fill: #262626" transform="translate(196.310401 531.557656) scale(0.15 -0.15)">
       <defs>
        <path id="DejaVuSans-35" d="M 691 4666 
L 3169 4666 
L 3169 4134 
L 1269 4134 
L 1269 2991 
Q 1406 3038 1543 3061 
Q 1681 3084 1819 3084 
Q 2600 3084 3056 2656 
Q 3513 2228 3513 1497 
Q 3513 744 3044 326 
Q 2575 -91 1722 -91 
Q 1428 -91 1123 -41 
Q 819 9 494 109 
L 494 744 
Q 775 591 1075 516 
Q 1375 441 1709 441 
Q 2250 441 2565 725 
Q 2881 1009 2881 1497 
Q 2881 1984 2565 2268 
Q 2250 2553 1709 2553 
Q 1456 2553 1204 2497 
Q 953 2441 691 2322 
L 691 4666 
z
" transform="scale(0.015625)"/>
       </defs>
       <use xlink:href="#DejaVuSans-35"/>
       <use xlink:href="#DejaVuSans-30" transform="translate(63.623047 0)"/>
      </g>
     </g>
    </g>
    <g id="xtick_3">
     <g id="line2d_3">
      <path d="M 306.43279 510.66 
L 306.43279 7.2 
" clip-path="url(#p194e43f14c)" style="fill: none; stroke: #ffffff; stroke-linecap: round"/>
     </g>
     <g id="text_3">
      <!-- 100 -->
      <g style="fill: #262626" transform="translate(292.117165 531.557656) scale(0.15 -0.15)">
       <defs>
        <path id="DejaVuSans-31" d="M 794 531 
L 1825 531 
L 1825 4091 
L 703 3866 
L 703 4441 
L 1819 4666 
L 2450 4666 
L 2450 531 
L 3481 531 
L 3481 0 
L 794 0 
L 794 531 
z
" transform="scale(0.015625)"/>
       </defs>
       <use xlink:href="#DejaVuSans-31"/>
       <use xlink:href="#DejaVuSans-30" transform="translate(63.623047 0)"/>
       <use xlink:href="#DejaVuSans-30" transform="translate(127.246094 0)"/>
      </g>
     </g>
    </g>
    <g id="xtick_4">
     <g id="line2d_4">
      <path d="M 407.011429 510.66 
L 407.011429 7.2 
" clip-path="url(#p194e43f14c)" style="fill: none; stroke: #ffffff; stroke-linecap: round"/>
     </g>
     <g id="text_4">
      <!-- 150 -->
      <g style="fill: #262626" transform="translate(392.695804 531.557656) scale(0.15 -0.15)">
       <use xlink:href="#DejaVuSans-31"/>
       <use xlink:href="#DejaVuSans-35" transform="translate(63.623047 0)"/>
       <use xlink:href="#DejaVuSans-30" transform="translate(127.246094 0)"/>
      </g>
     </g>
    </g>
    <g id="xtick_5">
     <g id="line2d_5">
      <path d="M 507.590068 510.66 
L 507.590068 7.2 
" clip-path="url(#p194e43f14c)" style="fill: none; stroke: #ffffff; stroke-linecap: round"/>
     </g>
     <g id="text_5">
      <!-- 200 -->
      <g style="fill: #262626" transform="translate(493.274443 531.557656) scale(0.15 -0.15)">
       <defs>
        <path id="DejaVuSans-32" d="M 1228 531 
L 3431 531 
L 3431 0 
L 469 0 
L 469 531 
Q 828 903 1448 1529 
Q 2069 2156 2228 2338 
Q 2531 2678 2651 2914 
Q 2772 3150 2772 3378 
Q 2772 3750 2511 3984 
Q 2250 4219 1831 4219 
Q 1534 4219 1204 4116 
Q 875 4013 500 3803 
L 500 4441 
Q 881 4594 1212 4672 
Q 1544 4750 1819 4750 
Q 2544 4750 2975 4387 
Q 3406 4025 3406 3419 
Q 3406 3131 3298 2873 
Q 3191 2616 2906 2266 
Q 2828 2175 2409 1742 
Q 1991 1309 1228 531 
z
" transform="scale(0.015625)"/>
       </defs>
       <use xlink:href="#DejaVuSans-32"/>
       <use xlink:href="#DejaVuSans-30" transform="translate(63.623047 0)"/>
       <use xlink:href="#DejaVuSans-30" transform="translate(127.246094 0)"/>
      </g>
     </g>
    </g>
    <g id="xtick_6">
     <g id="line2d_6">
      <path d="M 608.168707 510.66 
L 608.168707 7.2 
" clip-path="url(#p194e43f14c)" style="fill: none; stroke: #ffffff; stroke-linecap: round"/>
     </g>
     <g id="text_6">
      <!-- 250 -->
      <g style="fill: #262626" transform="translate(593.853082 531.557656) scale(0.15 -0.15)">
       <use xlink:href="#DejaVuSans-32"/>
       <use xlink:href="#DejaVuSans-35" transform="translate(63.623047 0)"/>
       <use xlink:href="#DejaVuSans-30" transform="translate(127.246094 0)"/>
      </g>
     </g>
    </g>
    <g id="xtick_7">
     <g id="line2d_7">
      <path d="M 708.747346 510.66 
L 708.747346 7.2 
" clip-path="url(#p194e43f14c)" style="fill: none; stroke: #ffffff; stroke-linecap: round"/>
     </g>
     <g id="text_7">
      <!-- 300 -->
      <g style="fill: #262626" transform="translate(694.431721 531.557656) scale(0.15 -0.15)">
       <defs>
        <path id="DejaVuSans-33" d="M 2597 2516 
Q 3050 2419 3304 2112 
Q 3559 1806 3559 1356 
Q 3559 666 3084 287 
Q 2609 -91 1734 -91 
Q 1441 -91 1130 -33 
Q 819 25 488 141 
L 488 750 
Q 750 597 1062 519 
Q 1375 441 1716 441 
Q 2309 441 2620 675 
Q 2931 909 2931 1356 
Q 2931 1769 2642 2001 
Q 2353 2234 1838 2234 
L 1294 2234 
L 1294 2753 
L 1863 2753 
Q 2328 2753 2575 2939 
Q 2822 3125 2822 3475 
Q 2822 3834 2567 4026 
Q 2313 4219 1838 4219 
Q 1578 4219 1281 4162 
Q 984 4106 628 3988 
L 628 4550 
Q 988 4650 1302 4700 
Q 1616 4750 1894 4750 
Q 2613 4750 3031 4423 
Q 3450 4097 3450 3541 
Q 3450 3153 3228 2886 
Q 3006 2619 2597 2516 
z
" transform="scale(0.015625)"/>
       </defs>
       <use xlink:href="#DejaVuSans-33"/>
       <use xlink:href="#DejaVuSans-30" transform="translate(63.623047 0)"/>
       <use xlink:href="#DejaVuSans-30" transform="translate(127.246094 0)"/>
      </g>
     </g>
    </g>
    <g id="text_8">
     <!-- Nitrogen fertilizer (kg ha⁻¹) -->
     <g style="fill: #262626" transform="translate(304.147422 553.114219) scale(0.19 -0.19)">
      <defs>
       <path id="DejaVuSans-4e" d="M 628 4666 
L 1478 4666 
L 3547 763 
L 3547 4666 
L 4159 4666 
L 4159 0 
L 3309 0 
L 1241 3903 
L 1241 0 
L 628 0 
L 628 4666 
z
" transform="scale(0.015625)"/>
       <path id="DejaVuSans-69" d="M 603 3500 
L 1178 3500 
L 1178 0 
L 603 0 
L 603 3500 
z
M 603 4863 
L 1178 4863 
L 1178 4134 
L 603 4134 
L 603 4863 
z
" transform="scale(0.015625)"/>
       <path id="DejaVuSans-74" d="M 1172 4494 
L 1172 3500 
L 2356 3500 
L 2356 3053 
L 1172 3053 
L 1172 1153 
Q 1172 725 1289 603 
Q 1406 481 1766 481 
L 2356 481 
L 2356 0 
L 1766 0 
Q 1100 0 847 248 
Q 594 497 594 1153 
L 594 3053 
L 172 3053 
L 172 3500 
L 594 3500 
L 594 4494 
L 1172 4494 
z
" transform="scale(0.015625)"/>
       <path id="DejaVuSans-72" d="M 2631 2963 
Q 2534 3019 2420 3045 
Q 2306 3072 2169 3072 
Q 1681 3072 1420 2755 
Q 1159 2438 1159 1844 
L 1159 0 
L 581 0 
L 581 3500 
L 1159 3500 
L 1159 2956 
Q 1341 3275 1631 3429 
Q 1922 3584 2338 3584 
Q 2397 3584 2469 3576 
Q 2541 3569 2628 3553 
L 2631 2963 
z
" transform="scale(0.015625)"/>
       <path id="DejaVuSans-6f" d="M 1959 3097 
Q 1497 3097 1228 2736 
Q 959 2375 959 1747 
Q 959 1119 1226 758 
Q 1494 397 1959 397 
Q 2419 397 2687 759 
Q 2956 1122 2956 1747 
Q 2956 2369 2687 2733 
Q 2419 3097 1959 3097 
z
M 1959 3584 
Q 2709 3584 3137 3096 
Q 3566 2609 3566 1747 
Q 3566 888 3137 398 
Q 2709 -91 1959 -91 
Q 1206 -91 779 398 
Q 353 888 353 1747 
Q 353 2609 779 3096 
Q 1206 3584 1959 3584 
z
" transform="scale(0.015625)"/>
       <path id="DejaVuSans-67" d="M 2906 1791 
Q 2906 2416 2648 2759 
Q 2391 3103 1925 3103 
Q 1463 3103 1205 2759 
Q 947 2416 947 1791 
Q 947 1169 1205 825 
Q 1463 481 1925 481 
Q 2391 481 2648 825 
Q 2906 1169 2906 1791 
z
M 3481 434 
Q 3481 -459 3084 -895 
Q 2688 -1331 1869 -1331 
Q 1566 -1331 1297 -1286 
Q 1028 -1241 775 -1147 
L 775 -588 
Q 1028 -725 1275 -790 
Q 1522 -856 1778 -856 
Q 2344 -856 2625 -561 
Q 2906 -266 2906 331 
L 2906 616 
Q 2728 306 2450 153 
Q 2172 0 1784 0 
Q 1141 0 747 490 
Q 353 981 353 1791 
Q 353 2603 747 3093 
Q 1141 3584 1784 3584 
Q 2172 3584 2450 3431 
Q 2728 3278 2906 2969 
L 2906 3500 
L 3481 3500 
L 3481 434 
z
" transform="scale(0.015625)"/>
       <path id="DejaVuSans-65" d="M 3597 1894 
L 3597 1613 
L 953 1613 
Q 991 1019 1311 708 
Q 1631 397 2203 397 
Q 2534 397 2845 478 
Q 3156 559 3463 722 
L 3463 178 
Q 3153 47 2828 -22 
Q 2503 -91 2169 -91 
Q 1331 -91 842 396 
Q 353 884 353 1716 
Q 353 2575 817 3079 
Q 1281 3584 2069 3584 
Q 2775 3584 3186 3129 
Q 3597 2675 3597 1894 
z
M 3022 2063 
Q 3016 2534 2758 2815 
Q 2500 3097 2075 3097 
Q 1594 3097 1305 2825 
Q 1016 2553 972 2059 
L 3022 2063 
z
" transform="scale(0.015625)"/>
       <path id="DejaVuSans-6e" d="M 3513 2113 
L 3513 0 
L 2938 0 
L 2938 2094 
Q 2938 2591 2744 2837 
Q 2550 3084 2163 3084 
Q 1697 3084 1428 2787 
Q 1159 2491 1159 1978 
L 1159 0 
L 581 0 
L 581 3500 
L 1159 3500 
L 1159 2956 
Q 1366 3272 1645 3428 
Q 1925 3584 2291 3584 
Q 2894 3584 3203 3211 
Q 3513 2838 3513 2113 
z
" transform="scale(0.015625)"/>
       <path id="DejaVuSans-20" transform="scale(0.015625)"/>
       <path id="DejaVuSans-66" d="M 2375 4863 
L 2375 4384 
L 1825 4384 
Q 1516 4384 1395 4259 
Q 1275 4134 1275 3809 
L 1275 3500 
L 2222 3500 
L 2222 3053 
L 1275 3053 
L 1275 0 
L 697 0 
L 697 3053 
L 147 3053 
L 147 3500 
L 697 3500 
L 697 3744 
Q 697 4328 969 4595 
Q 1241 4863 1831 4863 
L 2375 4863 
z
" transform="scale(0.015625)"/>
       <path id="DejaVuSans-6c" d="M 603 4863 
L 1178 4863 
L 1178 0 
L 603 0 
L 603 4863 
z
" transform="scale(0.015625)"/>
       <path id="DejaVuSans-7a" d="M 353 3500 
L 3084 3500 
L 3084 2975 
L 922 459 
L 3084 459 
L 3084 0 
L 275 0 
L 275 525 
L 2438 3041 
L 353 3041 
L 353 3500 
z
" transform="scale(0.015625)"/>
       <path id="DejaVuSans-28" d="M 1984 4856 
Q 1566 4138 1362 3434 
Q 1159 2731 1159 2009 
Q 1159 1288 1364 580 
Q 1569 -128 1984 -844 
L 1484 -844 
Q 1016 -109 783 600 
Q 550 1309 550 2009 
Q 550 2706 781 3412 
Q 1013 4119 1484 4856 
L 1984 4856 
z
" transform="scale(0.015625)"/>
       <path id="DejaVuSans-6b" d="M 581 4863 
L 1159 4863 
L 1159 1991 
L 2875 3500 
L 3609 3500 
L 1753 1863 
L 3688 0 
L 2938 0 
L 1159 1709 
L 1159 0 
L 581 0 
L 581 4863 
z
" transform="scale(0.015625)"/>
       <path id="DejaVuSans-68" d="M 3513 2113 
L 3513 0 
L 2938 0 
L 2938 2094 
Q 2938 2591 2744 2837 
Q 2550 3084 2163 3084 
Q 1697 3084 1428 2787 
Q 1159 2491 1159 1978 
L 1159 0 
L 581 0 
L 581 4863 
L 1159 4863 
L 1159 2956 
Q 1366 3272 1645 3428 
Q 1925 3584 2291 3584 
Q 2894 3584 3203 3211 
Q 3513 2838 3513 2113 
z
" transform="scale(0.015625)"/>
       <path id="DejaVuSans-61" d="M 2194 1759 
Q 1497 1759 1228 1600 
Q 959 1441 959 1056 
Q 959 750 1161 570 
Q 1363 391 1709 391 
Q 2188 391 2477 730 
Q 2766 1069 2766 1631 
L 2766 1759 
L 2194 1759 
z
M 3341 1997 
L 3341 0 
L 2766 0 
L 2766 531 
Q 2569 213 2275 61 
Q 1981 -91 1556 -91 
Q 1019 -91 701 211 
Q 384 513 384 1019 
Q 384 1609 779 1909 
Q 1175 2209 1959 2209 
L 2766 2209 
L 2766 2266 
Q 2766 2663 2505 2880 
Q 2244 3097 1772 3097 
Q 1472 3097 1187 3025 
Q 903 2953 641 2809 
L 641 3341 
Q 956 3463 1253 3523 
Q 1550 3584 1831 3584 
Q 2591 3584 2966 3190 
Q 3341 2797 3341 1997 
z
" transform="scale(0.015625)"/>
       <path id="DejaVuSans-207b" d="M 428 3359 
L 2950 3359 
L 2950 3063 
L 428 3063 
L 428 3359 
z
" transform="scale(0.015625)"/>
       <path id="DejaVuSans-b9" d="M 488 2431 
L 1125 2431 
L 1125 4341 
L 428 4213 
L 428 4575 
L 1147 4697 
L 1575 4697 
L 1575 2431 
L 2216 2431 
L 2216 2088 
L 488 2088 
L 488 2431 
z
" transform="scale(0.015625)"/>
       <path id="DejaVuSans-29" d="M 513 4856 
L 1013 4856 
Q 1481 4119 1714 3412 
Q 1947 2706 1947 2009 
Q 1947 1309 1714 600 
Q 1481 -109 1013 -844 
L 513 -844 
Q 928 -128 1133 580 
Q 1338 1288 1338 2009 
Q 1338 2731 1133 3434 
Q 928 4138 513 4856 
z
" transform="scale(0.015625)"/>
      </defs>
      <use xlink:href="#DejaVuSans-4e"/>
      <use xlink:href="#DejaVuSans-69" transform="translate(74.804688 0)"/>
      <use xlink:href="#DejaVuSans-74" transform="translate(102.587891 0)"/>
      <use xlink:href="#DejaVuSans-72" transform="translate(141.796875 0)"/>
      <use xlink:href="#DejaVuSans-6f" transform="translate(180.660156 0)"/>
      <use xlink:href="#DejaVuSans-67" transform="translate(241.841797 0)"/>
      <use xlink:href="#DejaVuSans-65" transform="translate(305.318359 0)"/>
      <use xlink:href="#DejaVuSans-6e" transform="translate(366.841797 0)"/>
      <use xlink:href="#DejaVuSans-20" transform="translate(430.220703 0)"/>
      <use xlink:href="#DejaVuSans-66" transform="translate(462.007812 0)"/>
      <use xlink:href="#DejaVuSans-65" transform="translate(497.212891 0)"/>
      <use xlink:href="#DejaVuSans-72" transform="translate(558.736328 0)"/>
      <use xlink:href="#DejaVuSans-74" transform="translate(599.849609 0)"/>
      <use xlink:href="#DejaVuSans-69" transform="translate(639.058594 0)"/>
      <use xlink:href="#DejaVuSans-6c" transform="translate(666.841797 0)"/>
      <use xlink:href="#DejaVuSans-69" transform="translate(694.625 0)"/>
      <use xlink:href="#DejaVuSans-7a" transform="translate(722.408203 0)"/>
      <use xlink:href="#DejaVuSans-65" transform="translate(774.898438 0)"/>
      <use xlink:href="#DejaVuSans-72" transform="translate(836.421875 0)"/>
      <use xlink:href="#DejaVuSans-20" transform="translate(877.535156 0)"/>
      <use xlink:href="#DejaVuSans-28" transform="translate(909.322266 0)"/>
      <use xlink:href="#DejaVuSans-6b" transform="translate(948.335938 0)"/>
      <use xlink:href="#DejaVuSans-67" transform="translate(1006.246094 0)"/>
      <use xlink:href="#DejaVuSans-20" transform="translate(1069.722656 0)"/>
      <use xlink:href="#DejaVuSans-68" transform="translate(1101.509766 0)"/>
      <use xlink:href="#DejaVuSans-61" transform="translate(1164.888672 0)"/>
      <use xlink:href="#DejaVuSans-207b" transform="translate(1226.167969 0)"/>
      <use xlink:href="#DejaVuSans-b9" transform="translate(1278.951172 0)"/>
      <use xlink:href="#DejaVuSans-29" transform="translate(1319.039062 0)"/>
     </g>
    </g>
   </g>
   <g id="matplotlib.axis_2">
    <g id="ytick_1">
     <g id="line2d_8">
      <path d="M 72.486875 490.191708 
L 793.836875 490.191708 
" clip-path="url(#p194e43f14c)" style="fill: none; stroke: #ffffff; stroke-linecap: round"/>
     </g>
     <g id="text_9">
      <!-- 2.5 -->
      <g style="fill: #262626" transform="translate(39.132188 495.890536) scale(0.15 -0.15)">
       <defs>
        <path id="DejaVuSans-2e" d="M 684 794 
L 1344 794 
L 1344 0 
L 684 0 
L 684 794 
z
" transform="scale(0.015625)"/>
       </defs>
       <use xlink:href="#DejaVuSans-32"/>
       <use xlink:href="#DejaVuSans-2e" transform="translate(63.623047 0)"/>
       <use xlink:href="#DejaVuSans-35" transform="translate(95.410156 0)"/>
      </g>
     </g>
    </g>
    <g id="ytick_2">
     <g id="line2d_9">
      <path d="M 72.486875 427.179136 
L 793.836875 427.179136 
" clip-path="url(#p194e43f14c)" style="fill: none; stroke: #ffffff; stroke-linecap: round"/>
     </g>
     <g id="text_10">
      <!-- 5.0 -->
      <g style="fill: #262626" transform="translate(39.132188 432.877964) scale(0.15 -0.15)">
       <use xlink:href="#DejaVuSans-35"/>
       <use xlink:href="#DejaVuSans-2e" transform="translate(63.623047 0)"/>
       <use xlink:href="#DejaVuSans-30" transform="translate(95.410156 0)"/>
      </g>
     </g>
    </g>
    <g id="ytick_3">
     <g id="line2d_10">
      <path d="M 72.486875 364.166564 
L 793.836875 364.166564 
" clip-path="url(#p194e43f14c)" style="fill: none; stroke: #ffffff; stroke-linecap: round"/>
     </g>
     <g id="text_11">
      <!-- 7.5 -->
      <g style="fill: #262626" transform="translate(39.132188 369.865392) scale(0.15 -0.15)">
       <defs>
        <path id="DejaVuSans-37" d="M 525 4666 
L 3525 4666 
L 3525 4397 
L 1831 0 
L 1172 0 
L 2766 4134 
L 525 4134 
L 525 4666 
z
" transform="scale(0.015625)"/>
       </defs>
       <use xlink:href="#DejaVuSans-37"/>
       <use xlink:href="#DejaVuSans-2e" transform="translate(63.623047 0)"/>
       <use xlink:href="#DejaVuSans-35" transform="translate(95.410156 0)"/>
      </g>
     </g>
    </g>
    <g id="ytick_4">
     <g id="line2d_11">
      <path d="M 72.486875 301.153992 
L 793.836875 301.153992 
" clip-path="url(#p194e43f14c)" style="fill: none; stroke: #ffffff; stroke-linecap: round"/>
     </g>
     <g id="text_12">
      <!-- 10.0 -->
      <g style="fill: #262626" transform="translate(29.588438 306.85282) scale(0.15 -0.15)">
       <use xlink:href="#DejaVuSans-31"/>
       <use xlink:href="#DejaVuSans-30" transform="translate(63.623047 0)"/>
       <use xlink:href="#DejaVuSans-2e" transform="translate(127.246094 0)"/>
       <use xlink:href="#DejaVuSans-30" transform="translate(159.033203 0)"/>
      </g>
     </g>
    </g>
    <g id="ytick_5">
     <g id="line2d_12">
      <path d="M 72.486875 238.14142 
L 793.836875 238.14142 
" clip-path="url(#p194e43f14c)" style="fill: none; stroke: #ffffff; stroke-linecap: round"/>
     </g>
     <g id="text_13">
      <!-- 12.5 -->
      <g style="fill: #262626" transform="translate(29.588438 243.840248) scale(0.15 -0.15)">
       <use xlink:href="#DejaVuSans-31"/>
       <use xlink:href="#DejaVuSans-32" transform="translate(63.623047 0)"/>
       <use xlink:href="#DejaVuSans-2e" transform="translate(127.246094 0)"/>
       <use xlink:href="#DejaVuSans-35" transform="translate(159.033203 0)"/>
      </g>
     </g>
    </g>
    <g id="ytick_6">
     <g id="line2d_13">
      <path d="M 72.486875 175.128848 
L 793.836875 175.128848 
" clip-path="url(#p194e43f14c)" style="fill: none; stroke: #ffffff; stroke-linecap: round"/>
     </g>
     <g id="text_14">
      <!-- 15.0 -->
      <g style="fill: #262626" transform="translate(29.588438 180.827676) scale(0.15 -0.15)">
       <use xlink:href="#DejaVuSans-31"/>
       <use xlink:href="#DejaVuSans-35" transform="translate(63.623047 0)"/>
       <use xlink:href="#DejaVuSans-2e" transform="translate(127.246094 0)"/>
       <use xlink:href="#DejaVuSans-30" transform="translate(159.033203 0)"/>
      </g>
     </g>
    </g>
    <g id="ytick_7">
     <g id="line2d_14">
      <path d="M 72.486875 112.116276 
L 793.836875 112.116276 
" clip-path="url(#p194e43f14c)" style="fill: none; stroke: #ffffff; stroke-linecap: round"/>
     </g>
     <g id="text_15">
      <!-- 17.5 -->
      <g style="fill: #262626" transform="translate(29.588438 117.815104) scale(0.15 -0.15)">
       <use xlink:href="#DejaVuSans-31"/>
       <use xlink:href="#DejaVuSans-37" transform="translate(63.623047 0)"/>
       <use xlink:href="#DejaVuSans-2e" transform="translate(127.246094 0)"/>
       <use xlink:href="#DejaVuSans-35" transform="translate(159.033203 0)"/>
      </g>
     </g>
    </g>
    <g id="ytick_8">
     <g id="line2d_15">
      <path d="M 72.486875 49.103704 
L 793.836875 49.103704 
" clip-path="url(#p194e43f14c)" style="fill: none; stroke: #ffffff; stroke-linecap: round"/>
     </g>
     <g id="text_16">
      <!-- 20.0 -->
      <g style="fill: #262626" transform="translate(29.588438 54.802532) scale(0.15 -0.15)">
       <use xlink:href="#DejaVuSans-32"/>
       <use xlink:href="#DejaVuSans-30" transform="translate(63.623047 0)"/>
       <use xlink:href="#DejaVuSans-2e" transform="translate(127.246094 0)"/>
       <use xlink:href="#DejaVuSans-30" transform="translate(159.033203 0)"/>
      </g>
     </g>
    </g>
    <g id="text_17">
     <!-- 101 years average biomass (Mg ha⁻¹) -->
     <g style="fill: #262626" transform="translate(21.637031 438.959453) rotate(-90) scale(0.19 -0.19)">
      <defs>
       <path id="DejaVuSans-79" d="M 2059 -325 
Q 1816 -950 1584 -1140 
Q 1353 -1331 966 -1331 
L 506 -1331 
L 506 -850 
L 844 -850 
Q 1081 -850 1212 -737 
Q 1344 -625 1503 -206 
L 1606 56 
L 191 3500 
L 800 3500 
L 1894 763 
L 2988 3500 
L 3597 3500 
L 2059 -325 
z
" transform="scale(0.015625)"/>
       <path id="DejaVuSans-73" d="M 2834 3397 
L 2834 2853 
Q 2591 2978 2328 3040 
Q 2066 3103 1784 3103 
Q 1356 3103 1142 2972 
Q 928 2841 928 2578 
Q 928 2378 1081 2264 
Q 1234 2150 1697 2047 
L 1894 2003 
Q 2506 1872 2764 1633 
Q 3022 1394 3022 966 
Q 3022 478 2636 193 
Q 2250 -91 1575 -91 
Q 1294 -91 989 -36 
Q 684 19 347 128 
L 347 722 
Q 666 556 975 473 
Q 1284 391 1588 391 
Q 1994 391 2212 530 
Q 2431 669 2431 922 
Q 2431 1156 2273 1281 
Q 2116 1406 1581 1522 
L 1381 1569 
Q 847 1681 609 1914 
Q 372 2147 372 2553 
Q 372 3047 722 3315 
Q 1072 3584 1716 3584 
Q 2034 3584 2315 3537 
Q 2597 3491 2834 3397 
z
" transform="scale(0.015625)"/>
       <path id="DejaVuSans-76" d="M 191 3500 
L 800 3500 
L 1894 563 
L 2988 3500 
L 3597 3500 
L 2284 0 
L 1503 0 
L 191 3500 
z
" transform="scale(0.015625)"/>
       <path id="DejaVuSans-62" d="M 3116 1747 
Q 3116 2381 2855 2742 
Q 2594 3103 2138 3103 
Q 1681 3103 1420 2742 
Q 1159 2381 1159 1747 
Q 1159 1113 1420 752 
Q 1681 391 2138 391 
Q 2594 391 2855 752 
Q 3116 1113 3116 1747 
z
M 1159 2969 
Q 1341 3281 1617 3432 
Q 1894 3584 2278 3584 
Q 2916 3584 3314 3078 
Q 3713 2572 3713 1747 
Q 3713 922 3314 415 
Q 2916 -91 2278 -91 
Q 1894 -91 1617 61 
Q 1341 213 1159 525 
L 1159 0 
L 581 0 
L 581 4863 
L 1159 4863 
L 1159 2969 
z
" transform="scale(0.015625)"/>
       <path id="DejaVuSans-6d" d="M 3328 2828 
Q 3544 3216 3844 3400 
Q 4144 3584 4550 3584 
Q 5097 3584 5394 3201 
Q 5691 2819 5691 2113 
L 5691 0 
L 5113 0 
L 5113 2094 
Q 5113 2597 4934 2840 
Q 4756 3084 4391 3084 
Q 3944 3084 3684 2787 
Q 3425 2491 3425 1978 
L 3425 0 
L 2847 0 
L 2847 2094 
Q 2847 2600 2669 2842 
Q 2491 3084 2119 3084 
Q 1678 3084 1418 2786 
Q 1159 2488 1159 1978 
L 1159 0 
L 581 0 
L 581 3500 
L 1159 3500 
L 1159 2956 
Q 1356 3278 1631 3431 
Q 1906 3584 2284 3584 
Q 2666 3584 2933 3390 
Q 3200 3197 3328 2828 
z
" transform="scale(0.015625)"/>
       <path id="DejaVuSans-4d" d="M 628 4666 
L 1569 4666 
L 2759 1491 
L 3956 4666 
L 4897 4666 
L 4897 0 
L 4281 0 
L 4281 4097 
L 3078 897 
L 2444 897 
L 1241 4097 
L 1241 0 
L 628 0 
L 628 4666 
z
" transform="scale(0.015625)"/>
      </defs>
      <use xlink:href="#DejaVuSans-31"/>
      <use xlink:href="#DejaVuSans-30" transform="translate(63.623047 0)"/>
      <use xlink:href="#DejaVuSans-31" transform="translate(127.246094 0)"/>
      <use xlink:href="#DejaVuSans-20" transform="translate(190.869141 0)"/>
      <use xlink:href="#DejaVuSans-79" transform="translate(222.65625 0)"/>
      <use xlink:href="#DejaVuSans-65" transform="translate(281.835938 0)"/>
      <use xlink:href="#DejaVuSans-61" transform="translate(343.359375 0)"/>
      <use xlink:href="#DejaVuSans-72" transform="translate(404.638672 0)"/>
      <use xlink:href="#DejaVuSans-73" transform="translate(445.751953 0)"/>
      <use xlink:href="#DejaVuSans-20" transform="translate(497.851562 0)"/>
      <use xlink:href="#DejaVuSans-61" transform="translate(529.638672 0)"/>
      <use xlink:href="#DejaVuSans-76" transform="translate(590.917969 0)"/>
      <use xlink:href="#DejaVuSans-65" transform="translate(650.097656 0)"/>
      <use xlink:href="#DejaVuSans-72" transform="translate(711.621094 0)"/>
      <use xlink:href="#DejaVuSans-61" transform="translate(752.734375 0)"/>
      <use xlink:href="#DejaVuSans-67" transform="translate(814.013672 0)"/>
      <use xlink:href="#DejaVuSans-65" transform="translate(877.490234 0)"/>
      <use xlink:href="#DejaVuSans-20" transform="translate(939.013672 0)"/>
      <use xlink:href="#DejaVuSans-62" transform="translate(970.800781 0)"/>
      <use xlink:href="#DejaVuSans-69" transform="translate(1034.277344 0)"/>
      <use xlink:href="#DejaVuSans-6f" transform="translate(1062.060547 0)"/>
      <use xlink:href="#DejaVuSans-6d" transform="translate(1123.242188 0)"/>
      <use xlink:href="#DejaVuSans-61" transform="translate(1220.654297 0)"/>
      <use xlink:href="#DejaVuSans-73" transform="translate(1281.933594 0)"/>
      <use xlink:href="#DejaVuSans-73" transform="translate(1334.033203 0)"/>
      <use xlink:href="#DejaVuSans-20" transform="translate(1386.132812 0)"/>
      <use xlink:href="#DejaVuSans-28" transform="translate(1417.919922 0)"/>
      <use xlink:href="#DejaVuSans-4d" transform="translate(1456.933594 0)"/>
      <use xlink:href="#DejaVuSans-67" transform="translate(1543.212891 0)"/>
      <use xlink:href="#DejaVuSans-20" transform="translate(1606.689453 0)"/>
      <use xlink:href="#DejaVuSans-68" transform="translate(1638.476562 0)"/>
      <use xlink:href="#DejaVuSans-61" transform="translate(1701.855469 0)"/>
      <use xlink:href="#DejaVuSans-207b" transform="translate(1763.134766 0)"/>
      <use xlink:href="#DejaVuSans-b9" transform="translate(1815.917969 0)"/>
      <use xlink:href="#DejaVuSans-29" transform="translate(1856.005859 0)"/>
     </g>
    </g>
   </g>
   <g id="line2d_16">
    <path d="M 105.275511 487.775455 
L 113.576432 470.336657 
L 121.877353 455.229781 
L 130.178273 441.369728 
L 138.479194 428.346829 
L 146.780114 415.781332 
L 155.081035 403.298561 
L 163.381956 390.90192 
L 171.682876 378.506486 
L 179.983797 366.004698 
L 188.284717 353.51517 
L 196.585638 340.976802 
L 204.886559 328.388383 
L 213.187479 315.783237 
L 221.4884 303.052945 
L 229.78932 290.165135 
L 238.090241 277.351347 
L 246.391162 264.449013 
L 254.692082 251.583346 
L 262.993003 238.698678 
L 271.293923 225.955566 
L 279.594844 213.244633 
L 287.895765 200.88459 
L 296.196685 188.85059 
L 304.497606 177.429774 
L 312.798526 166.543468 
L 321.099447 156.217525 
L 329.400368 146.481706 
L 337.701288 137.242731 
L 346.002209 128.507175 
L 354.303129 120.316965 
L 362.60405 112.618182 
L 370.904971 105.468613 
L 379.205891 98.669075 
L 387.506812 92.502482 
L 395.807732 86.741029 
L 404.108653 81.180407 
L 412.409574 75.987937 
L 420.710494 71.284062 
L 429.011415 66.875873 
L 437.312335 62.660182 
L 443.219739 59.851651 
L 445.613256 58.752412 
L 453.914176 55.098292 
L 462.215097 51.60462 
L 470.516018 48.326237 
L 478.816938 45.49122 
L 487.117859 42.958165 
L 495.418779 40.667763 
L 503.7197 38.548404 
L 512.020621 36.650866 
L 520.321541 34.981224 
L 528.622462 33.61893 
L 536.923382 32.542108 
L 545.224303 31.834085 
L 553.525224 31.29247 
L 561.826144 30.927887 
L 570.127065 30.621966 
L 578.427985 30.430122 
L 586.728906 30.23092 
L 595.029827 30.117283 
L 603.330747 30.116307 
L 611.631668 30.090698 
L 619.932588 30.099835 
L 628.233509 30.084545 
L 636.53443 30.114666 
L 644.83535 30.161059 
L 653.136271 30.173812 
L 661.437191 30.197673 
L 669.738112 30.242254 
L 678.039033 30.261405 
L 686.339953 30.270066 
L 694.640874 30.280372 
L 702.941794 30.294599 
L 711.242715 30.308763 
L 719.543636 30.321019 
L 727.844556 30.330886 
L 736.145477 30.336329 
L 744.446397 30.339437 
L 752.747318 30.342206 
L 761.048239 30.344974 
" clip-path="url(#p194e43f14c)" style="fill: none; stroke: #1f77b4; stroke-width: 1.5; stroke-linecap: round"/>
   </g>
   <g id="line2d_17">
    <path d="M 105.275511 486.876457 
L 113.576432 469.542274 
L 121.877353 454.41089 
L 130.178273 440.544107 
L 138.479194 427.455953 
L 146.780114 414.828367 
L 155.081035 402.246004 
L 163.381956 389.639514 
L 171.682876 377.077183 
L 179.983797 364.455323 
L 188.284717 351.795206 
L 196.585638 339.088504 
L 204.886559 326.305791 
L 213.187479 313.488332 
L 221.4884 300.543689 
L 229.78932 287.469353 
L 238.090241 274.360422 
L 246.391162 261.323658 
L 254.692082 248.224105 
L 262.993003 235.182536 
L 271.293923 222.108473 
L 279.594844 209.102238 
L 287.895765 196.470666 
L 296.196685 184.265986 
L 304.497606 172.701913 
L 312.798526 161.677389 
L 321.099447 151.406335 
L 329.400368 141.890552 
L 337.701288 132.925524 
L 346.002209 124.438694 
L 354.303129 116.413228 
L 362.60405 109.031537 
L 370.904971 102.173376 
L 379.205891 95.809285 
L 387.506812 89.993368 
L 395.807732 84.482318 
L 404.108653 79.27673 
L 412.409574 74.451481 
L 420.710494 69.85906 
L 429.011415 65.528729 
L 437.312335 61.474455 
L 443.219739 58.747178 
L 445.613256 57.677989 
L 453.914176 54.058625 
L 462.215097 50.772133 
L 470.516018 47.849104 
L 478.816938 45.24947 
L 487.117859 42.933111 
L 495.418779 40.823436 
L 503.7197 38.964865 
L 512.020621 37.209455 
L 520.321541 35.759345 
L 528.622462 34.800567 
L 536.923382 33.980213 
L 545.224303 33.41522 
L 553.525224 33.029122 
L 561.826144 32.741333 
L 570.127065 32.492637 
L 578.427985 32.352933 
L 586.728906 32.252719 
L 595.029827 32.181471 
L 603.330747 32.118991 
L 611.631668 32.035679 
L 619.932588 32.035979 
L 628.233509 32.068476 
L 636.53443 32.090899 
L 644.83535 32.118843 
L 653.136271 32.128469 
L 661.437191 32.118693 
L 669.738112 32.122527 
L 678.039033 32.139267 
L 686.339953 32.153258 
L 694.640874 32.168921 
L 702.941794 32.149136 
L 711.242715 32.144818 
L 719.543636 32.149303 
L 727.844556 32.151825 
L 736.145477 32.155133 
L 744.446397 32.158006 
L 752.747318 32.160618 
L 761.048239 32.162873 
" clip-path="url(#p194e43f14c)" style="fill: none; stroke: #ff7f0e; stroke-width: 1.5; stroke-linecap: round"/>
   </g>
   <g id="line2d_18">
    <path d="M 105.275511 486.011617 
L 113.576432 468.894891 
L 121.877353 453.873286 
L 130.178273 440.058389 
L 138.479194 427.040362 
L 146.780114 414.409062 
L 155.081035 401.735678 
L 163.381956 389.085682 
L 171.682876 376.418016 
L 179.983797 363.732684 
L 188.284717 350.983113 
L 196.585638 338.165166 
L 204.886559 325.231229 
L 213.187479 312.337981 
L 221.4884 299.29189 
L 229.78932 286.146558 
L 238.090241 272.920285 
L 246.391162 259.698476 
L 254.692082 246.461925 
L 262.993003 233.285875 
L 271.293923 220.051091 
L 279.594844 206.983305 
L 287.895765 194.300929 
L 296.196685 182.010412 
L 304.497606 170.435982 
L 312.798526 159.515403 
L 321.099447 149.337369 
L 329.400368 139.827868 
L 337.701288 130.847084 
L 346.002209 122.449886 
L 354.303129 114.675344 
L 362.60405 107.467342 
L 370.904971 100.773158 
L 379.205891 94.775636 
L 387.506812 89.223964 
L 395.807732 83.906406 
L 404.108653 78.829347 
L 412.409574 74.030602 
L 420.710494 69.554388 
L 429.011415 65.416856 
L 437.312335 61.48956 
L 443.219739 58.787214 
L 445.613256 57.760048 
L 453.914176 54.388208 
L 462.215097 51.332356 
L 470.516018 48.610037 
L 478.816938 46.132884 
L 487.117859 43.993573 
L 495.418779 42.034594 
L 503.7197 40.164355 
L 512.020621 38.642112 
L 520.321541 37.518608 
L 528.622462 36.683178 
L 536.923382 36.067067 
L 545.224303 35.524473 
L 553.525224 35.117452 
L 561.826144 34.770652 
L 570.127065 34.535441 
L 578.427985 34.413176 
L 586.728906 34.306457 
L 595.029827 34.226751 
L 603.330747 34.221787 
L 611.631668 34.262895 
L 619.932588 34.284338 
L 628.233509 34.301438 
L 636.53443 34.293631 
L 644.83535 34.308666 
L 653.136271 34.31953 
L 661.437191 34.327494 
L 669.738112 34.333969 
L 678.039033 34.339425 
L 686.339953 34.356909 
L 694.640874 34.348131 
L 702.941794 34.350051 
L 711.242715 34.351409 
L 719.543636 34.352454 
L 727.844556 34.352971 
L 736.145477 34.353475 
L 744.446397 34.353988 
L 752.747318 34.345529 
L 761.048239 34.345844 
" clip-path="url(#p194e43f14c)" style="fill: none; stroke: #2ca02c; stroke-width: 1.5; stroke-linecap: round"/>
   </g>
   <g id="line2d_19">
    <path d="M 105.275511 485.160845 
L 113.576432 468.254855 
L 121.877353 453.375603 
L 130.178273 439.627453 
L 138.479194 426.598871 
L 146.780114 413.864042 
L 155.081035 401.096053 
L 163.381956 388.41051 
L 171.682876 375.680094 
L 179.983797 362.935892 
L 188.284717 350.160648 
L 196.585638 337.286976 
L 204.886559 324.417813 
L 213.187479 311.488626 
L 221.4884 298.430048 
L 229.78932 285.171832 
L 238.090241 271.830886 
L 246.391162 258.549081 
L 254.692082 245.383729 
L 262.993003 232.124065 
L 271.293923 219.002678 
L 279.594844 205.996548 
L 287.895765 193.35389 
L 296.196685 181.167316 
L 304.497606 169.637307 
L 312.798526 158.71291 
L 321.099447 148.514335 
L 329.400368 138.977363 
L 337.701288 130.101814 
L 346.002209 121.941486 
L 354.303129 114.453532 
L 362.60405 107.502426 
L 370.904971 101.102029 
L 379.205891 95.330632 
L 387.506812 89.87233 
L 395.807732 84.579422 
L 404.108653 79.600738 
L 412.409574 74.92374 
L 420.710494 70.567664 
L 429.011415 66.56208 
L 437.312335 62.734594 
L 443.219739 60.188179 
L 445.613256 59.227424 
L 453.914176 55.95245 
L 462.215097 52.928735 
L 470.516018 50.24832 
L 478.816938 47.938741 
L 487.117859 45.806398 
L 495.418779 43.877895 
L 503.7197 42.220362 
L 512.020621 40.94719 
L 520.321541 39.97242 
L 528.622462 39.240474 
L 536.923382 38.682134 
L 545.224303 38.231539 
L 553.525224 37.893716 
L 561.826144 37.635528 
L 570.127065 37.490354 
L 578.427985 37.37862 
L 586.728906 37.325262 
L 595.029827 37.330173 
L 603.330747 37.337142 
L 611.631668 37.341856 
L 619.932588 37.335886 
L 628.233509 37.33839 
L 636.53443 37.339074 
L 644.83535 37.34014 
L 653.136271 37.341012 
L 661.437191 37.341785 
L 669.738112 37.342243 
L 678.039033 37.342344 
L 686.339953 37.342344 
L 694.640874 37.342344 
L 702.941794 37.342344 
L 711.242715 37.342344 
L 719.543636 37.342344 
L 727.844556 37.342344 
L 736.145477 37.342344 
L 744.446397 37.342344 
L 752.747318 37.342344 
L 761.048239 37.342344 
" clip-path="url(#p194e43f14c)" style="fill: none; stroke: #d62728; stroke-width: 1.5; stroke-linecap: round"/>
   </g>
   <g id="line2d_20"/>
   <g id="line2d_21"/>
   <g id="line2d_22"/>
   <g id="line2d_23"/>
   <g id="patch_3">
    <path d="M 72.486875 510.66 
L 72.486875 7.2 
" style="fill: none; stroke: #ffffff; stroke-width: 1.25; stroke-linejoin: miter; stroke-linecap: square"/>
   </g>
   <g id="patch_4">
    <path d="M 72.486875 510.66 
L 793.836875 510.66 
" style="fill: none; stroke: #ffffff; stroke-width: 1.25; stroke-linejoin: miter; stroke-linecap: square"/>
   </g>
  </g>
  <g id="legend_1">
   <g id="text_18">
    <!-- Residue -->
    <g style="fill: #262626" transform="translate(747.263906 253.152187) scale(0.12 -0.12)">
     <defs>
      <path id="DejaVuSans-52" d="M 2841 2188 
Q 3044 2119 3236 1894 
Q 3428 1669 3622 1275 
L 4263 0 
L 3584 0 
L 2988 1197 
Q 2756 1666 2539 1819 
Q 2322 1972 1947 1972 
L 1259 1972 
L 1259 0 
L 628 0 
L 628 4666 
L 2053 4666 
Q 2853 4666 3247 4331 
Q 3641 3997 3641 3322 
Q 3641 2881 3436 2590 
Q 3231 2300 2841 2188 
z
M 1259 4147 
L 1259 2491 
L 2053 2491 
Q 2509 2491 2742 2702 
Q 2975 2913 2975 3322 
Q 2975 3731 2742 3939 
Q 2509 4147 2053 4147 
L 1259 4147 
z
" transform="scale(0.015625)"/>
      <path id="DejaVuSans-64" d="M 2906 2969 
L 2906 4863 
L 3481 4863 
L 3481 0 
L 2906 0 
L 2906 525 
Q 2725 213 2448 61 
Q 2172 -91 1784 -91 
Q 1150 -91 751 415 
Q 353 922 353 1747 
Q 353 2572 751 3078 
Q 1150 3584 1784 3584 
Q 2172 3584 2448 3432 
Q 2725 3281 2906 2969 
z
M 947 1747 
Q 947 1113 1208 752 
Q 1469 391 1925 391 
Q 2381 391 2643 752 
Q 2906 1113 2906 1747 
Q 2906 2381 2643 2742 
Q 2381 3103 1925 3103 
Q 1469 3103 1208 2742 
Q 947 2381 947 1747 
z
" transform="scale(0.015625)"/>
      <path id="DejaVuSans-75" d="M 544 1381 
L 544 3500 
L 1119 3500 
L 1119 1403 
Q 1119 906 1312 657 
Q 1506 409 1894 409 
Q 2359 409 2629 706 
Q 2900 1003 2900 1516 
L 2900 3500 
L 3475 3500 
L 3475 0 
L 2900 0 
L 2900 538 
Q 2691 219 2414 64 
Q 2138 -91 1772 -91 
Q 1169 -91 856 284 
Q 544 659 544 1381 
z
M 1991 3584 
L 1991 3584 
z
" transform="scale(0.015625)"/>
     </defs>
     <use xlink:href="#DejaVuSans-52"/>
     <use xlink:href="#DejaVuSans-65" transform="translate(64.982422 0)"/>
     <use xlink:href="#DejaVuSans-73" transform="translate(126.505859 0)"/>
     <use xlink:href="#DejaVuSans-69" transform="translate(178.605469 0)"/>
     <use xlink:href="#DejaVuSans-64" transform="translate(206.388672 0)"/>
     <use xlink:href="#DejaVuSans-75" transform="translate(269.865234 0)"/>
     <use xlink:href="#DejaVuSans-65" transform="translate(333.244141 0)"/>
    </g>
   </g>
   <g id="line2d_24">
    <path d="M 743.304688 265.656094 
L 754.304688 265.656094 
L 765.304688 265.656094 
" style="fill: none; stroke: #1f77b4; stroke-width: 1.5; stroke-linecap: round"/>
   </g>
   <g id="text_19">
    <!-- 0.1 -->
    <g style="fill: #262626" transform="translate(774.104687 269.506094) scale(0.11 -0.11)">
     <use xlink:href="#DejaVuSans-30"/>
     <use xlink:href="#DejaVuSans-2e" transform="translate(63.623047 0)"/>
     <use xlink:href="#DejaVuSans-31" transform="translate(95.410156 0)"/>
    </g>
   </g>
   <g id="line2d_25">
    <path d="M 743.304688 281.802031 
L 754.304688 281.802031 
L 765.304688 281.802031 
" style="fill: none; stroke: #ff7f0e; stroke-width: 1.5; stroke-linecap: round"/>
   </g>
   <g id="text_20">
    <!-- 0.37 -->
    <g style="fill: #262626" transform="translate(774.104687 285.652031) scale(0.11 -0.11)">
     <use xlink:href="#DejaVuSans-30"/>
     <use xlink:href="#DejaVuSans-2e" transform="translate(63.623047 0)"/>
     <use xlink:href="#DejaVuSans-33" transform="translate(95.410156 0)"/>
     <use xlink:href="#DejaVuSans-37" transform="translate(159.033203 0)"/>
    </g>
   </g>
   <g id="line2d_26">
    <path d="M 743.304688 297.947969 
L 754.304688 297.947969 
L 765.304688 297.947969 
" style="fill: none; stroke: #2ca02c; stroke-width: 1.5; stroke-linecap: round"/>
   </g>
   <g id="text_21">
    <!-- 0.63 -->
    <g style="fill: #262626" transform="translate(774.104687 301.797969) scale(0.11 -0.11)">
     <defs>
      <path id="DejaVuSans-36" d="M 2113 2584 
Q 1688 2584 1439 2293 
Q 1191 2003 1191 1497 
Q 1191 994 1439 701 
Q 1688 409 2113 409 
Q 2538 409 2786 701 
Q 3034 994 3034 1497 
Q 3034 2003 2786 2293 
Q 2538 2584 2113 2584 
z
M 3366 4563 
L 3366 3988 
Q 3128 4100 2886 4159 
Q 2644 4219 2406 4219 
Q 1781 4219 1451 3797 
Q 1122 3375 1075 2522 
Q 1259 2794 1537 2939 
Q 1816 3084 2150 3084 
Q 2853 3084 3261 2657 
Q 3669 2231 3669 1497 
Q 3669 778 3244 343 
Q 2819 -91 2113 -91 
Q 1303 -91 875 529 
Q 447 1150 447 2328 
Q 447 3434 972 4092 
Q 1497 4750 2381 4750 
Q 2619 4750 2861 4703 
Q 3103 4656 3366 4563 
z
" transform="scale(0.015625)"/>
     </defs>
     <use xlink:href="#DejaVuSans-30"/>
     <use xlink:href="#DejaVuSans-2e" transform="translate(63.623047 0)"/>
     <use xlink:href="#DejaVuSans-36" transform="translate(95.410156 0)"/>
     <use xlink:href="#DejaVuSans-33" transform="translate(159.033203 0)"/>
    </g>
   </g>
   <g id="line2d_27">
    <path d="M 743.304688 314.093906 
L 754.304688 314.093906 
L 765.304688 314.093906 
" style="fill: none; stroke: #d62728; stroke-width: 1.5; stroke-linecap: round"/>
   </g>
   <g id="text_22">
    <!-- 0.9 -->
    <g style="fill: #262626" transform="translate(774.104687 317.943906) scale(0.11 -0.11)">
     <defs>
      <path id="DejaVuSans-39" d="M 703 97 
L 703 672 
Q 941 559 1184 500 
Q 1428 441 1663 441 
Q 2288 441 2617 861 
Q 2947 1281 2994 2138 
Q 2813 1869 2534 1725 
Q 2256 1581 1919 1581 
Q 1219 1581 811 2004 
Q 403 2428 403 3163 
Q 403 3881 828 4315 
Q 1253 4750 1959 4750 
Q 2769 4750 3195 4129 
Q 3622 3509 3622 2328 
Q 3622 1225 3098 567 
Q 2575 -91 1691 -91 
Q 1453 -91 1209 -44 
Q 966 3 703 97 
z
M 1959 2075 
Q 2384 2075 2632 2365 
Q 2881 2656 2881 3163 
Q 2881 3666 2632 3958 
Q 2384 4250 1959 4250 
Q 1534 4250 1286 3958 
Q 1038 3666 1038 3163 
Q 1038 2656 1286 2365 
Q 1534 2075 1959 2075 
z
" transform="scale(0.015625)"/>
     </defs>
     <use xlink:href="#DejaVuSans-30"/>
     <use xlink:href="#DejaVuSans-2e" transform="translate(63.623047 0)"/>
     <use xlink:href="#DejaVuSans-39" transform="translate(95.410156 0)"/>
    </g>
   </g>
  </g>
 </g>
 <defs>
  <clipPath id="p194e43f14c">
   <rect x="72.486875" y="7.2" width="721.35" height="503.46"/>
  </clipPath>
 </defs>
</svg>
