<?xml version="1.0" encoding="utf-8" standalone="no"?>
<!DOCTYPE svg PUBLIC "-//W3C//DTD SVG 1.1//EN"
  "http://www.w3.org/Graphics/SVG/1.1/DTD/svg11.dtd">
<svg xmlns:xlink="http://www.w3.org/1999/xlink" width="627.804375pt" height="563.368125pt" viewBox="0 0 627.804375 563.368125" xmlns="http://www.w3.org/2000/svg" version="1.1">
 <metadata>
  <rdf:RDF xmlns:dc="http://purl.org/dc/elements/1.1/" xmlns:cc="http://creativecommons.org/ns#" xmlns:rdf="http://www.w3.org/1999/02/22-rdf-syntax-ns#">
   <cc:Work>
    <dc:type rdf:resource="http://purl.org/dc/dcmitype/StillImage"/>
    <dc:date>2026-01-06T16:56:16.544202</dc:date>
    <dc:format>image/svg+xml</dc:format>
    <dc:creator>
     <cc:Agent>
      <dc:title>Matplotlib v3.10.6, https://matplotlib.org/</dc:title>
     </cc:Agent>
    </dc:creator>
   </cc:Work>
  </rdf:RDF>
 </metadata>
 <defs>
  <style type="text/css">*{stroke-linejoin: round; stroke-linecap: butt}</style>
 </defs>
 <g id="figure_1">
  <g id="patch_1">
   <path d="M -0 563.368125 
L 627.804375 563.368125 
L 627.804375 0 
L -0 0 
z
" style="fill: #ffffff"/>
  </g>
  <g id="axes_1">
   <g id="patch_2">
    <path d="M 97.434375 502.02 
L 620.604375 502.02 
L 620.604375 7.2 
L 97.434375 7.2 
z
" style="fill: #eaeaf2"/>
   </g>
   <g id="matplotlib.axis_1">
    <g id="xtick_1">
     <g id="line2d_1">
      <path d="M 97.434375 502.02 
L 97.434375 7.2 
" clip-path="url(#pdc3b2002fc)" style="fill: none; stroke: #ffffff; stroke-linecap: round"/>
     </g>
     <g id="text_1">
      <!-- 1900 -->
      <g style="fill: #262626" transform="translate(75.801875 524.437344) scale(0.17 -0.17)">
       <defs>
        <path id="DejaVuSans-31" d="M 794 531 
L 1825 531 
L 1825 4091 
L 703 3866 
L 703 4441 
L 1819 4666 
L 2450 4666 
L 2450 531 
L 3481 531 
L 3481 0 
L 794 0 
L 794 531 
z
" transform="scale(0.015625)"/>
        <path id="DejaVuSans-39" d="M 703 97 
L 703 672 
Q 941 559 1184 500 
Q 1428 441 1663 441 
Q 2288 441 2617 861 
Q 2947 1281 2994 2138 
Q 2813 1869 2534 1725 
Q 2256 1581 1919 1581 
Q 1219 1581 811 2004 
Q 403 2428 403 3163 
Q 403 3881 828 4315 
Q 1253 4750 1959 4750 
Q 2769 4750 3195 4129 
Q 3622 3509 3622 2328 
Q 3622 1225 3098 567 
Q 2575 -91 1691 -91 
Q 1453 -91 1209 -44 
Q 966 3 703 97 
z
M 1959 2075 
Q 2384 2075 2632 2365 
Q 2881 2656 2881 3163 
Q 2881 3666 2632 3958 
Q 2384 4250 1959 4250 
Q 1534 4250 1286 3958 
Q 1038 3666 1038 3163 
Q 1038 2656 1286 2365 
Q 1534 2075 1959 2075 
z
" transform="scale(0.015625)"/>
        <path id="DejaVuSans-30" d="M 2034 4250 
Q 1547 4250 1301 3770 
Q 1056 3291 1056 2328 
Q 1056 1369 1301 889 
Q 1547 409 2034 409 
Q 2525 409 2770 889 
Q 3016 1369 3016 2328 
Q 3016 3291 2770 3770 
Q 2525 4250 2034 4250 
z
M 2034 4750 
Q 2819 4750 3233 4129 
Q 3647 3509 3647 2328 
Q 3647 1150 3233 529 
Q 2819 -91 2034 -91 
Q 1250 -91 836 529 
Q 422 1150 422 2328 
Q 422 3509 836 4129 
Q 1250 4750 2034 4750 
z
" transform="scale(0.015625)"/>
       </defs>
       <use xlink:href="#DejaVuSans-31"/>
       <use xlink:href="#DejaVuSans-39" transform="translate(63.623047 0)"/>
       <use xlink:href="#DejaVuSans-30" transform="translate(127.246094 0)"/>
       <use xlink:href="#DejaVuSans-30" transform="translate(190.869141 0)"/>
      </g>
     </g>
    </g>
    <g id="xtick_2">
     <g id="line2d_2">
      <path d="M 192.556193 502.02 
L 192.556193 7.2 
" clip-path="url(#pdc3b2002fc)" style="fill: none; stroke: #ffffff; stroke-linecap: round"/>
     </g>
     <g id="text_2">
      <!-- 1920 -->
      <g style="fill: #262626" transform="translate(170.923693 524.437344) scale(0.17 -0.17)">
       <defs>
        <path id="DejaVuSans-32" d="M 1228 531 
L 3431 531 
L 3431 0 
L 469 0 
L 469 531 
Q 828 903 1448 1529 
Q 2069 2156 2228 2338 
Q 2531 2678 2651 2914 
Q 2772 3150 2772 3378 
Q 2772 3750 2511 3984 
Q 2250 4219 1831 4219 
Q 1534 4219 1204 4116 
Q 875 4013 500 3803 
L 500 4441 
Q 881 4594 1212 4672 
Q 1544 4750 1819 4750 
Q 2544 4750 2975 4387 
Q 3406 4025 3406 3419 
Q 3406 3131 3298 2873 
Q 3191 2616 2906 2266 
Q 2828 2175 2409 1742 
Q 1991 1309 1228 531 
z
" transform="scale(0.015625)"/>
       </defs>
       <use xlink:href="#DejaVuSans-31"/>
       <use xlink:href="#DejaVuSans-39" transform="translate(63.623047 0)"/>
       <use xlink:href="#DejaVuSans-32" transform="translate(127.246094 0)"/>
       <use xlink:href="#DejaVuSans-30" transform="translate(190.869141 0)"/>
      </g>
     </g>
    </g>
    <g id="xtick_3">
     <g id="line2d_3">
      <path d="M 287.678011 502.02 
L 287.678011 7.2 
" clip-path="url(#pdc3b2002fc)" style="fill: none; stroke: #ffffff; stroke-linecap: round"/>
     </g>
     <g id="text_3">
      <!-- 1940 -->
      <g style="fill: #262626" transform="translate(266.045511 524.437344) scale(0.17 -0.17)">
       <defs>
        <path id="DejaVuSans-34" d="M 2419 4116 
L 825 1625 
L 2419 1625 
L 2419 4116 
z
M 2253 4666 
L 3047 4666 
L 3047 1625 
L 3713 1625 
L 3713 1100 
L 3047 1100 
L 3047 0 
L 2419 0 
L 2419 1100 
L 313 1100 
L 313 1709 
L 2253 4666 
z
" transform="scale(0.015625)"/>
       </defs>
       <use xlink:href="#DejaVuSans-31"/>
       <use xlink:href="#DejaVuSans-39" transform="translate(63.623047 0)"/>
       <use xlink:href="#DejaVuSans-34" transform="translate(127.246094 0)"/>
       <use xlink:href="#DejaVuSans-30" transform="translate(190.869141 0)"/>
      </g>
     </g>
    </g>
    <g id="xtick_4">
     <g id="line2d_4">
      <path d="M 382.79983 502.02 
L 382.79983 7.2 
" clip-path="url(#pdc3b2002fc)" style="fill: none; stroke: #ffffff; stroke-linecap: round"/>
     </g>
     <g id="text_4">
      <!-- 1960 -->
      <g style="fill: #262626" transform="translate(361.16733 524.437344) scale(0.17 -0.17)">
       <defs>
        <path id="DejaVuSans-36" d="M 2113 2584 
Q 1688 2584 1439 2293 
Q 1191 2003 1191 1497 
Q 1191 994 1439 701 
Q 1688 409 2113 409 
Q 2538 409 2786 701 
Q 3034 994 3034 1497 
Q 3034 2003 2786 2293 
Q 2538 2584 2113 2584 
z
M 3366 4563 
L 3366 3988 
Q 3128 4100 2886 4159 
Q 2644 4219 2406 4219 
Q 1781 4219 1451 3797 
Q 1122 3375 1075 2522 
Q 1259 2794 1537 2939 
Q 1816 3084 2150 3084 
Q 2853 3084 3261 2657 
Q 3669 2231 3669 1497 
Q 3669 778 3244 343 
Q 2819 -91 2113 -91 
Q 1303 -91 875 529 
Q 447 1150 447 2328 
Q 447 3434 972 4092 
Q 1497 4750 2381 4750 
Q 2619 4750 2861 4703 
Q 3103 4656 3366 4563 
z
" transform="scale(0.015625)"/>
       </defs>
       <use xlink:href="#DejaVuSans-31"/>
       <use xlink:href="#DejaVuSans-39" transform="translate(63.623047 0)"/>
       <use xlink:href="#DejaVuSans-36" transform="translate(127.246094 0)"/>
       <use xlink:href="#DejaVuSans-30" transform="translate(190.869141 0)"/>
      </g>
     </g>
    </g>
    <g id="xtick_5">
     <g id="line2d_5">
      <path d="M 477.921648 502.02 
L 477.921648 7.2 
" clip-path="url(#pdc3b2002fc)" style="fill: none; stroke: #ffffff; stroke-linecap: round"/>
     </g>
     <g id="text_5">
      <!-- 1980 -->
      <g style="fill: #262626" transform="translate(456.289148 524.437344) scale(0.17 -0.17)">
       <defs>
        <path id="DejaVuSans-38" d="M 2034 2216 
Q 1584 2216 1326 1975 
Q 1069 1734 1069 1313 
Q 1069 891 1326 650 
Q 1584 409 2034 409 
Q 2484 409 2743 651 
Q 3003 894 3003 1313 
Q 3003 1734 2745 1975 
Q 2488 2216 2034 2216 
z
M 1403 2484 
Q 997 2584 770 2862 
Q 544 3141 544 3541 
Q 544 4100 942 4425 
Q 1341 4750 2034 4750 
Q 2731 4750 3128 4425 
Q 3525 4100 3525 3541 
Q 3525 3141 3298 2862 
Q 3072 2584 2669 2484 
Q 3125 2378 3379 2068 
Q 3634 1759 3634 1313 
Q 3634 634 3220 271 
Q 2806 -91 2034 -91 
Q 1263 -91 848 271 
Q 434 634 434 1313 
Q 434 1759 690 2068 
Q 947 2378 1403 2484 
z
M 1172 3481 
Q 1172 3119 1398 2916 
Q 1625 2713 2034 2713 
Q 2441 2713 2670 2916 
Q 2900 3119 2900 3481 
Q 2900 3844 2670 4047 
Q 2441 4250 2034 4250 
Q 1625 4250 1398 4047 
Q 1172 3844 1172 3481 
z
" transform="scale(0.015625)"/>
       </defs>
       <use xlink:href="#DejaVuSans-31"/>
       <use xlink:href="#DejaVuSans-39" transform="translate(63.623047 0)"/>
       <use xlink:href="#DejaVuSans-38" transform="translate(127.246094 0)"/>
       <use xlink:href="#DejaVuSans-30" transform="translate(190.869141 0)"/>
      </g>
     </g>
    </g>
    <g id="xtick_6">
     <g id="line2d_6">
      <path d="M 573.043466 502.02 
L 573.043466 7.2 
" clip-path="url(#pdc3b2002fc)" style="fill: none; stroke: #ffffff; stroke-linecap: round"/>
     </g>
     <g id="text_6">
      <!-- 2000 -->
      <g style="fill: #262626" transform="translate(551.410966 524.437344) scale(0.17 -0.17)">
       <use xlink:href="#DejaVuSans-32"/>
       <use xlink:href="#DejaVuSans-30" transform="translate(63.623047 0)"/>
       <use xlink:href="#DejaVuSans-30" transform="translate(127.246094 0)"/>
       <use xlink:href="#DejaVuSans-30" transform="translate(190.869141 0)"/>
      </g>
     </g>
    </g>
    <g id="text_7">
     <!-- Time (Years) -->
     <g style="fill: #262626" transform="translate(281.728359 550.968906) scale(0.25 -0.25)">
      <defs>
       <path id="DejaVuSans-54" d="M -19 4666 
L 3928 4666 
L 3928 4134 
L 2272 4134 
L 2272 0 
L 1638 0 
L 1638 4134 
L -19 4134 
L -19 4666 
z
" transform="scale(0.015625)"/>
       <path id="DejaVuSans-69" d="M 603 3500 
L 1178 3500 
L 1178 0 
L 603 0 
L 603 3500 
z
M 603 4863 
L 1178 4863 
L 1178 4134 
L 603 4134 
L 603 4863 
z
" transform="scale(0.015625)"/>
       <path id="DejaVuSans-6d" d="M 3328 2828 
Q 3544 3216 3844 3400 
Q 4144 3584 4550 3584 
Q 5097 3584 5394 3201 
Q 5691 2819 5691 2113 
L 5691 0 
L 5113 0 
L 5113 2094 
Q 5113 2597 4934 2840 
Q 4756 3084 4391 3084 
Q 3944 3084 3684 2787 
Q 3425 2491 3425 1978 
L 3425 0 
L 2847 0 
L 2847 2094 
Q 2847 2600 2669 2842 
Q 2491 3084 2119 3084 
Q 1678 3084 1418 2786 
Q 1159 2488 1159 1978 
L 1159 0 
L 581 0 
L 581 3500 
L 1159 3500 
L 1159 2956 
Q 1356 3278 1631 3431 
Q 1906 3584 2284 3584 
Q 2666 3584 2933 3390 
Q 3200 3197 3328 2828 
z
" transform="scale(0.015625)"/>
       <path id="DejaVuSans-65" d="M 3597 1894 
L 3597 1613 
L 953 1613 
Q 991 1019 1311 708 
Q 1631 397 2203 397 
Q 2534 397 2845 478 
Q 3156 559 3463 722 
L 3463 178 
Q 3153 47 2828 -22 
Q 2503 -91 2169 -91 
Q 1331 -91 842 396 
Q 353 884 353 1716 
Q 353 2575 817 3079 
Q 1281 3584 2069 3584 
Q 2775 3584 3186 3129 
Q 3597 2675 3597 1894 
z
M 3022 2063 
Q 3016 2534 2758 2815 
Q 2500 3097 2075 3097 
Q 1594 3097 1305 2825 
Q 1016 2553 972 2059 
L 3022 2063 
z
" transform="scale(0.015625)"/>
       <path id="DejaVuSans-20" transform="scale(0.015625)"/>
       <path id="DejaVuSans-28" d="M 1984 4856 
Q 1566 4138 1362 3434 
Q 1159 2731 1159 2009 
Q 1159 1288 1364 580 
Q 1569 -128 1984 -844 
L 1484 -844 
Q 1016 -109 783 600 
Q 550 1309 550 2009 
Q 550 2706 781 3412 
Q 1013 4119 1484 4856 
L 1984 4856 
z
" transform="scale(0.015625)"/>
       <path id="DejaVuSans-59" d="M -13 4666 
L 666 4666 
L 1959 2747 
L 3244 4666 
L 3922 4666 
L 2272 2222 
L 2272 0 
L 1638 0 
L 1638 2222 
L -13 4666 
z
" transform="scale(0.015625)"/>
       <path id="DejaVuSans-61" d="M 2194 1759 
Q 1497 1759 1228 1600 
Q 959 1441 959 1056 
Q 959 750 1161 570 
Q 1363 391 1709 391 
Q 2188 391 2477 730 
Q 2766 1069 2766 1631 
L 2766 1759 
L 2194 1759 
z
M 3341 1997 
L 3341 0 
L 2766 0 
L 2766 531 
Q 2569 213 2275 61 
Q 1981 -91 1556 -91 
Q 1019 -91 701 211 
Q 384 513 384 1019 
Q 384 1609 779 1909 
Q 1175 2209 1959 2209 
L 2766 2209 
L 2766 2266 
Q 2766 2663 2505 2880 
Q 2244 3097 1772 3097 
Q 1472 3097 1187 3025 
Q 903 2953 641 2809 
L 641 3341 
Q 956 3463 1253 3523 
Q 1550 3584 1831 3584 
Q 2591 3584 2966 3190 
Q 3341 2797 3341 1997 
z
" transform="scale(0.015625)"/>
       <path id="DejaVuSans-72" d="M 2631 2963 
Q 2534 3019 2420 3045 
Q 2306 3072 2169 3072 
Q 1681 3072 1420 2755 
Q 1159 2438 1159 1844 
L 1159 0 
L 581 0 
L 581 3500 
L 1159 3500 
L 1159 2956 
Q 1341 3275 1631 3429 
Q 1922 3584 2338 3584 
Q 2397 3584 2469 3576 
Q 2541 3569 2628 3553 
L 2631 2963 
z
" transform="scale(0.015625)"/>
       <path id="DejaVuSans-73" d="M 2834 3397 
L 2834 2853 
Q 2591 2978 2328 3040 
Q 2066 3103 1784 3103 
Q 1356 3103 1142 2972 
Q 928 2841 928 2578 
Q 928 2378 1081 2264 
Q 1234 2150 1697 2047 
L 1894 2003 
Q 2506 1872 2764 1633 
Q 3022 1394 3022 966 
Q 3022 478 2636 193 
Q 2250 -91 1575 -91 
Q 1294 -91 989 -36 
Q 684 19 347 128 
L 347 722 
Q 666 556 975 473 
Q 1284 391 1588 391 
Q 1994 391 2212 530 
Q 2431 669 2431 922 
Q 2431 1156 2273 1281 
Q 2116 1406 1581 1522 
L 1381 1569 
Q 847 1681 609 1914 
Q 372 2147 372 2553 
Q 372 3047 722 3315 
Q 1072 3584 1716 3584 
Q 2034 3584 2315 3537 
Q 2597 3491 2834 3397 
z
" transform="scale(0.015625)"/>
       <path id="DejaVuSans-29" d="M 513 4856 
L 1013 4856 
Q 1481 4119 1714 3412 
Q 1947 2706 1947 2009 
Q 1947 1309 1714 600 
Q 1481 -109 1013 -844 
L 513 -844 
Q 928 -128 1133 580 
Q 1338 1288 1338 2009 
Q 1338 2731 1133 3434 
Q 928 4138 513 4856 
z
" transform="scale(0.015625)"/>
      </defs>
      <use xlink:href="#DejaVuSans-54"/>
      <use xlink:href="#DejaVuSans-69" transform="translate(57.958984 0)"/>
      <use xlink:href="#DejaVuSans-6d" transform="translate(85.742188 0)"/>
      <use xlink:href="#DejaVuSans-65" transform="translate(183.154297 0)"/>
      <use xlink:href="#DejaVuSans-20" transform="translate(244.677734 0)"/>
      <use xlink:href="#DejaVuSans-28" transform="translate(276.464844 0)"/>
      <use xlink:href="#DejaVuSans-59" transform="translate(315.478516 0)"/>
      <use xlink:href="#DejaVuSans-65" transform="translate(363.3125 0)"/>
      <use xlink:href="#DejaVuSans-61" transform="translate(424.835938 0)"/>
      <use xlink:href="#DejaVuSans-72" transform="translate(486.115234 0)"/>
      <use xlink:href="#DejaVuSans-73" transform="translate(527.228516 0)"/>
      <use xlink:href="#DejaVuSans-29" transform="translate(579.328125 0)"/>
     </g>
    </g>
   </g>
   <g id="matplotlib.axis_2">
    <g id="ytick_1">
     <g id="line2d_7">
      <path d="M 97.434375 479.52819 
L 620.604375 479.52819 
" clip-path="url(#pdc3b2002fc)" style="fill: none; stroke: #ffffff; stroke-linecap: round"/>
     </g>
     <g id="text_8">
      <!-- 0.000 -->
      <g style="fill: #262626" transform="translate(39.266563 485.986862) scale(0.17 -0.17)">
       <defs>
        <path id="DejaVuSans-2e" d="M 684 794 
L 1344 794 
L 1344 0 
L 684 0 
L 684 794 
z
" transform="scale(0.015625)"/>
       </defs>
       <use xlink:href="#DejaVuSans-30"/>
       <use xlink:href="#DejaVuSans-2e" transform="translate(63.623047 0)"/>
       <use xlink:href="#DejaVuSans-30" transform="translate(95.410156 0)"/>
       <use xlink:href="#DejaVuSans-30" transform="translate(159.033203 0)"/>
       <use xlink:href="#DejaVuSans-30" transform="translate(222.65625 0)"/>
      </g>
     </g>
    </g>
    <g id="ytick_2">
     <g id="line2d_8">
      <path d="M 97.434375 406.496278 
L 620.604375 406.496278 
" clip-path="url(#pdc3b2002fc)" style="fill: none; stroke: #ffffff; stroke-linecap: round"/>
     </g>
     <g id="text_9">
      <!-- 0.001 -->
      <g style="fill: #262626" transform="translate(39.266563 412.95495) scale(0.17 -0.17)">
       <use xlink:href="#DejaVuSans-30"/>
       <use xlink:href="#DejaVuSans-2e" transform="translate(63.623047 0)"/>
       <use xlink:href="#DejaVuSans-30" transform="translate(95.410156 0)"/>
       <use xlink:href="#DejaVuSans-30" transform="translate(159.033203 0)"/>
       <use xlink:href="#DejaVuSans-31" transform="translate(222.65625 0)"/>
      </g>
     </g>
    </g>
    <g id="ytick_3">
     <g id="line2d_9">
      <path d="M 97.434375 333.464366 
L 620.604375 333.464366 
" clip-path="url(#pdc3b2002fc)" style="fill: none; stroke: #ffffff; stroke-linecap: round"/>
     </g>
     <g id="text_10">
      <!-- 0.002 -->
      <g style="fill: #262626" transform="translate(39.266563 339.923038) scale(0.17 -0.17)">
       <use xlink:href="#DejaVuSans-30"/>
       <use xlink:href="#DejaVuSans-2e" transform="translate(63.623047 0)"/>
       <use xlink:href="#DejaVuSans-30" transform="translate(95.410156 0)"/>
       <use xlink:href="#DejaVuSans-30" transform="translate(159.033203 0)"/>
       <use xlink:href="#DejaVuSans-32" transform="translate(222.65625 0)"/>
      </g>
     </g>
    </g>
    <g id="ytick_4">
     <g id="line2d_10">
      <path d="M 97.434375 260.432454 
L 620.604375 260.432454 
" clip-path="url(#pdc3b2002fc)" style="fill: none; stroke: #ffffff; stroke-linecap: round"/>
     </g>
     <g id="text_11">
      <!-- 0.003 -->
      <g style="fill: #262626" transform="translate(39.266563 266.891126) scale(0.17 -0.17)">
       <defs>
        <path id="DejaVuSans-33" d="M 2597 2516 
Q 3050 2419 3304 2112 
Q 3559 1806 3559 1356 
Q 3559 666 3084 287 
Q 2609 -91 1734 -91 
Q 1441 -91 1130 -33 
Q 819 25 488 141 
L 488 750 
Q 750 597 1062 519 
Q 1375 441 1716 441 
Q 2309 441 2620 675 
Q 2931 909 2931 1356 
Q 2931 1769 2642 2001 
Q 2353 2234 1838 2234 
L 1294 2234 
L 1294 2753 
L 1863 2753 
Q 2328 2753 2575 2939 
Q 2822 3125 2822 3475 
Q 2822 3834 2567 4026 
Q 2313 4219 1838 4219 
Q 1578 4219 1281 4162 
Q 984 4106 628 3988 
L 628 4550 
Q 988 4650 1302 4700 
Q 1616 4750 1894 4750 
Q 2613 4750 3031 4423 
Q 3450 4097 3450 3541 
Q 3450 3153 3228 2886 
Q 3006 2619 2597 2516 
z
" transform="scale(0.015625)"/>
       </defs>
       <use xlink:href="#DejaVuSans-30"/>
       <use xlink:href="#DejaVuSans-2e" transform="translate(63.623047 0)"/>
       <use xlink:href="#DejaVuSans-30" transform="translate(95.410156 0)"/>
       <use xlink:href="#DejaVuSans-30" transform="translate(159.033203 0)"/>
       <use xlink:href="#DejaVuSans-33" transform="translate(222.65625 0)"/>
      </g>
     </g>
    </g>
    <g id="ytick_5">
     <g id="line2d_11">
      <path d="M 97.434375 187.400542 
L 620.604375 187.400542 
" clip-path="url(#pdc3b2002fc)" style="fill: none; stroke: #ffffff; stroke-linecap: round"/>
     </g>
     <g id="text_12">
      <!-- 0.004 -->
      <g style="fill: #262626" transform="translate(39.266563 193.859214) scale(0.17 -0.17)">
       <use xlink:href="#DejaVuSans-30"/>
       <use xlink:href="#DejaVuSans-2e" transform="translate(63.623047 0)"/>
       <use xlink:href="#DejaVuSans-30" transform="translate(95.410156 0)"/>
       <use xlink:href="#DejaVuSans-30" transform="translate(159.033203 0)"/>
       <use xlink:href="#DejaVuSans-34" transform="translate(222.65625 0)"/>
      </g>
     </g>
    </g>
    <g id="ytick_6">
     <g id="line2d_12">
      <path d="M 97.434375 114.36863 
L 620.604375 114.36863 
" clip-path="url(#pdc3b2002fc)" style="fill: none; stroke: #ffffff; stroke-linecap: round"/>
     </g>
     <g id="text_13">
      <!-- 0.005 -->
      <g style="fill: #262626" transform="translate(39.266563 120.827302) scale(0.17 -0.17)">
       <defs>
        <path id="DejaVuSans-35" d="M 691 4666 
L 3169 4666 
L 3169 4134 
L 1269 4134 
L 1269 2991 
Q 1406 3038 1543 3061 
Q 1681 3084 1819 3084 
Q 2600 3084 3056 2656 
Q 3513 2228 3513 1497 
Q 3513 744 3044 326 
Q 2575 -91 1722 -91 
Q 1428 -91 1123 -41 
Q 819 9 494 109 
L 494 744 
Q 775 591 1075 516 
Q 1375 441 1709 441 
Q 2250 441 2565 725 
Q 2881 1009 2881 1497 
Q 2881 1984 2565 2268 
Q 2250 2553 1709 2553 
Q 1456 2553 1204 2497 
Q 953 2441 691 2322 
L 691 4666 
z
" transform="scale(0.015625)"/>
       </defs>
       <use xlink:href="#DejaVuSans-30"/>
       <use xlink:href="#DejaVuSans-2e" transform="translate(63.623047 0)"/>
       <use xlink:href="#DejaVuSans-30" transform="translate(95.410156 0)"/>
       <use xlink:href="#DejaVuSans-30" transform="translate(159.033203 0)"/>
       <use xlink:href="#DejaVuSans-35" transform="translate(222.65625 0)"/>
      </g>
     </g>
    </g>
    <g id="ytick_7">
     <g id="line2d_13">
      <path d="M 97.434375 41.336718 
L 620.604375 41.336718 
" clip-path="url(#pdc3b2002fc)" style="fill: none; stroke: #ffffff; stroke-linecap: round"/>
     </g>
     <g id="text_14">
      <!-- 0.006 -->
      <g style="fill: #262626" transform="translate(39.266563 47.79539) scale(0.17 -0.17)">
       <use xlink:href="#DejaVuSans-30"/>
       <use xlink:href="#DejaVuSans-2e" transform="translate(63.623047 0)"/>
       <use xlink:href="#DejaVuSans-30" transform="translate(95.410156 0)"/>
       <use xlink:href="#DejaVuSans-30" transform="translate(159.033203 0)"/>
       <use xlink:href="#DejaVuSans-36" transform="translate(222.65625 0)"/>
      </g>
     </g>
    </g>
    <g id="text_15">
     <!-- Carbon formation efficiency -->
     <g style="fill: #262626" transform="translate(29.235469 456.359375) rotate(-90) scale(0.29 -0.29)">
      <defs>
       <path id="DejaVuSans-43" d="M 4122 4306 
L 4122 3641 
Q 3803 3938 3442 4084 
Q 3081 4231 2675 4231 
Q 1875 4231 1450 3742 
Q 1025 3253 1025 2328 
Q 1025 1406 1450 917 
Q 1875 428 2675 428 
Q 3081 428 3442 575 
Q 3803 722 4122 1019 
L 4122 359 
Q 3791 134 3420 21 
Q 3050 -91 2638 -91 
Q 1578 -91 968 557 
Q 359 1206 359 2328 
Q 359 3453 968 4101 
Q 1578 4750 2638 4750 
Q 3056 4750 3426 4639 
Q 3797 4528 4122 4306 
z
" transform="scale(0.015625)"/>
       <path id="DejaVuSans-62" d="M 3116 1747 
Q 3116 2381 2855 2742 
Q 2594 3103 2138 3103 
Q 1681 3103 1420 2742 
Q 1159 2381 1159 1747 
Q 1159 1113 1420 752 
Q 1681 391 2138 391 
Q 2594 391 2855 752 
Q 3116 1113 3116 1747 
z
M 1159 2969 
Q 1341 3281 1617 3432 
Q 1894 3584 2278 3584 
Q 2916 3584 3314 3078 
Q 3713 2572 3713 1747 
Q 3713 922 3314 415 
Q 2916 -91 2278 -91 
Q 1894 -91 1617 61 
Q 1341 213 1159 525 
L 1159 0 
L 581 0 
L 581 4863 
L 1159 4863 
L 1159 2969 
z
" transform="scale(0.015625)"/>
       <path id="DejaVuSans-6f" d="M 1959 3097 
Q 1497 3097 1228 2736 
Q 959 2375 959 1747 
Q 959 1119 1226 758 
Q 1494 397 1959 397 
Q 2419 397 2687 759 
Q 2956 1122 2956 1747 
Q 2956 2369 2687 2733 
Q 2419 3097 1959 3097 
z
M 1959 3584 
Q 2709 3584 3137 3096 
Q 3566 2609 3566 1747 
Q 3566 888 3137 398 
Q 2709 -91 1959 -91 
Q 1206 -91 779 398 
Q 353 888 353 1747 
Q 353 2609 779 3096 
Q 1206 3584 1959 3584 
z
" transform="scale(0.015625)"/>
       <path id="DejaVuSans-6e" d="M 3513 2113 
L 3513 0 
L 2938 0 
L 2938 2094 
Q 2938 2591 2744 2837 
Q 2550 3084 2163 3084 
Q 1697 3084 1428 2787 
Q 1159 2491 1159 1978 
L 1159 0 
L 581 0 
L 581 3500 
L 1159 3500 
L 1159 2956 
Q 1366 3272 1645 3428 
Q 1925 3584 2291 3584 
Q 2894 3584 3203 3211 
Q 3513 2838 3513 2113 
z
" transform="scale(0.015625)"/>
       <path id="DejaVuSans-66" d="M 2375 4863 
L 2375 4384 
L 1825 4384 
Q 1516 4384 1395 4259 
Q 1275 4134 1275 3809 
L 1275 3500 
L 2222 3500 
L 2222 3053 
L 1275 3053 
L 1275 0 
L 697 0 
L 697 3053 
L 147 3053 
L 147 3500 
L 697 3500 
L 697 3744 
Q 697 4328 969 4595 
Q 1241 4863 1831 4863 
L 2375 4863 
z
" transform="scale(0.015625)"/>
       <path id="DejaVuSans-74" d="M 1172 4494 
L 1172 3500 
L 2356 3500 
L 2356 3053 
L 1172 3053 
L 1172 1153 
Q 1172 725 1289 603 
Q 1406 481 1766 481 
L 2356 481 
L 2356 0 
L 1766 0 
Q 1100 0 847 248 
Q 594 497 594 1153 
L 594 3053 
L 172 3053 
L 172 3500 
L 594 3500 
L 594 4494 
L 1172 4494 
z
" transform="scale(0.015625)"/>
       <path id="DejaVuSans-63" d="M 3122 3366 
L 3122 2828 
Q 2878 2963 2633 3030 
Q 2388 3097 2138 3097 
Q 1578 3097 1268 2742 
Q 959 2388 959 1747 
Q 959 1106 1268 751 
Q 1578 397 2138 397 
Q 2388 397 2633 464 
Q 2878 531 3122 666 
L 3122 134 
Q 2881 22 2623 -34 
Q 2366 -91 2075 -91 
Q 1284 -91 818 406 
Q 353 903 353 1747 
Q 353 2603 823 3093 
Q 1294 3584 2113 3584 
Q 2378 3584 2631 3529 
Q 2884 3475 3122 3366 
z
" transform="scale(0.015625)"/>
       <path id="DejaVuSans-79" d="M 2059 -325 
Q 1816 -950 1584 -1140 
Q 1353 -1331 966 -1331 
L 506 -1331 
L 506 -850 
L 844 -850 
Q 1081 -850 1212 -737 
Q 1344 -625 1503 -206 
L 1606 56 
L 191 3500 
L 800 3500 
L 1894 763 
L 2988 3500 
L 3597 3500 
L 2059 -325 
z
" transform="scale(0.015625)"/>
      </defs>
      <use xlink:href="#DejaVuSans-43"/>
      <use xlink:href="#DejaVuSans-61" transform="translate(69.824219 0)"/>
      <use xlink:href="#DejaVuSans-72" transform="translate(131.103516 0)"/>
      <use xlink:href="#DejaVuSans-62" transform="translate(172.216797 0)"/>
      <use xlink:href="#DejaVuSans-6f" transform="translate(235.693359 0)"/>
      <use xlink:href="#DejaVuSans-6e" transform="translate(296.875 0)"/>
      <use xlink:href="#DejaVuSans-20" transform="translate(360.253906 0)"/>
      <use xlink:href="#DejaVuSans-66" transform="translate(392.041016 0)"/>
      <use xlink:href="#DejaVuSans-6f" transform="translate(427.246094 0)"/>
      <use xlink:href="#DejaVuSans-72" transform="translate(488.427734 0)"/>
      <use xlink:href="#DejaVuSans-6d" transform="translate(527.791016 0)"/>
      <use xlink:href="#DejaVuSans-61" transform="translate(625.203125 0)"/>
      <use xlink:href="#DejaVuSans-74" transform="translate(686.482422 0)"/>
      <use xlink:href="#DejaVuSans-69" transform="translate(725.691406 0)"/>
      <use xlink:href="#DejaVuSans-6f" transform="translate(753.474609 0)"/>
      <use xlink:href="#DejaVuSans-6e" transform="translate(814.65625 0)"/>
      <use xlink:href="#DejaVuSans-20" transform="translate(878.035156 0)"/>
      <use xlink:href="#DejaVuSans-65" transform="translate(909.822266 0)"/>
      <use xlink:href="#DejaVuSans-66" transform="translate(971.345703 0)"/>
      <use xlink:href="#DejaVuSans-66" transform="translate(1006.550781 0)"/>
      <use xlink:href="#DejaVuSans-69" transform="translate(1041.755859 0)"/>
      <use xlink:href="#DejaVuSans-63" transform="translate(1069.539062 0)"/>
      <use xlink:href="#DejaVuSans-69" transform="translate(1124.519531 0)"/>
      <use xlink:href="#DejaVuSans-65" transform="translate(1152.302734 0)"/>
      <use xlink:href="#DejaVuSans-6e" transform="translate(1213.826172 0)"/>
      <use xlink:href="#DejaVuSans-63" transform="translate(1277.205078 0)"/>
      <use xlink:href="#DejaVuSans-79" transform="translate(1332.185547 0)"/>
     </g>
    </g>
   </g>
   <g id="line2d_14">
    <path d="M 121.21483 479.528117 
L 125.97092 478.239158 
L 130.727011 452.467696 
L 135.483102 387.970095 
L 140.239193 333.111334 
L 144.995284 235.768927 
L 149.751375 217.19972 
L 154.507466 190.365667 
L 159.263557 156.41804 
L 164.019648 134.326786 
L 168.775739 83.847766 
L 173.53183 52.151498 
L 178.28792 29.691818 
L 183.044011 33.245815 
L 187.800102 65.68286 
L 192.556193 89.738742 
L 197.312284 53.681014 
L 202.068375 58.63878 
L 206.824466 75.445998 
L 211.580557 91.756333 
L 216.336648 136.360053 
L 221.092739 162.678135 
L 225.84883 145.691619 
L 230.60492 136.916968 
L 235.361011 116.281119 
L 240.117102 103.714395 
L 244.873193 145.492977 
L 249.629284 149.352375 
L 254.385375 151.924681 
L 259.141466 153.679533 
L 263.897557 158.878531 
L 268.653648 176.236075 
L 273.409739 223.491479 
L 278.16583 241.240796 
L 282.92192 267.384531 
L 287.678011 285.317992 
L 292.434102 286.090345 
L 297.190193 290.427285 
L 301.946284 293.33744 
L 306.702375 284.419917 
L 311.458466 266.506173 
L 316.214557 266.86247 
L 320.970648 283.656724 
L 325.726739 291.223659 
L 330.48283 289.329109 
L 335.23892 262.607798 
L 339.995011 262.28519 
L 344.751102 249.471478 
L 349.507193 247.318087 
L 354.263284 257.773448 
L 359.019375 266.69951 
L 363.775466 259.996002 
L 368.531557 239.696415 
L 373.287648 225.388242 
L 378.043739 211.478085 
L 382.79983 227.489741 
L 387.55592 221.560514 
L 392.312011 214.202562 
L 397.068102 209.347788 
L 401.824193 192.339889 
L 406.580284 186.359486 
L 411.336375 178.163372 
L 416.092466 163.901792 
L 420.848557 184.14651 
L 425.604648 209.121541 
L 430.360739 221.064595 
L 435.11683 221.774901 
L 439.87292 243.248125 
L 444.629011 247.14192 
L 449.385102 255.560473 
L 454.141193 265.767025 
L 458.897284 288.724222 
L 463.653375 320.235972 
L 468.409466 325.267177 
L 473.165557 316.653861 
L 477.921648 315.166101 
L 482.677739 320.99886 
L 487.43383 315.880522 
L 492.18992 300.753123 
L 496.946011 298.813817 
L 501.702102 302.820466 
L 506.458193 302.128416 
L 511.214284 292.830637 
L 515.970375 292.691012 
L 520.726466 305.018012 
L 525.482557 291.127852 
L 530.238648 278.699894 
L 534.994739 281.28245 
L 539.75083 297.12299 
L 544.50692 301.061334 
L 549.263011 299.383113 
L 554.019102 299.079567 
L 558.775193 308.454961 
L 563.531284 301.593063 
L 568.287375 308.143436 
L 573.043466 333.412867 
L 577.799557 343.806032 
L 582.555648 345.44032 
L 587.311739 349.635868 
L 592.06783 357.128889 
L 596.82392 366.314159 
" clip-path="url(#pdc3b2002fc)" style="fill: none; stroke: #1f77b4; stroke-width: 1.5; stroke-linecap: round"/>
   </g>
   <g id="line2d_15">
    <path d="M 121.21483 479.52817 
L 125.97092 472.361398 
L 130.727011 452.552047 
L 135.483102 394.846563 
L 140.239193 381.434788 
L 144.995284 364.192649 
L 149.751375 357.1131 
L 154.507466 343.840396 
L 159.263557 331.503432 
L 164.019648 323.656895 
L 168.775739 306.022184 
L 173.53183 300.157514 
L 178.28792 296.211963 
L 183.044011 299.222542 
L 187.800102 316.011307 
L 192.556193 323.836356 
L 197.312284 303.858109 
L 202.068375 310.806649 
L 206.824466 316.630658 
L 211.580557 325.371616 
L 216.336648 342.954088 
L 221.092739 346.381549 
L 225.84883 339.137167 
L 230.60492 336.160183 
L 235.361011 328.728527 
L 240.117102 327.119606 
L 244.873193 350.461326 
L 249.629284 349.130124 
L 254.385375 353.406965 
L 259.141466 354.777503 
L 263.897557 357.012744 
L 268.653648 368.418096 
L 273.409739 386.87466 
L 278.16583 391.961986 
L 282.92192 402.056325 
L 287.678011 406.686474 
L 292.434102 406.470593 
L 297.190193 407.030589 
L 301.946284 404.627954 
L 306.702375 400.397752 
L 311.458466 394.126996 
L 316.214557 396.620095 
L 320.970648 401.986573 
L 325.726739 402.060956 
L 330.48283 400.002155 
L 335.23892 385.854121 
L 339.995011 386.257711 
L 344.751102 385.469986 
L 349.507193 386.159981 
L 354.263284 392.069887 
L 359.019375 394.981113 
L 363.775466 391.701658 
L 368.531557 383.415648 
L 373.287648 379.035025 
L 378.043739 371.853798 
L 382.79983 381.469654 
L 387.55592 378.393336 
L 392.312011 373.664122 
L 397.068102 373.218149 
L 401.824193 364.95179 
L 406.580284 363.530457 
L 411.336375 360.178029 
L 416.092466 358.477123 
L 420.848557 368.15984 
L 425.604648 378.12213 
L 430.360739 383.518955 
L 435.11683 381.33799 
L 439.87292 390.187269 
L 444.629011 387.775174 
L 449.385102 393.503394 
L 454.141193 399.050997 
L 458.897284 407.853757 
L 463.653375 418.685815 
L 468.409466 418.778307 
L 473.165557 415.530628 
L 477.921648 415.240465 
L 482.677739 419.562731 
L 487.43383 416.091393 
L 492.18992 413.090791 
L 496.946011 414.282985 
L 501.702102 416.999149 
L 506.458193 416.029755 
L 511.214284 410.808818 
L 515.970375 412.278309 
L 520.726466 416.223313 
L 525.482557 409.885585 
L 530.238648 406.857643 
L 534.994739 410.592754 
L 539.75083 416.818634 
L 544.50692 415.852125 
L 549.263011 413.733874 
L 554.019102 414.052949 
L 558.775193 418.675921 
L 563.531284 416.380838 
L 568.287375 422.053658 
L 573.043466 431.277327 
L 577.799557 432.3255 
L 582.555648 431.765131 
L 587.311739 433.643696 
L 592.06783 436.854418 
L 596.82392 440.178262 
" clip-path="url(#pdc3b2002fc)" style="fill: none; stroke: #ff7f0e; stroke-width: 1.5; stroke-linecap: round"/>
   </g>
   <g id="line2d_16">
    <path d="M 121.21483 479.528178 
L 125.97092 466.508652 
L 130.727011 445.195366 
L 135.483102 377.074013 
L 140.239193 373.996268 
L 144.995284 375.883359 
L 149.751375 370.332014 
L 154.507466 358.968199 
L 159.263557 349.566994 
L 164.019648 344.586341 
L 168.775739 334.714578 
L 173.53183 334.656273 
L 178.28792 334.704226 
L 183.044011 337.390134 
L 187.800102 352.755572 
L 192.556193 358.437496 
L 197.312284 339.921594 
L 202.068375 347.853141 
L 206.824466 352.903674 
L 211.580557 360.962006 
L 216.336648 372.461865 
L 221.092739 370.403134 
L 225.84883 365.452591 
L 230.60492 363.573441 
L 235.361011 358.76652 
L 240.117102 358.838709 
L 244.873193 380.639495 
L 249.629284 378.074727 
L 254.385375 382.804206 
L 259.141466 384.75333 
L 263.897557 386.522122 
L 268.653648 398.030657 
L 273.409739 410.7583 
L 278.16583 413.987245 
L 282.92192 421.135329 
L 287.678011 423.489893 
L 292.434102 423.148418 
L 297.190193 422.416545 
L 301.946284 418.894238 
L 306.702375 414.734732 
L 311.458466 410.693197 
L 316.214557 413.925313 
L 320.970648 417.560893 
L 325.726739 415.862354 
L 330.48283 413.597144 
L 335.23892 400.691704 
L 339.995011 401.134565 
L 344.751102 403.319316 
L 349.507193 404.567604 
L 354.263284 410.267475 
L 359.019375 411.702726 
L 363.775466 408.967563 
L 368.531557 402.850468 
L 373.287648 400.375058 
L 378.043739 392.823452 
L 382.79983 402.516082 
L 387.55592 399.743016 
L 392.312011 395.503702 
L 397.068102 396.1301 
L 401.824193 389.185106 
L 406.580284 388.581808 
L 411.336375 386.145639 
L 416.092466 386.56962 
L 420.848557 394.543526 
L 425.604648 403.408265 
L 430.360739 407.711706 
L 435.11683 404.483884 
L 439.87292 411.568665 
L 444.629011 406.873466 
L 449.385102 412.778401 
L 454.141193 418.351971 
L 458.897284 424.738522 
L 463.653375 432.147125 
L 468.409466 431.038653 
L 473.165557 427.647094 
L 477.921648 427.364151 
L 482.677739 432.261414 
L 487.43383 426.963152 
L 492.18992 426.656645 
L 496.946011 427.931171 
L 501.702102 430.323215 
L 506.458193 429.388925 
L 511.214284 424.143117 
L 515.970375 426.288836 
L 520.726466 429.396711 
L 525.482557 424.182458 
L 530.238648 422.566013 
L 534.994739 428.198817 
L 539.75083 433.235258 
L 544.50692 431.706553 
L 549.263011 429.641362 
L 554.019102 429.879616 
L 558.775193 434.368692 
L 563.531284 432.957642 
L 568.287375 439.327978 
L 573.043466 446.059169 
L 577.799557 444.68419 
L 582.555648 443.774972 
L 587.311739 445.140023 
L 592.06783 447.330978 
L 596.82392 449.407215 
" clip-path="url(#pdc3b2002fc)" style="fill: none; stroke: #2ca02c; stroke-width: 1.5; stroke-linecap: round"/>
   </g>
   <g id="line2d_17">
    <path d="M 121.21483 479.528182 
L 125.97092 463.199737 
L 130.727011 440.77336 
L 135.483102 368.912489 
L 140.239193 358.724468 
L 144.995284 377.734435 
L 149.751375 372.474193 
L 154.507466 362.326275 
L 159.263557 353.486694 
L 164.019648 349.971727 
L 168.775739 344.571899 
L 173.53183 346.316311 
L 178.28792 348.611101 
L 183.044011 351.070237 
L 187.800102 365.251589 
L 192.556193 370.811174 
L 197.312284 353.538692 
L 202.068375 361.468003 
L 206.824466 367.650878 
L 211.580557 375.546518 
L 216.336648 385.314253 
L 221.092739 381.589592 
L 225.84883 377.600292 
L 230.60492 376.106911 
L 235.361011 372.936567 
L 240.117102 373.480811 
L 244.873193 394.332295 
L 249.629284 391.605588 
L 254.385375 395.863285 
L 259.141466 397.838367 
L 263.897557 398.790283 
L 268.653648 409.977285 
L 273.409739 420.592835 
L 278.16583 423.192067 
L 282.92192 428.933619 
L 287.678011 430.226414 
L 292.434102 429.807526 
L 297.190193 428.917946 
L 301.946284 425.184379 
L 306.702375 421.088573 
L 311.458466 418.407914 
L 316.214557 421.967978 
L 320.970648 425.405892 
L 325.726739 423.12942 
L 330.48283 420.317071 
L 335.23892 406.8259 
L 339.995011 407.279079 
L 344.751102 410.197683 
L 349.507193 411.172212 
L 354.263284 416.44974 
L 359.019375 417.115587 
L 363.775466 414.617182 
L 368.531557 409.604381 
L 373.287648 407.875912 
L 378.043739 400.424689 
L 382.79983 410.856171 
L 387.55592 408.254045 
L 392.312011 404.9318 
L 397.068102 406.209129 
L 401.824193 399.87186 
L 406.580284 398.953611 
L 411.336375 396.999653 
L 416.092466 398.091426 
L 420.848557 405.062264 
L 425.604648 414.22141 
L 430.360739 418.688145 
L 435.11683 414.962174 
L 439.87292 420.398918 
L 444.629011 414.946882 
L 449.385102 421.263811 
L 454.141193 426.856096 
L 458.897284 432.097505 
L 463.653375 437.84559 
L 468.409466 436.703227 
L 473.165557 433.698966 
L 477.921648 433.150014 
L 482.677739 438.463972 
L 487.43383 432.094288 
L 492.18992 433.430713 
L 496.946011 434.294508 
L 501.702102 436.560492 
L 506.458193 435.683877 
L 511.214284 430.740586 
L 515.970375 432.793236 
L 520.726466 434.666768 
L 525.482557 430.676469 
L 530.238648 429.288756 
L 534.994739 435.839012 
L 539.75083 439.667576 
L 544.50692 438.006432 
L 549.263011 436.223714 
L 554.019102 436.390491 
L 558.775193 440.715154 
L 563.531284 439.904624 
L 568.287375 446.468529 
L 573.043466 451.769786 
L 577.799557 449.77999 
L 582.555648 448.979151 
L 587.311739 450.214581 
L 592.06783 452.229469 
L 596.82392 453.709778 
" clip-path="url(#pdc3b2002fc)" style="fill: none; stroke: #d62728; stroke-width: 1.5; stroke-linecap: round"/>
   </g>
   <g id="line2d_18"/>
   <g id="line2d_19"/>
   <g id="line2d_20"/>
   <g id="line2d_21"/>
   <g id="patch_3">
    <path d="M 97.434375 502.02 
L 97.434375 7.2 
" style="fill: none; stroke: #ffffff; stroke-width: 1.25; stroke-linejoin: miter; stroke-linecap: square"/>
   </g>
   <g id="patch_4">
    <path d="M 97.434375 502.02 
L 620.604375 502.02 
" style="fill: none; stroke: #ffffff; stroke-width: 1.25; stroke-linejoin: miter; stroke-linecap: square"/>
   </g>
  </g>
  <g id="legend_1">
   <g id="line2d_22">
    <path d="M 502.231525 49.236875 
L 522.231525 49.236875 
L 542.231525 49.236875 
" style="fill: none; stroke: #1f77b4; stroke-width: 1.5; stroke-linecap: round"/>
   </g>
   <g id="text_16">
    <!-- 10.0 -->
    <g style="fill: #262626" transform="translate(558.231525 56.236875) scale(0.2 -0.2)">
     <use xlink:href="#DejaVuSans-31"/>
     <use xlink:href="#DejaVuSans-30" transform="translate(63.623047 0)"/>
     <use xlink:href="#DejaVuSans-2e" transform="translate(127.246094 0)"/>
     <use xlink:href="#DejaVuSans-30" transform="translate(159.033203 0)"/>
    </g>
   </g>
   <g id="line2d_23">
    <path d="M 502.231525 78.593125 
L 522.231525 78.593125 
L 542.231525 78.593125 
" style="fill: none; stroke: #ff7f0e; stroke-width: 1.5; stroke-linecap: round"/>
   </g>
   <g id="text_17">
    <!-- 37.0 -->
    <g style="fill: #262626" transform="translate(558.231525 85.593125) scale(0.2 -0.2)">
     <defs>
      <path id="DejaVuSans-37" d="M 525 4666 
L 3525 4666 
L 3525 4397 
L 1831 0 
L 1172 0 
L 2766 4134 
L 525 4134 
L 525 4666 
z
" transform="scale(0.015625)"/>
     </defs>
     <use xlink:href="#DejaVuSans-33"/>
     <use xlink:href="#DejaVuSans-37" transform="translate(63.623047 0)"/>
     <use xlink:href="#DejaVuSans-2e" transform="translate(127.246094 0)"/>
     <use xlink:href="#DejaVuSans-30" transform="translate(159.033203 0)"/>
    </g>
   </g>
   <g id="line2d_24">
    <path d="M 502.231525 107.949375 
L 522.231525 107.949375 
L 542.231525 107.949375 
" style="fill: none; stroke: #2ca02c; stroke-width: 1.5; stroke-linecap: round"/>
   </g>
   <g id="text_18">
    <!-- 63.0 -->
    <g style="fill: #262626" transform="translate(558.231525 114.949375) scale(0.2 -0.2)">
     <use xlink:href="#DejaVuSans-36"/>
     <use xlink:href="#DejaVuSans-33" transform="translate(63.623047 0)"/>
     <use xlink:href="#DejaVuSans-2e" transform="translate(127.246094 0)"/>
     <use xlink:href="#DejaVuSans-30" transform="translate(159.033203 0)"/>
    </g>
   </g>
   <g id="line2d_25">
    <path d="M 502.231525 137.305625 
L 522.231525 137.305625 
L 542.231525 137.305625 
" style="fill: none; stroke: #d62728; stroke-width: 1.5; stroke-linecap: round"/>
   </g>
   <g id="text_19">
    <!-- 90.0 -->
    <g style="fill: #262626" transform="translate(558.231525 144.305625) scale(0.2 -0.2)">
     <use xlink:href="#DejaVuSans-39"/>
     <use xlink:href="#DejaVuSans-30" transform="translate(63.623047 0)"/>
     <use xlink:href="#DejaVuSans-2e" transform="translate(127.246094 0)"/>
     <use xlink:href="#DejaVuSans-30" transform="translate(159.033203 0)"/>
    </g>
   </g>
  </g>
 </g>
 <defs>
  <clipPath id="pdc3b2002fc">
   <rect x="97.434375" y="7.2" width="523.17" height="494.82"/>
  </clipPath>
 </defs>
</svg>
