<?xml version="1.0" encoding="utf-8" standalone="no"?>
<!DOCTYPE svg PUBLIC "-//W3C//DTD SVG 1.1//EN"
  "http://www.w3.org/Graphics/SVG/1.1/DTD/svg11.dtd">
<svg xmlns:xlink="http://www.w3.org/1999/xlink" width="991.098125pt" height="563.368125pt" viewBox="0 0 991.098125 563.368125" xmlns="http://www.w3.org/2000/svg" version="1.1">
 <metadata>
  <rdf:RDF xmlns:dc="http://purl.org/dc/elements/1.1/" xmlns:cc="http://creativecommons.org/ns#" xmlns:rdf="http://www.w3.org/1999/02/22-rdf-syntax-ns#">
   <cc:Work>
    <dc:type rdf:resource="http://purl.org/dc/dcmitype/StillImage"/>
    <dc:date>2025-12-30T18:56:19.111390</dc:date>
    <dc:format>image/svg+xml</dc:format>
    <dc:creator>
     <cc:Agent>
      <dc:title>Matplotlib v3.10.6, https://matplotlib.org/</dc:title>
     </cc:Agent>
    </dc:creator>
   </cc:Work>
  </rdf:RDF>
 </metadata>
 <defs>
  <style type="text/css">*{stroke-linejoin: round; stroke-linecap: butt}</style>
 </defs>
 <g id="figure_1">
  <g id="patch_1">
   <path d="M 0 563.368125 
L 991.098125 563.368125 
L 991.098125 0 
L 0 0 
z
" style="fill: #ffffff"/>
  </g>
  <g id="axes_1">
   <g id="patch_2">
    <path d="M 86.618125 502.02 
L 983.898125 502.02 
L 983.898125 7.2 
L 86.618125 7.2 
z
" style="fill: #eaeaf2"/>
   </g>
   <g id="matplotlib.axis_1">
    <g id="xtick_1">
     <g id="line2d_1">
      <path d="M 86.618125 502.02 
L 86.618125 7.2 
" clip-path="url(#p7c18fface1)" style="fill: none; stroke: #ffffff; stroke-linecap: round"/>
     </g>
     <g id="text_1">
      <!-- 1900 -->
      <g style="fill: #262626" transform="translate(64.985625 524.437344) scale(0.17 -0.17)">
       <defs>
        <path id="DejaVuSans-31" d="M 794 531 
L 1825 531 
L 1825 4091 
L 703 3866 
L 703 4441 
L 1819 4666 
L 2450 4666 
L 2450 531 
L 3481 531 
L 3481 0 
L 794 0 
L 794 531 
z
" transform="scale(0.015625)"/>
        <path id="DejaVuSans-39" d="M 703 97 
L 703 672 
Q 941 559 1184 500 
Q 1428 441 1663 441 
Q 2288 441 2617 861 
Q 2947 1281 2994 2138 
Q 2813 1869 2534 1725 
Q 2256 1581 1919 1581 
Q 1219 1581 811 2004 
Q 403 2428 403 3163 
Q 403 3881 828 4315 
Q 1253 4750 1959 4750 
Q 2769 4750 3195 4129 
Q 3622 3509 3622 2328 
Q 3622 1225 3098 567 
Q 2575 -91 1691 -91 
Q 1453 -91 1209 -44 
Q 966 3 703 97 
z
M 1959 2075 
Q 2384 2075 2632 2365 
Q 2881 2656 2881 3163 
Q 2881 3666 2632 3958 
Q 2384 4250 1959 4250 
Q 1534 4250 1286 3958 
Q 1038 3666 1038 3163 
Q 1038 2656 1286 2365 
Q 1534 2075 1959 2075 
z
" transform="scale(0.015625)"/>
        <path id="DejaVuSans-30" d="M 2034 4250 
Q 1547 4250 1301 3770 
Q 1056 3291 1056 2328 
Q 1056 1369 1301 889 
Q 1547 409 2034 409 
Q 2525 409 2770 889 
Q 3016 1369 3016 2328 
Q 3016 3291 2770 3770 
Q 2525 4250 2034 4250 
z
M 2034 4750 
Q 2819 4750 3233 4129 
Q 3647 3509 3647 2328 
Q 3647 1150 3233 529 
Q 2819 -91 2034 -91 
Q 1250 -91 836 529 
Q 422 1150 422 2328 
Q 422 3509 836 4129 
Q 1250 4750 2034 4750 
z
" transform="scale(0.015625)"/>
       </defs>
       <use xlink:href="#DejaVuSans-31"/>
       <use xlink:href="#DejaVuSans-39" transform="translate(63.623047 0)"/>
       <use xlink:href="#DejaVuSans-30" transform="translate(127.246094 0)"/>
       <use xlink:href="#DejaVuSans-30" transform="translate(190.869141 0)"/>
      </g>
     </g>
    </g>
    <g id="xtick_2">
     <g id="line2d_2">
      <path d="M 249.759943 502.02 
L 249.759943 7.2 
" clip-path="url(#p7c18fface1)" style="fill: none; stroke: #ffffff; stroke-linecap: round"/>
     </g>
     <g id="text_2">
      <!-- 1920 -->
      <g style="fill: #262626" transform="translate(228.127443 524.437344) scale(0.17 -0.17)">
       <defs>
        <path id="DejaVuSans-32" d="M 1228 531 
L 3431 531 
L 3431 0 
L 469 0 
L 469 531 
Q 828 903 1448 1529 
Q 2069 2156 2228 2338 
Q 2531 2678 2651 2914 
Q 2772 3150 2772 3378 
Q 2772 3750 2511 3984 
Q 2250 4219 1831 4219 
Q 1534 4219 1204 4116 
Q 875 4013 500 3803 
L 500 4441 
Q 881 4594 1212 4672 
Q 1544 4750 1819 4750 
Q 2544 4750 2975 4387 
Q 3406 4025 3406 3419 
Q 3406 3131 3298 2873 
Q 3191 2616 2906 2266 
Q 2828 2175 2409 1742 
Q 1991 1309 1228 531 
z
" transform="scale(0.015625)"/>
       </defs>
       <use xlink:href="#DejaVuSans-31"/>
       <use xlink:href="#DejaVuSans-39" transform="translate(63.623047 0)"/>
       <use xlink:href="#DejaVuSans-32" transform="translate(127.246094 0)"/>
       <use xlink:href="#DejaVuSans-30" transform="translate(190.869141 0)"/>
      </g>
     </g>
    </g>
    <g id="xtick_3">
     <g id="line2d_3">
      <path d="M 412.901761 502.02 
L 412.901761 7.2 
" clip-path="url(#p7c18fface1)" style="fill: none; stroke: #ffffff; stroke-linecap: round"/>
     </g>
     <g id="text_3">
      <!-- 1940 -->
      <g style="fill: #262626" transform="translate(391.269261 524.437344) scale(0.17 -0.17)">
       <defs>
        <path id="DejaVuSans-34" d="M 2419 4116 
L 825 1625 
L 2419 1625 
L 2419 4116 
z
M 2253 4666 
L 3047 4666 
L 3047 1625 
L 3713 1625 
L 3713 1100 
L 3047 1100 
L 3047 0 
L 2419 0 
L 2419 1100 
L 313 1100 
L 313 1709 
L 2253 4666 
z
" transform="scale(0.015625)"/>
       </defs>
       <use xlink:href="#DejaVuSans-31"/>
       <use xlink:href="#DejaVuSans-39" transform="translate(63.623047 0)"/>
       <use xlink:href="#DejaVuSans-34" transform="translate(127.246094 0)"/>
       <use xlink:href="#DejaVuSans-30" transform="translate(190.869141 0)"/>
      </g>
     </g>
    </g>
    <g id="xtick_4">
     <g id="line2d_4">
      <path d="M 576.04358 502.02 
L 576.04358 7.2 
" clip-path="url(#p7c18fface1)" style="fill: none; stroke: #ffffff; stroke-linecap: round"/>
     </g>
     <g id="text_4">
      <!-- 1960 -->
      <g style="fill: #262626" transform="translate(554.41108 524.437344) scale(0.17 -0.17)">
       <defs>
        <path id="DejaVuSans-36" d="M 2113 2584 
Q 1688 2584 1439 2293 
Q 1191 2003 1191 1497 
Q 1191 994 1439 701 
Q 1688 409 2113 409 
Q 2538 409 2786 701 
Q 3034 994 3034 1497 
Q 3034 2003 2786 2293 
Q 2538 2584 2113 2584 
z
M 3366 4563 
L 3366 3988 
Q 3128 4100 2886 4159 
Q 2644 4219 2406 4219 
Q 1781 4219 1451 3797 
Q 1122 3375 1075 2522 
Q 1259 2794 1537 2939 
Q 1816 3084 2150 3084 
Q 2853 3084 3261 2657 
Q 3669 2231 3669 1497 
Q 3669 778 3244 343 
Q 2819 -91 2113 -91 
Q 1303 -91 875 529 
Q 447 1150 447 2328 
Q 447 3434 972 4092 
Q 1497 4750 2381 4750 
Q 2619 4750 2861 4703 
Q 3103 4656 3366 4563 
z
" transform="scale(0.015625)"/>
       </defs>
       <use xlink:href="#DejaVuSans-31"/>
       <use xlink:href="#DejaVuSans-39" transform="translate(63.623047 0)"/>
       <use xlink:href="#DejaVuSans-36" transform="translate(127.246094 0)"/>
       <use xlink:href="#DejaVuSans-30" transform="translate(190.869141 0)"/>
      </g>
     </g>
    </g>
    <g id="xtick_5">
     <g id="line2d_5">
      <path d="M 739.185398 502.02 
L 739.185398 7.2 
" clip-path="url(#p7c18fface1)" style="fill: none; stroke: #ffffff; stroke-linecap: round"/>
     </g>
     <g id="text_5">
      <!-- 1980 -->
      <g style="fill: #262626" transform="translate(717.552898 524.437344) scale(0.17 -0.17)">
       <defs>
        <path id="DejaVuSans-38" d="M 2034 2216 
Q 1584 2216 1326 1975 
Q 1069 1734 1069 1313 
Q 1069 891 1326 650 
Q 1584 409 2034 409 
Q 2484 409 2743 651 
Q 3003 894 3003 1313 
Q 3003 1734 2745 1975 
Q 2488 2216 2034 2216 
z
M 1403 2484 
Q 997 2584 770 2862 
Q 544 3141 544 3541 
Q 544 4100 942 4425 
Q 1341 4750 2034 4750 
Q 2731 4750 3128 4425 
Q 3525 4100 3525 3541 
Q 3525 3141 3298 2862 
Q 3072 2584 2669 2484 
Q 3125 2378 3379 2068 
Q 3634 1759 3634 1313 
Q 3634 634 3220 271 
Q 2806 -91 2034 -91 
Q 1263 -91 848 271 
Q 434 634 434 1313 
Q 434 1759 690 2068 
Q 947 2378 1403 2484 
z
M 1172 3481 
Q 1172 3119 1398 2916 
Q 1625 2713 2034 2713 
Q 2441 2713 2670 2916 
Q 2900 3119 2900 3481 
Q 2900 3844 2670 4047 
Q 2441 4250 2034 4250 
Q 1625 4250 1398 4047 
Q 1172 3844 1172 3481 
z
" transform="scale(0.015625)"/>
       </defs>
       <use xlink:href="#DejaVuSans-31"/>
       <use xlink:href="#DejaVuSans-39" transform="translate(63.623047 0)"/>
       <use xlink:href="#DejaVuSans-38" transform="translate(127.246094 0)"/>
       <use xlink:href="#DejaVuSans-30" transform="translate(190.869141 0)"/>
      </g>
     </g>
    </g>
    <g id="xtick_6">
     <g id="line2d_6">
      <path d="M 902.327216 502.02 
L 902.327216 7.2 
" clip-path="url(#p7c18fface1)" style="fill: none; stroke: #ffffff; stroke-linecap: round"/>
     </g>
     <g id="text_6">
      <!-- 2000 -->
      <g style="fill: #262626" transform="translate(880.694716 524.437344) scale(0.17 -0.17)">
       <use xlink:href="#DejaVuSans-32"/>
       <use xlink:href="#DejaVuSans-30" transform="translate(63.623047 0)"/>
       <use xlink:href="#DejaVuSans-30" transform="translate(127.246094 0)"/>
       <use xlink:href="#DejaVuSans-30" transform="translate(190.869141 0)"/>
      </g>
     </g>
    </g>
    <g id="text_7">
     <!-- Time (Years) -->
     <g style="fill: #262626" transform="translate(457.967109 550.968906) scale(0.25 -0.25)">
      <defs>
       <path id="DejaVuSans-54" d="M -19 4666 
L 3928 4666 
L 3928 4134 
L 2272 4134 
L 2272 0 
L 1638 0 
L 1638 4134 
L -19 4134 
L -19 4666 
z
" transform="scale(0.015625)"/>
       <path id="DejaVuSans-69" d="M 603 3500 
L 1178 3500 
L 1178 0 
L 603 0 
L 603 3500 
z
M 603 4863 
L 1178 4863 
L 1178 4134 
L 603 4134 
L 603 4863 
z
" transform="scale(0.015625)"/>
       <path id="DejaVuSans-6d" d="M 3328 2828 
Q 3544 3216 3844 3400 
Q 4144 3584 4550 3584 
Q 5097 3584 5394 3201 
Q 5691 2819 5691 2113 
L 5691 0 
L 5113 0 
L 5113 2094 
Q 5113 2597 4934 2840 
Q 4756 3084 4391 3084 
Q 3944 3084 3684 2787 
Q 3425 2491 3425 1978 
L 3425 0 
L 2847 0 
L 2847 2094 
Q 2847 2600 2669 2842 
Q 2491 3084 2119 3084 
Q 1678 3084 1418 2786 
Q 1159 2488 1159 1978 
L 1159 0 
L 581 0 
L 581 3500 
L 1159 3500 
L 1159 2956 
Q 1356 3278 1631 3431 
Q 1906 3584 2284 3584 
Q 2666 3584 2933 3390 
Q 3200 3197 3328 2828 
z
" transform="scale(0.015625)"/>
       <path id="DejaVuSans-65" d="M 3597 1894 
L 3597 1613 
L 953 1613 
Q 991 1019 1311 708 
Q 1631 397 2203 397 
Q 2534 397 2845 478 
Q 3156 559 3463 722 
L 3463 178 
Q 3153 47 2828 -22 
Q 2503 -91 2169 -91 
Q 1331 -91 842 396 
Q 353 884 353 1716 
Q 353 2575 817 3079 
Q 1281 3584 2069 3584 
Q 2775 3584 3186 3129 
Q 3597 2675 3597 1894 
z
M 3022 2063 
Q 3016 2534 2758 2815 
Q 2500 3097 2075 3097 
Q 1594 3097 1305 2825 
Q 1016 2553 972 2059 
L 3022 2063 
z
" transform="scale(0.015625)"/>
       <path id="DejaVuSans-20" transform="scale(0.015625)"/>
       <path id="DejaVuSans-28" d="M 1984 4856 
Q 1566 4138 1362 3434 
Q 1159 2731 1159 2009 
Q 1159 1288 1364 580 
Q 1569 -128 1984 -844 
L 1484 -844 
Q 1016 -109 783 600 
Q 550 1309 550 2009 
Q 550 2706 781 3412 
Q 1013 4119 1484 4856 
L 1984 4856 
z
" transform="scale(0.015625)"/>
       <path id="DejaVuSans-59" d="M -13 4666 
L 666 4666 
L 1959 2747 
L 3244 4666 
L 3922 4666 
L 2272 2222 
L 2272 0 
L 1638 0 
L 1638 2222 
L -13 4666 
z
" transform="scale(0.015625)"/>
       <path id="DejaVuSans-61" d="M 2194 1759 
Q 1497 1759 1228 1600 
Q 959 1441 959 1056 
Q 959 750 1161 570 
Q 1363 391 1709 391 
Q 2188 391 2477 730 
Q 2766 1069 2766 1631 
L 2766 1759 
L 2194 1759 
z
M 3341 1997 
L 3341 0 
L 2766 0 
L 2766 531 
Q 2569 213 2275 61 
Q 1981 -91 1556 -91 
Q 1019 -91 701 211 
Q 384 513 384 1019 
Q 384 1609 779 1909 
Q 1175 2209 1959 2209 
L 2766 2209 
L 2766 2266 
Q 2766 2663 2505 2880 
Q 2244 3097 1772 3097 
Q 1472 3097 1187 3025 
Q 903 2953 641 2809 
L 641 3341 
Q 956 3463 1253 3523 
Q 1550 3584 1831 3584 
Q 2591 3584 2966 3190 
Q 3341 2797 3341 1997 
z
" transform="scale(0.015625)"/>
       <path id="DejaVuSans-72" d="M 2631 2963 
Q 2534 3019 2420 3045 
Q 2306 3072 2169 3072 
Q 1681 3072 1420 2755 
Q 1159 2438 1159 1844 
L 1159 0 
L 581 0 
L 581 3500 
L 1159 3500 
L 1159 2956 
Q 1341 3275 1631 3429 
Q 1922 3584 2338 3584 
Q 2397 3584 2469 3576 
Q 2541 3569 2628 3553 
L 2631 2963 
z
" transform="scale(0.015625)"/>
       <path id="DejaVuSans-73" d="M 2834 3397 
L 2834 2853 
Q 2591 2978 2328 3040 
Q 2066 3103 1784 3103 
Q 1356 3103 1142 2972 
Q 928 2841 928 2578 
Q 928 2378 1081 2264 
Q 1234 2150 1697 2047 
L 1894 2003 
Q 2506 1872 2764 1633 
Q 3022 1394 3022 966 
Q 3022 478 2636 193 
Q 2250 -91 1575 -91 
Q 1294 -91 989 -36 
Q 684 19 347 128 
L 347 722 
Q 666 556 975 473 
Q 1284 391 1588 391 
Q 1994 391 2212 530 
Q 2431 669 2431 922 
Q 2431 1156 2273 1281 
Q 2116 1406 1581 1522 
L 1381 1569 
Q 847 1681 609 1914 
Q 372 2147 372 2553 
Q 372 3047 722 3315 
Q 1072 3584 1716 3584 
Q 2034 3584 2315 3537 
Q 2597 3491 2834 3397 
z
" transform="scale(0.015625)"/>
       <path id="DejaVuSans-29" d="M 513 4856 
L 1013 4856 
Q 1481 4119 1714 3412 
Q 1947 2706 1947 2009 
Q 1947 1309 1714 600 
Q 1481 -109 1013 -844 
L 513 -844 
Q 928 -128 1133 580 
Q 1338 1288 1338 2009 
Q 1338 2731 1133 3434 
Q 928 4138 513 4856 
z
" transform="scale(0.015625)"/>
      </defs>
      <use xlink:href="#DejaVuSans-54"/>
      <use xlink:href="#DejaVuSans-69" transform="translate(57.958984 0)"/>
      <use xlink:href="#DejaVuSans-6d" transform="translate(85.742188 0)"/>
      <use xlink:href="#DejaVuSans-65" transform="translate(183.154297 0)"/>
      <use xlink:href="#DejaVuSans-20" transform="translate(244.677734 0)"/>
      <use xlink:href="#DejaVuSans-28" transform="translate(276.464844 0)"/>
      <use xlink:href="#DejaVuSans-59" transform="translate(315.478516 0)"/>
      <use xlink:href="#DejaVuSans-65" transform="translate(363.3125 0)"/>
      <use xlink:href="#DejaVuSans-61" transform="translate(424.835938 0)"/>
      <use xlink:href="#DejaVuSans-72" transform="translate(486.115234 0)"/>
      <use xlink:href="#DejaVuSans-73" transform="translate(527.228516 0)"/>
      <use xlink:href="#DejaVuSans-29" transform="translate(579.328125 0)"/>
     </g>
    </g>
   </g>
   <g id="matplotlib.axis_2">
    <g id="ytick_1">
     <g id="line2d_7">
      <path d="M 86.618125 437.266371 
L 983.898125 437.266371 
" clip-path="url(#p7c18fface1)" style="fill: none; stroke: #ffffff; stroke-linecap: round"/>
     </g>
     <g id="text_8">
      <!-- 52.5 -->
      <g style="fill: #262626" transform="translate(39.266563 443.725043) scale(0.17 -0.17)">
       <defs>
        <path id="DejaVuSans-35" d="M 691 4666 
L 3169 4666 
L 3169 4134 
L 1269 4134 
L 1269 2991 
Q 1406 3038 1543 3061 
Q 1681 3084 1819 3084 
Q 2600 3084 3056 2656 
Q 3513 2228 3513 1497 
Q 3513 744 3044 326 
Q 2575 -91 1722 -91 
Q 1428 -91 1123 -41 
Q 819 9 494 109 
L 494 744 
Q 775 591 1075 516 
Q 1375 441 1709 441 
Q 2250 441 2565 725 
Q 2881 1009 2881 1497 
Q 2881 1984 2565 2268 
Q 2250 2553 1709 2553 
Q 1456 2553 1204 2497 
Q 953 2441 691 2322 
L 691 4666 
z
" transform="scale(0.015625)"/>
        <path id="DejaVuSans-2e" d="M 684 794 
L 1344 794 
L 1344 0 
L 684 0 
L 684 794 
z
" transform="scale(0.015625)"/>
       </defs>
       <use xlink:href="#DejaVuSans-35"/>
       <use xlink:href="#DejaVuSans-32" transform="translate(63.623047 0)"/>
       <use xlink:href="#DejaVuSans-2e" transform="translate(127.246094 0)"/>
       <use xlink:href="#DejaVuSans-35" transform="translate(159.033203 0)"/>
      </g>
     </g>
    </g>
    <g id="ytick_2">
     <g id="line2d_8">
      <path d="M 86.618125 346.885055 
L 983.898125 346.885055 
" clip-path="url(#p7c18fface1)" style="fill: none; stroke: #ffffff; stroke-linecap: round"/>
     </g>
     <g id="text_9">
      <!-- 53.0 -->
      <g style="fill: #262626" transform="translate(39.266563 353.343727) scale(0.17 -0.17)">
       <defs>
        <path id="DejaVuSans-33" d="M 2597 2516 
Q 3050 2419 3304 2112 
Q 3559 1806 3559 1356 
Q 3559 666 3084 287 
Q 2609 -91 1734 -91 
Q 1441 -91 1130 -33 
Q 819 25 488 141 
L 488 750 
Q 750 597 1062 519 
Q 1375 441 1716 441 
Q 2309 441 2620 675 
Q 2931 909 2931 1356 
Q 2931 1769 2642 2001 
Q 2353 2234 1838 2234 
L 1294 2234 
L 1294 2753 
L 1863 2753 
Q 2328 2753 2575 2939 
Q 2822 3125 2822 3475 
Q 2822 3834 2567 4026 
Q 2313 4219 1838 4219 
Q 1578 4219 1281 4162 
Q 984 4106 628 3988 
L 628 4550 
Q 988 4650 1302 4700 
Q 1616 4750 1894 4750 
Q 2613 4750 3031 4423 
Q 3450 4097 3450 3541 
Q 3450 3153 3228 2886 
Q 3006 2619 2597 2516 
z
" transform="scale(0.015625)"/>
       </defs>
       <use xlink:href="#DejaVuSans-35"/>
       <use xlink:href="#DejaVuSans-33" transform="translate(63.623047 0)"/>
       <use xlink:href="#DejaVuSans-2e" transform="translate(127.246094 0)"/>
       <use xlink:href="#DejaVuSans-30" transform="translate(159.033203 0)"/>
      </g>
     </g>
    </g>
    <g id="ytick_3">
     <g id="line2d_9">
      <path d="M 86.618125 256.503739 
L 983.898125 256.503739 
" clip-path="url(#p7c18fface1)" style="fill: none; stroke: #ffffff; stroke-linecap: round"/>
     </g>
     <g id="text_10">
      <!-- 53.5 -->
      <g style="fill: #262626" transform="translate(39.266563 262.962411) scale(0.17 -0.17)">
       <use xlink:href="#DejaVuSans-35"/>
       <use xlink:href="#DejaVuSans-33" transform="translate(63.623047 0)"/>
       <use xlink:href="#DejaVuSans-2e" transform="translate(127.246094 0)"/>
       <use xlink:href="#DejaVuSans-35" transform="translate(159.033203 0)"/>
      </g>
     </g>
    </g>
    <g id="ytick_4">
     <g id="line2d_10">
      <path d="M 86.618125 166.122423 
L 983.898125 166.122423 
" clip-path="url(#p7c18fface1)" style="fill: none; stroke: #ffffff; stroke-linecap: round"/>
     </g>
     <g id="text_11">
      <!-- 54.0 -->
      <g style="fill: #262626" transform="translate(39.266563 172.581095) scale(0.17 -0.17)">
       <use xlink:href="#DejaVuSans-35"/>
       <use xlink:href="#DejaVuSans-34" transform="translate(63.623047 0)"/>
       <use xlink:href="#DejaVuSans-2e" transform="translate(127.246094 0)"/>
       <use xlink:href="#DejaVuSans-30" transform="translate(159.033203 0)"/>
      </g>
     </g>
    </g>
    <g id="ytick_5">
     <g id="line2d_11">
      <path d="M 86.618125 75.741107 
L 983.898125 75.741107 
" clip-path="url(#p7c18fface1)" style="fill: none; stroke: #ffffff; stroke-linecap: round"/>
     </g>
     <g id="text_12">
      <!-- 54.5 -->
      <g style="fill: #262626" transform="translate(39.266563 82.199779) scale(0.17 -0.17)">
       <use xlink:href="#DejaVuSans-35"/>
       <use xlink:href="#DejaVuSans-34" transform="translate(63.623047 0)"/>
       <use xlink:href="#DejaVuSans-2e" transform="translate(127.246094 0)"/>
       <use xlink:href="#DejaVuSans-35" transform="translate(159.033203 0)"/>
      </g>
     </g>
    </g>
    <g id="text_13">
     <!-- Soil organic carbon (0-15cm,Mg ha⁻¹) -->
     <g style="fill: #262626" transform="translate(29.235469 527.309687) rotate(-90) scale(0.29 -0.29)">
      <defs>
       <path id="DejaVuSans-53" d="M 3425 4513 
L 3425 3897 
Q 3066 4069 2747 4153 
Q 2428 4238 2131 4238 
Q 1616 4238 1336 4038 
Q 1056 3838 1056 3469 
Q 1056 3159 1242 3001 
Q 1428 2844 1947 2747 
L 2328 2669 
Q 3034 2534 3370 2195 
Q 3706 1856 3706 1288 
Q 3706 609 3251 259 
Q 2797 -91 1919 -91 
Q 1588 -91 1214 -16 
Q 841 59 441 206 
L 441 856 
Q 825 641 1194 531 
Q 1563 422 1919 422 
Q 2459 422 2753 634 
Q 3047 847 3047 1241 
Q 3047 1584 2836 1778 
Q 2625 1972 2144 2069 
L 1759 2144 
Q 1053 2284 737 2584 
Q 422 2884 422 3419 
Q 422 4038 858 4394 
Q 1294 4750 2059 4750 
Q 2388 4750 2728 4690 
Q 3069 4631 3425 4513 
z
" transform="scale(0.015625)"/>
       <path id="DejaVuSans-6f" d="M 1959 3097 
Q 1497 3097 1228 2736 
Q 959 2375 959 1747 
Q 959 1119 1226 758 
Q 1494 397 1959 397 
Q 2419 397 2687 759 
Q 2956 1122 2956 1747 
Q 2956 2369 2687 2733 
Q 2419 3097 1959 3097 
z
M 1959 3584 
Q 2709 3584 3137 3096 
Q 3566 2609 3566 1747 
Q 3566 888 3137 398 
Q 2709 -91 1959 -91 
Q 1206 -91 779 398 
Q 353 888 353 1747 
Q 353 2609 779 3096 
Q 1206 3584 1959 3584 
z
" transform="scale(0.015625)"/>
       <path id="DejaVuSans-6c" d="M 603 4863 
L 1178 4863 
L 1178 0 
L 603 0 
L 603 4863 
z
" transform="scale(0.015625)"/>
       <path id="DejaVuSans-67" d="M 2906 1791 
Q 2906 2416 2648 2759 
Q 2391 3103 1925 3103 
Q 1463 3103 1205 2759 
Q 947 2416 947 1791 
Q 947 1169 1205 825 
Q 1463 481 1925 481 
Q 2391 481 2648 825 
Q 2906 1169 2906 1791 
z
M 3481 434 
Q 3481 -459 3084 -895 
Q 2688 -1331 1869 -1331 
Q 1566 -1331 1297 -1286 
Q 1028 -1241 775 -1147 
L 775 -588 
Q 1028 -725 1275 -790 
Q 1522 -856 1778 -856 
Q 2344 -856 2625 -561 
Q 2906 -266 2906 331 
L 2906 616 
Q 2728 306 2450 153 
Q 2172 0 1784 0 
Q 1141 0 747 490 
Q 353 981 353 1791 
Q 353 2603 747 3093 
Q 1141 3584 1784 3584 
Q 2172 3584 2450 3431 
Q 2728 3278 2906 2969 
L 2906 3500 
L 3481 3500 
L 3481 434 
z
" transform="scale(0.015625)"/>
       <path id="DejaVuSans-6e" d="M 3513 2113 
L 3513 0 
L 2938 0 
L 2938 2094 
Q 2938 2591 2744 2837 
Q 2550 3084 2163 3084 
Q 1697 3084 1428 2787 
Q 1159 2491 1159 1978 
L 1159 0 
L 581 0 
L 581 3500 
L 1159 3500 
L 1159 2956 
Q 1366 3272 1645 3428 
Q 1925 3584 2291 3584 
Q 2894 3584 3203 3211 
Q 3513 2838 3513 2113 
z
" transform="scale(0.015625)"/>
       <path id="DejaVuSans-63" d="M 3122 3366 
L 3122 2828 
Q 2878 2963 2633 3030 
Q 2388 3097 2138 3097 
Q 1578 3097 1268 2742 
Q 959 2388 959 1747 
Q 959 1106 1268 751 
Q 1578 397 2138 397 
Q 2388 397 2633 464 
Q 2878 531 3122 666 
L 3122 134 
Q 2881 22 2623 -34 
Q 2366 -91 2075 -91 
Q 1284 -91 818 406 
Q 353 903 353 1747 
Q 353 2603 823 3093 
Q 1294 3584 2113 3584 
Q 2378 3584 2631 3529 
Q 2884 3475 3122 3366 
z
" transform="scale(0.015625)"/>
       <path id="DejaVuSans-62" d="M 3116 1747 
Q 3116 2381 2855 2742 
Q 2594 3103 2138 3103 
Q 1681 3103 1420 2742 
Q 1159 2381 1159 1747 
Q 1159 1113 1420 752 
Q 1681 391 2138 391 
Q 2594 391 2855 752 
Q 3116 1113 3116 1747 
z
M 1159 2969 
Q 1341 3281 1617 3432 
Q 1894 3584 2278 3584 
Q 2916 3584 3314 3078 
Q 3713 2572 3713 1747 
Q 3713 922 3314 415 
Q 2916 -91 2278 -91 
Q 1894 -91 1617 61 
Q 1341 213 1159 525 
L 1159 0 
L 581 0 
L 581 4863 
L 1159 4863 
L 1159 2969 
z
" transform="scale(0.015625)"/>
       <path id="DejaVuSans-2d" d="M 313 2009 
L 1997 2009 
L 1997 1497 
L 313 1497 
L 313 2009 
z
" transform="scale(0.015625)"/>
       <path id="DejaVuSans-2c" d="M 750 794 
L 1409 794 
L 1409 256 
L 897 -744 
L 494 -744 
L 750 256 
L 750 794 
z
" transform="scale(0.015625)"/>
       <path id="DejaVuSans-4d" d="M 628 4666 
L 1569 4666 
L 2759 1491 
L 3956 4666 
L 4897 4666 
L 4897 0 
L 4281 0 
L 4281 4097 
L 3078 897 
L 2444 897 
L 1241 4097 
L 1241 0 
L 628 0 
L 628 4666 
z
" transform="scale(0.015625)"/>
       <path id="DejaVuSans-68" d="M 3513 2113 
L 3513 0 
L 2938 0 
L 2938 2094 
Q 2938 2591 2744 2837 
Q 2550 3084 2163 3084 
Q 1697 3084 1428 2787 
Q 1159 2491 1159 1978 
L 1159 0 
L 581 0 
L 581 4863 
L 1159 4863 
L 1159 2956 
Q 1366 3272 1645 3428 
Q 1925 3584 2291 3584 
Q 2894 3584 3203 3211 
Q 3513 2838 3513 2113 
z
" transform="scale(0.015625)"/>
       <path id="DejaVuSans-207b" d="M 428 3359 
L 2950 3359 
L 2950 3063 
L 428 3063 
L 428 3359 
z
" transform="scale(0.015625)"/>
       <path id="DejaVuSans-b9" d="M 488 2431 
L 1125 2431 
L 1125 4341 
L 428 4213 
L 428 4575 
L 1147 4697 
L 1575 4697 
L 1575 2431 
L 2216 2431 
L 2216 2088 
L 488 2088 
L 488 2431 
z
" transform="scale(0.015625)"/>
      </defs>
      <use xlink:href="#DejaVuSans-53"/>
      <use xlink:href="#DejaVuSans-6f" transform="translate(63.476562 0)"/>
      <use xlink:href="#DejaVuSans-69" transform="translate(124.658203 0)"/>
      <use xlink:href="#DejaVuSans-6c" transform="translate(152.441406 0)"/>
      <use xlink:href="#DejaVuSans-20" transform="translate(180.224609 0)"/>
      <use xlink:href="#DejaVuSans-6f" transform="translate(212.011719 0)"/>
      <use xlink:href="#DejaVuSans-72" transform="translate(273.193359 0)"/>
      <use xlink:href="#DejaVuSans-67" transform="translate(312.556641 0)"/>
      <use xlink:href="#DejaVuSans-61" transform="translate(376.033203 0)"/>
      <use xlink:href="#DejaVuSans-6e" transform="translate(437.3125 0)"/>
      <use xlink:href="#DejaVuSans-69" transform="translate(500.691406 0)"/>
      <use xlink:href="#DejaVuSans-63" transform="translate(528.474609 0)"/>
      <use xlink:href="#DejaVuSans-20" transform="translate(583.455078 0)"/>
      <use xlink:href="#DejaVuSans-63" transform="translate(615.242188 0)"/>
      <use xlink:href="#DejaVuSans-61" transform="translate(670.222656 0)"/>
      <use xlink:href="#DejaVuSans-72" transform="translate(731.501953 0)"/>
      <use xlink:href="#DejaVuSans-62" transform="translate(772.615234 0)"/>
      <use xlink:href="#DejaVuSans-6f" transform="translate(836.091797 0)"/>
      <use xlink:href="#DejaVuSans-6e" transform="translate(897.273438 0)"/>
      <use xlink:href="#DejaVuSans-20" transform="translate(960.652344 0)"/>
      <use xlink:href="#DejaVuSans-28" transform="translate(992.439453 0)"/>
      <use xlink:href="#DejaVuSans-30" transform="translate(1031.453125 0)"/>
      <use xlink:href="#DejaVuSans-2d" transform="translate(1095.076172 0)"/>
      <use xlink:href="#DejaVuSans-31" transform="translate(1131.160156 0)"/>
      <use xlink:href="#DejaVuSans-35" transform="translate(1194.783203 0)"/>
      <use xlink:href="#DejaVuSans-63" transform="translate(1258.40625 0)"/>
      <use xlink:href="#DejaVuSans-6d" transform="translate(1313.386719 0)"/>
      <use xlink:href="#DejaVuSans-2c" transform="translate(1410.798828 0)"/>
      <use xlink:href="#DejaVuSans-4d" transform="translate(1442.585938 0)"/>
      <use xlink:href="#DejaVuSans-67" transform="translate(1528.865234 0)"/>
      <use xlink:href="#DejaVuSans-20" transform="translate(1592.341797 0)"/>
      <use xlink:href="#DejaVuSans-68" transform="translate(1624.128906 0)"/>
      <use xlink:href="#DejaVuSans-61" transform="translate(1687.507812 0)"/>
      <use xlink:href="#DejaVuSans-207b" transform="translate(1748.787109 0)"/>
      <use xlink:href="#DejaVuSans-b9" transform="translate(1801.570312 0)"/>
      <use xlink:href="#DejaVuSans-29" transform="translate(1841.658203 0)"/>
     </g>
    </g>
   </g>
   <g id="line2d_12">
    <path d="M 127.40358 479.528182 
L 135.56067 461.065936 
L 143.717761 415.328434 
L 151.874852 369.620271 
L 160.031943 327.497876 
L 168.189034 292.493906 
L 176.346125 277.424735 
L 184.503216 256.945252 
L 192.660307 249.546327 
L 200.817398 253.276 
L 208.974489 275.157673 
L 217.13158 274.198626 
L 225.28867 242.915898 
L 233.445761 231.622624 
L 241.602852 216.06867 
L 249.759943 219.466026 
L 257.917034 238.32809 
L 266.074125 265.772789 
L 274.231216 286.44978 
L 282.388307 291.113087 
L 290.545398 293.846918 
L 298.702489 301.363955 
L 306.85958 313.884184 
L 315.01667 314.391228 
L 323.173761 292.722945 
L 331.330852 260.601908 
L 339.487943 228.046879 
L 347.645034 231.718318 
L 355.802125 258.187543 
L 363.959216 290.185315 
L 372.116307 325.910578 
L 380.273398 333.736147 
L 388.430489 321.826168 
L 396.58758 321.916006 
L 404.74467 326.144368 
L 412.901761 323.652097 
L 421.058852 297.807243 
L 429.215943 292.999869 
L 437.373034 311.085427 
L 445.530125 333.164992 
L 453.687216 342.832198 
L 461.844307 346.855826 
L 470.001398 330.494113 
L 478.158489 307.25356 
L 486.31558 300.13379 
L 494.47267 316.611558 
L 502.629761 332.384917 
L 510.786852 323.434916 
L 518.943943 316.100566 
L 527.101034 315.323064 
L 535.258125 329.178336 
L 543.415216 330.098897 
L 551.572307 334.604916 
L 559.729398 332.287771 
L 567.886489 309.658956 
L 576.04358 279.695261 
L 584.20067 267.688504 
L 592.357761 262.180174 
L 600.514852 276.523553 
L 608.671943 301.435422 
L 616.829034 308.084189 
L 624.986125 303.517289 
L 633.143216 295.893122 
L 641.300307 279.312456 
L 649.457398 270.34028 
L 657.614489 269.700551 
L 665.77158 280.907541 
L 673.92867 311.906598 
L 682.085761 329.494632 
L 690.242852 326.255005 
L 698.399943 332.204673 
L 706.557034 330.900123 
L 714.714125 333.567911 
L 722.871216 330.926052 
L 731.028307 339.478472 
L 739.185398 347.898197 
L 747.342489 341.221875 
L 755.49958 338.992262 
L 763.65667 331.409561 
L 771.813761 334.340507 
L 779.970852 336.595287 
L 788.127943 329.381101 
L 796.285034 313.066766 
L 804.442125 325.087237 
L 812.599216 340.074718 
L 820.756307 350.151572 
L 828.913398 343.738797 
L 837.070489 342.906061 
L 845.22758 344.640309 
L 853.38467 326.485234 
L 861.541761 326.707835 
L 869.698852 341.216296 
L 877.855943 339.750421 
L 886.013034 336.334834 
L 894.170125 343.109068 
L 902.327216 358.798505 
L 910.484307 358.592391 
L 918.641398 361.521146 
L 926.798489 379.946467 
L 934.95558 386.294495 
L 943.11267 372.92979 
" clip-path="url(#p7c18fface1)" style="fill: none; stroke: #1f77b4; stroke-width: 1.5; stroke-linecap: round"/>
   </g>
   <g id="line2d_13">
    <path d="M 127.40358 473.049209 
L 135.56067 414.018008 
L 143.717761 348.927603 
L 151.874852 285.844506 
L 160.031943 239.171959 
L 168.189034 208.374193 
L 176.346125 210.07236 
L 184.503216 205.586802 
L 192.660307 198.043008 
L 200.817398 213.775394 
L 208.974489 230.561634 
L 217.13158 208.807658 
L 225.28867 174.428241 
L 233.445761 151.892274 
L 241.602852 146.991637 
L 249.759943 171.237328 
L 257.917034 199.45547 
L 266.074125 239.186672 
L 274.231216 256.41795 
L 282.388307 249.158803 
L 290.545398 246.282287 
L 298.702489 265.612754 
L 306.85958 267.227831 
L 315.01667 257.510538 
L 323.173761 224.151413 
L 331.330852 183.377466 
L 339.487943 171.428033 
L 347.645034 198.470688 
L 355.802125 230.022922 
L 363.959216 276.090139 
L 372.116307 308.9595 
L 380.273398 304.870476 
L 388.430489 298.944832 
L 396.58758 279.32409 
L 404.74467 276.479401 
L 412.901761 283.732262 
L 421.058852 264.034659 
L 429.215943 267.062989 
L 437.373034 291.521412 
L 445.530125 316.245782 
L 453.687216 319.189653 
L 461.844307 300.299471 
L 470.001398 273.369608 
L 478.158489 249.116281 
L 486.31558 255.156819 
L 494.47267 289.463823 
L 502.629761 291.216813 
L 510.786852 277.656522 
L 518.943943 275.05433 
L 527.101034 278.039832 
L 535.258125 310.323579 
L 543.415216 310.280697 
L 551.572307 303.786939 
L 559.729398 291.995446 
L 567.886489 266.768793 
L 576.04358 242.758245 
L 584.20067 220.095271 
L 592.357761 211.287073 
L 600.514852 227.88683 
L 608.671943 265.561517 
L 616.829034 277.47375 
L 624.986125 270.836169 
L 633.143216 260.956377 
L 641.300307 229.836269 
L 649.457398 221.239895 
L 657.614489 232.668119 
L 665.77158 258.784917 
L 673.92867 292.840813 
L 682.085761 297.779774 
L 690.242852 300.255057 
L 698.399943 295.278481 
L 706.557034 290.48774 
L 714.714125 283.942442 
L 722.871216 297.393631 
L 731.028307 320.533676 
L 739.185398 333.839007 
L 747.342489 323.718244 
L 755.49958 308.474856 
L 763.65667 296.155616 
L 771.813761 311.712199 
L 779.970852 304.976145 
L 788.127943 285.904144 
L 796.285034 280.062267 
L 804.442125 315.814594 
L 812.599216 333.796647 
L 820.756307 327.512945 
L 828.913398 317.675578 
L 837.070489 321.982745 
L 845.22758 305.277132 
L 853.38467 293.400514 
L 861.541761 309.564853 
L 869.698852 328.673625 
L 877.855943 314.107884 
L 886.013034 307.029786 
L 894.170125 317.951763 
L 902.327216 335.990228 
L 910.484307 337.169924 
L 918.641398 350.816862 
L 926.798489 374.773209 
L 934.95558 359.013463 
L 943.11267 331.103087 
" clip-path="url(#p7c18fface1)" style="fill: none; stroke: #ff7f0e; stroke-width: 1.5; stroke-linecap: round"/>
   </g>
   <g id="line2d_14">
    <path d="M 127.40358 467.406389 
L 135.56067 371.265189 
L 143.717761 281.445096 
L 151.874852 198.882859 
L 160.031943 153.307771 
L 168.189034 134.992365 
L 176.346125 157.097992 
L 184.503216 166.530243 
L 192.660307 152.915677 
L 200.817398 175.733982 
L 208.974489 189.161574 
L 217.13158 150.081581 
L 225.28867 112.032477 
L 233.445761 86.342642 
L 241.602852 98.62 
L 249.759943 138.033564 
L 257.917034 171.430747 
L 266.074125 218.976483 
L 274.231216 231.816887 
L 282.388307 213.426385 
L 290.545398 202.915701 
L 298.702489 235.667615 
L 306.85958 225.472297 
L 315.01667 200.196056 
L 323.173761 156.6214 
L 331.330852 115.356312 
L 339.487943 132.058709 
L 347.645034 178.226535 
L 355.802125 211.931634 
L 363.959216 266.667641 
L 372.116307 296.653568 
L 380.273398 278.898727 
L 388.430489 277.828059 
L 396.58758 241.85029 
L 404.74467 227.59597 
L 412.901761 244.688707 
L 421.058852 235.189268 
L 429.215943 248.926383 
L 437.373034 273.868853 
L 445.530125 299.276734 
L 453.687216 296.782632 
L 461.844307 252.195286 
L 470.001398 216.539737 
L 478.158489 195.414078 
L 486.31558 219.169833 
L 494.47267 268.831354 
L 502.629761 254.864037 
L 510.786852 236.51606 
L 518.943943 239.248511 
L 527.101034 245.72938 
L 535.258125 296.932916 
L 543.415216 295.536879 
L 551.572307 275.628774 
L 559.729398 255.164882 
L 567.886489 225.216471 
L 576.04358 209.29238 
L 584.20067 181.206779 
L 592.357761 167.962303 
L 600.514852 184.025782 
L 608.671943 236.732343 
L 616.829034 251.69186 
L 624.986125 244.691493 
L 633.143216 235.004895 
L 641.300307 185.815894 
L 649.457398 175.657576 
L 657.614489 204.198485 
L 665.77158 243.193949 
L 673.92867 277.608954 
L 682.085761 270.650391 
L 690.242852 275.757081 
L 698.399943 260.718386 
L 706.557034 258.482803 
L 714.714125 243.448793 
L 722.871216 273.913634 
L 731.028307 306.578035 
L 739.185398 322.233971 
L 747.342489 305.372779 
L 755.49958 268.728011 
L 763.65667 253.508467 
L 771.813761 290.842977 
L 779.970852 276.142562 
L 788.127943 236.665495 
L 796.285034 247.001005 
L 804.442125 307.538027 
L 812.599216 329.292359 
L 820.756307 308.075088 
L 828.913398 290.738459 
L 837.070489 301.396085 
L 845.22758 267.086527 
L 853.38467 263.795308 
L 861.541761 295.426058 
L 869.698852 316.383872 
L 877.855943 294.700335 
L 886.013034 284.786879 
L 894.170125 298.429112 
L 902.327216 318.523364 
L 910.484307 322.022176 
L 918.641398 344.070109 
L 926.798489 367.897368 
L 934.95558 339.861184 
L 943.11267 296.741102 
" clip-path="url(#p7c18fface1)" style="fill: none; stroke: #2ca02c; stroke-width: 1.5; stroke-linecap: round"/>
   </g>
   <g id="line2d_15">
    <path d="M 127.40358 463.871718 
L 135.56067 339.410968 
L 143.717761 225.15381 
L 151.874852 119.124046 
L 160.031943 70.345462 
L 168.189034 69.651667 
L 176.346125 108.271754 
L 184.503216 129.952613 
L 192.660307 109.788711 
L 200.817398 133.502308 
L 208.974489 147.135934 
L 217.13158 100.177568 
L 225.28867 56.248074 
L 233.445761 29.691818 
L 241.602852 55.353619 
L 249.759943 100.924192 
L 257.917034 136.613772 
L 266.074125 194.156313 
L 274.231216 205.282765 
L 282.388307 180.961229 
L 290.545398 164.851666 
L 298.702489 210.777032 
L 306.85958 198.937481 
L 315.01667 161.307734 
L 323.173761 110.538111 
L 331.330852 62.11918 
L 339.487943 93.681108 
L 347.645034 155.496186 
L 355.802125 192.704468 
L 363.959216 253.525238 
L 372.116307 286.171235 
L 380.273398 259.734252 
L 388.430489 260.720668 
L 396.58758 212.024594 
L 404.74467 186.45547 
L 412.901761 208.303966 
L 421.058852 206.148571 
L 429.215943 229.608212 
L 437.373034 254.772915 
L 445.530125 279.423531 
L 453.687216 276.042557 
L 461.844307 218.133558 
L 470.001398 174.283708 
L 478.158489 153.892853 
L 486.31558 193.711609 
L 494.47267 251.636266 
L 502.629761 226.249307 
L 510.786852 200.999044 
L 518.943943 200.638797 
L 527.101034 209.176668 
L 535.258125 282.956081 
L 543.415216 282.621864 
L 551.572307 246.199703 
L 559.729398 220.52109 
L 567.886489 192.3888 
L 576.04358 180.10154 
L 584.20067 147.646494 
L 592.357761 129.364922 
L 600.514852 143.972902 
L 608.671943 206.344589 
L 616.829034 228.29002 
L 624.986125 228.214275 
L 633.143216 212.988753 
L 641.300307 142.82964 
L 649.457398 132.174392 
L 657.614489 177.742282 
L 665.77158 227.476594 
L 673.92867 261.727692 
L 682.085761 250.086604 
L 690.242852 253.58945 
L 698.399943 227.640957 
L 706.557034 229.156719 
L 714.714125 212.308449 
L 722.871216 256.219799 
L 731.028307 290.677968 
L 739.185398 307.376289 
L 747.342489 288.182132 
L 755.49958 240.21309 
L 763.65667 223.147033 
L 771.813761 270.014963 
L 779.970852 250.856401 
L 788.127943 195.026548 
L 796.285034 221.209646 
L 804.442125 296.859609 
L 812.599216 318.490798 
L 820.756307 287.315944 
L 828.913398 267.464554 
L 837.070489 282.522566 
L 845.22758 234.952266 
L 853.38467 240.265774 
L 861.541761 279.92975 
L 869.698852 298.174604 
L 877.855943 272.344466 
L 886.013034 262.307302 
L 894.170125 279.659945 
L 902.327216 302.424894 
L 910.484307 312.936135 
L 918.641398 342.234533 
L 926.798489 362.27316 
L 934.95558 317.571872 
L 943.11267 266.364932 
" clip-path="url(#p7c18fface1)" style="fill: none; stroke: #d62728; stroke-width: 1.5; stroke-linecap: round"/>
   </g>
   <g id="line2d_16"/>
   <g id="line2d_17"/>
   <g id="line2d_18"/>
   <g id="line2d_19"/>
   <g id="patch_3">
    <path d="M 86.618125 502.02 
L 86.618125 7.2 
" style="fill: none; stroke: #ffffff; stroke-width: 1.25; stroke-linejoin: miter; stroke-linecap: square"/>
   </g>
   <g id="patch_4">
    <path d="M 86.618125 502.02 
L 983.898125 502.02 
" style="fill: none; stroke: #ffffff; stroke-width: 1.25; stroke-linejoin: miter; stroke-linecap: square"/>
   </g>
  </g>
  <g id="legend_1">
   <g id="line2d_20">
    <path d="M 858.3336 49.236875 
L 878.3336 49.236875 
L 898.3336 49.236875 
" style="fill: none; stroke: #1f77b4; stroke-width: 1.5; stroke-linecap: round"/>
   </g>
   <g id="text_14">
    <!-- 10% -->
    <g style="fill: #262626" transform="translate(914.3336 56.236875) scale(0.2 -0.2)">
     <defs>
      <path id="DejaVuSans-25" d="M 4653 2053 
Q 4381 2053 4226 1822 
Q 4072 1591 4072 1178 
Q 4072 772 4226 539 
Q 4381 306 4653 306 
Q 4919 306 5073 539 
Q 5228 772 5228 1178 
Q 5228 1588 5073 1820 
Q 4919 2053 4653 2053 
z
M 4653 2450 
Q 5147 2450 5437 2106 
Q 5728 1763 5728 1178 
Q 5728 594 5436 251 
Q 5144 -91 4653 -91 
Q 4153 -91 3862 251 
Q 3572 594 3572 1178 
Q 3572 1766 3864 2108 
Q 4156 2450 4653 2450 
z
M 1428 4353 
Q 1159 4353 1004 4120 
Q 850 3888 850 3481 
Q 850 3069 1003 2837 
Q 1156 2606 1428 2606 
Q 1700 2606 1854 2837 
Q 2009 3069 2009 3481 
Q 2009 3884 1853 4118 
Q 1697 4353 1428 4353 
z
M 4250 4750 
L 4750 4750 
L 1831 -91 
L 1331 -91 
L 4250 4750 
z
M 1428 4750 
Q 1922 4750 2215 4408 
Q 2509 4066 2509 3481 
Q 2509 2891 2217 2550 
Q 1925 2209 1428 2209 
Q 931 2209 642 2551 
Q 353 2894 353 3481 
Q 353 4063 643 4406 
Q 934 4750 1428 4750 
z
" transform="scale(0.015625)"/>
     </defs>
     <use xlink:href="#DejaVuSans-31"/>
     <use xlink:href="#DejaVuSans-30" transform="translate(63.623047 0)"/>
     <use xlink:href="#DejaVuSans-25" transform="translate(127.246094 0)"/>
    </g>
   </g>
   <g id="line2d_21">
    <path d="M 858.3336 78.593125 
L 878.3336 78.593125 
L 898.3336 78.593125 
" style="fill: none; stroke: #ff7f0e; stroke-width: 1.5; stroke-linecap: round"/>
   </g>
   <g id="text_15">
    <!-- 37% -->
    <g style="fill: #262626" transform="translate(914.3336 85.593125) scale(0.2 -0.2)">
     <defs>
      <path id="DejaVuSans-37" d="M 525 4666 
L 3525 4666 
L 3525 4397 
L 1831 0 
L 1172 0 
L 2766 4134 
L 525 4134 
L 525 4666 
z
" transform="scale(0.015625)"/>
     </defs>
     <use xlink:href="#DejaVuSans-33"/>
     <use xlink:href="#DejaVuSans-37" transform="translate(63.623047 0)"/>
     <use xlink:href="#DejaVuSans-25" transform="translate(127.246094 0)"/>
    </g>
   </g>
   <g id="line2d_22">
    <path d="M 858.3336 107.949375 
L 878.3336 107.949375 
L 898.3336 107.949375 
" style="fill: none; stroke: #2ca02c; stroke-width: 1.5; stroke-linecap: round"/>
   </g>
   <g id="text_16">
    <!-- 63% -->
    <g style="fill: #262626" transform="translate(914.3336 114.949375) scale(0.2 -0.2)">
     <use xlink:href="#DejaVuSans-36"/>
     <use xlink:href="#DejaVuSans-33" transform="translate(63.623047 0)"/>
     <use xlink:href="#DejaVuSans-25" transform="translate(127.246094 0)"/>
    </g>
   </g>
   <g id="line2d_23">
    <path d="M 858.3336 137.305625 
L 878.3336 137.305625 
L 898.3336 137.305625 
" style="fill: none; stroke: #d62728; stroke-width: 1.5; stroke-linecap: round"/>
   </g>
   <g id="text_17">
    <!-- 90% -->
    <g style="fill: #262626" transform="translate(914.3336 144.305625) scale(0.2 -0.2)">
     <use xlink:href="#DejaVuSans-39"/>
     <use xlink:href="#DejaVuSans-30" transform="translate(63.623047 0)"/>
     <use xlink:href="#DejaVuSans-25" transform="translate(127.246094 0)"/>
    </g>
   </g>
  </g>
 </g>
 <defs>
  <clipPath id="p7c18fface1">
   <rect x="86.618125" y="7.2" width="897.28" height="494.82"/>
  </clipPath>
 </defs>
</svg>
