<?xml version="1.0" encoding="utf-8" standalone="no"?>
<!DOCTYPE svg PUBLIC "-//W3C//DTD SVG 1.1//EN"
  "http://www.w3.org/Graphics/SVG/1.1/DTD/svg11.dtd">
<svg xmlns:xlink="http://www.w3.org/1999/xlink" width="624.220625pt" height="563.368125pt" viewBox="0 0 624.220625 563.368125" xmlns="http://www.w3.org/2000/svg" version="1.1">
 <metadata>
  <rdf:RDF xmlns:dc="http://purl.org/dc/elements/1.1/" xmlns:cc="http://creativecommons.org/ns#" xmlns:rdf="http://www.w3.org/1999/02/22-rdf-syntax-ns#">
   <cc:Work>
    <dc:type rdf:resource="http://purl.org/dc/dcmitype/StillImage"/>
    <dc:date>2026-01-06T16:56:15.648371</dc:date>
    <dc:format>image/svg+xml</dc:format>
    <dc:creator>
     <cc:Agent>
      <dc:title>Matplotlib v3.10.6, https://matplotlib.org/</dc:title>
     </cc:Agent>
    </dc:creator>
   </cc:Work>
  </rdf:RDF>
 </metadata>
 <defs>
  <style type="text/css">*{stroke-linejoin: round; stroke-linecap: butt}</style>
 </defs>
 <g id="figure_1">
  <g id="patch_1">
   <path d="M 0 563.368125 
L 624.220625 563.368125 
L 624.220625 0 
L 0 0 
z
" style="fill: #ffffff"/>
  </g>
  <g id="axes_1">
   <g id="patch_2">
    <path d="M 108.250625 502.02 
L 617.020625 502.02 
L 617.020625 7.2 
L 108.250625 7.2 
z
" style="fill: #eaeaf2"/>
   </g>
   <g id="matplotlib.axis_1">
    <g id="xtick_1">
     <g id="line2d_1">
      <path d="M 108.250625 502.02 
L 108.250625 7.2 
" clip-path="url(#p8c9759ee92)" style="fill: none; stroke: #ffffff; stroke-linecap: round"/>
     </g>
     <g id="text_1">
      <!-- 1900 -->
      <g style="fill: #262626" transform="translate(86.618125 524.437344) scale(0.17 -0.17)">
       <defs>
        <path id="DejaVuSans-31" d="M 794 531 
L 1825 531 
L 1825 4091 
L 703 3866 
L 703 4441 
L 1819 4666 
L 2450 4666 
L 2450 531 
L 3481 531 
L 3481 0 
L 794 0 
L 794 531 
z
" transform="scale(0.015625)"/>
        <path id="DejaVuSans-39" d="M 703 97 
L 703 672 
Q 941 559 1184 500 
Q 1428 441 1663 441 
Q 2288 441 2617 861 
Q 2947 1281 2994 2138 
Q 2813 1869 2534 1725 
Q 2256 1581 1919 1581 
Q 1219 1581 811 2004 
Q 403 2428 403 3163 
Q 403 3881 828 4315 
Q 1253 4750 1959 4750 
Q 2769 4750 3195 4129 
Q 3622 3509 3622 2328 
Q 3622 1225 3098 567 
Q 2575 -91 1691 -91 
Q 1453 -91 1209 -44 
Q 966 3 703 97 
z
M 1959 2075 
Q 2384 2075 2632 2365 
Q 2881 2656 2881 3163 
Q 2881 3666 2632 3958 
Q 2384 4250 1959 4250 
Q 1534 4250 1286 3958 
Q 1038 3666 1038 3163 
Q 1038 2656 1286 2365 
Q 1534 2075 1959 2075 
z
" transform="scale(0.015625)"/>
        <path id="DejaVuSans-30" d="M 2034 4250 
Q 1547 4250 1301 3770 
Q 1056 3291 1056 2328 
Q 1056 1369 1301 889 
Q 1547 409 2034 409 
Q 2525 409 2770 889 
Q 3016 1369 3016 2328 
Q 3016 3291 2770 3770 
Q 2525 4250 2034 4250 
z
M 2034 4750 
Q 2819 4750 3233 4129 
Q 3647 3509 3647 2328 
Q 3647 1150 3233 529 
Q 2819 -91 2034 -91 
Q 1250 -91 836 529 
Q 422 1150 422 2328 
Q 422 3509 836 4129 
Q 1250 4750 2034 4750 
z
" transform="scale(0.015625)"/>
       </defs>
       <use xlink:href="#DejaVuSans-31"/>
       <use xlink:href="#DejaVuSans-39" transform="translate(63.623047 0)"/>
       <use xlink:href="#DejaVuSans-30" transform="translate(127.246094 0)"/>
       <use xlink:href="#DejaVuSans-30" transform="translate(190.869141 0)"/>
      </g>
     </g>
    </g>
    <g id="xtick_2">
     <g id="line2d_2">
      <path d="M 200.754261 502.02 
L 200.754261 7.2 
" clip-path="url(#p8c9759ee92)" style="fill: none; stroke: #ffffff; stroke-linecap: round"/>
     </g>
     <g id="text_2">
      <!-- 1920 -->
      <g style="fill: #262626" transform="translate(179.121761 524.437344) scale(0.17 -0.17)">
       <defs>
        <path id="DejaVuSans-32" d="M 1228 531 
L 3431 531 
L 3431 0 
L 469 0 
L 469 531 
Q 828 903 1448 1529 
Q 2069 2156 2228 2338 
Q 2531 2678 2651 2914 
Q 2772 3150 2772 3378 
Q 2772 3750 2511 3984 
Q 2250 4219 1831 4219 
Q 1534 4219 1204 4116 
Q 875 4013 500 3803 
L 500 4441 
Q 881 4594 1212 4672 
Q 1544 4750 1819 4750 
Q 2544 4750 2975 4387 
Q 3406 4025 3406 3419 
Q 3406 3131 3298 2873 
Q 3191 2616 2906 2266 
Q 2828 2175 2409 1742 
Q 1991 1309 1228 531 
z
" transform="scale(0.015625)"/>
       </defs>
       <use xlink:href="#DejaVuSans-31"/>
       <use xlink:href="#DejaVuSans-39" transform="translate(63.623047 0)"/>
       <use xlink:href="#DejaVuSans-32" transform="translate(127.246094 0)"/>
       <use xlink:href="#DejaVuSans-30" transform="translate(190.869141 0)"/>
      </g>
     </g>
    </g>
    <g id="xtick_3">
     <g id="line2d_3">
      <path d="M 293.257898 502.02 
L 293.257898 7.2 
" clip-path="url(#p8c9759ee92)" style="fill: none; stroke: #ffffff; stroke-linecap: round"/>
     </g>
     <g id="text_3">
      <!-- 1940 -->
      <g style="fill: #262626" transform="translate(271.625398 524.437344) scale(0.17 -0.17)">
       <defs>
        <path id="DejaVuSans-34" d="M 2419 4116 
L 825 1625 
L 2419 1625 
L 2419 4116 
z
M 2253 4666 
L 3047 4666 
L 3047 1625 
L 3713 1625 
L 3713 1100 
L 3047 1100 
L 3047 0 
L 2419 0 
L 2419 1100 
L 313 1100 
L 313 1709 
L 2253 4666 
z
" transform="scale(0.015625)"/>
       </defs>
       <use xlink:href="#DejaVuSans-31"/>
       <use xlink:href="#DejaVuSans-39" transform="translate(63.623047 0)"/>
       <use xlink:href="#DejaVuSans-34" transform="translate(127.246094 0)"/>
       <use xlink:href="#DejaVuSans-30" transform="translate(190.869141 0)"/>
      </g>
     </g>
    </g>
    <g id="xtick_4">
     <g id="line2d_4">
      <path d="M 385.761534 502.02 
L 385.761534 7.2 
" clip-path="url(#p8c9759ee92)" style="fill: none; stroke: #ffffff; stroke-linecap: round"/>
     </g>
     <g id="text_4">
      <!-- 1960 -->
      <g style="fill: #262626" transform="translate(364.129034 524.437344) scale(0.17 -0.17)">
       <defs>
        <path id="DejaVuSans-36" d="M 2113 2584 
Q 1688 2584 1439 2293 
Q 1191 2003 1191 1497 
Q 1191 994 1439 701 
Q 1688 409 2113 409 
Q 2538 409 2786 701 
Q 3034 994 3034 1497 
Q 3034 2003 2786 2293 
Q 2538 2584 2113 2584 
z
M 3366 4563 
L 3366 3988 
Q 3128 4100 2886 4159 
Q 2644 4219 2406 4219 
Q 1781 4219 1451 3797 
Q 1122 3375 1075 2522 
Q 1259 2794 1537 2939 
Q 1816 3084 2150 3084 
Q 2853 3084 3261 2657 
Q 3669 2231 3669 1497 
Q 3669 778 3244 343 
Q 2819 -91 2113 -91 
Q 1303 -91 875 529 
Q 447 1150 447 2328 
Q 447 3434 972 4092 
Q 1497 4750 2381 4750 
Q 2619 4750 2861 4703 
Q 3103 4656 3366 4563 
z
" transform="scale(0.015625)"/>
       </defs>
       <use xlink:href="#DejaVuSans-31"/>
       <use xlink:href="#DejaVuSans-39" transform="translate(63.623047 0)"/>
       <use xlink:href="#DejaVuSans-36" transform="translate(127.246094 0)"/>
       <use xlink:href="#DejaVuSans-30" transform="translate(190.869141 0)"/>
      </g>
     </g>
    </g>
    <g id="xtick_5">
     <g id="line2d_5">
      <path d="M 478.26517 502.02 
L 478.26517 7.2 
" clip-path="url(#p8c9759ee92)" style="fill: none; stroke: #ffffff; stroke-linecap: round"/>
     </g>
     <g id="text_5">
      <!-- 1980 -->
      <g style="fill: #262626" transform="translate(456.63267 524.437344) scale(0.17 -0.17)">
       <defs>
        <path id="DejaVuSans-38" d="M 2034 2216 
Q 1584 2216 1326 1975 
Q 1069 1734 1069 1313 
Q 1069 891 1326 650 
Q 1584 409 2034 409 
Q 2484 409 2743 651 
Q 3003 894 3003 1313 
Q 3003 1734 2745 1975 
Q 2488 2216 2034 2216 
z
M 1403 2484 
Q 997 2584 770 2862 
Q 544 3141 544 3541 
Q 544 4100 942 4425 
Q 1341 4750 2034 4750 
Q 2731 4750 3128 4425 
Q 3525 4100 3525 3541 
Q 3525 3141 3298 2862 
Q 3072 2584 2669 2484 
Q 3125 2378 3379 2068 
Q 3634 1759 3634 1313 
Q 3634 634 3220 271 
Q 2806 -91 2034 -91 
Q 1263 -91 848 271 
Q 434 634 434 1313 
Q 434 1759 690 2068 
Q 947 2378 1403 2484 
z
M 1172 3481 
Q 1172 3119 1398 2916 
Q 1625 2713 2034 2713 
Q 2441 2713 2670 2916 
Q 2900 3119 2900 3481 
Q 2900 3844 2670 4047 
Q 2441 4250 2034 4250 
Q 1625 4250 1398 4047 
Q 1172 3844 1172 3481 
z
" transform="scale(0.015625)"/>
       </defs>
       <use xlink:href="#DejaVuSans-31"/>
       <use xlink:href="#DejaVuSans-39" transform="translate(63.623047 0)"/>
       <use xlink:href="#DejaVuSans-38" transform="translate(127.246094 0)"/>
       <use xlink:href="#DejaVuSans-30" transform="translate(190.869141 0)"/>
      </g>
     </g>
    </g>
    <g id="xtick_6">
     <g id="line2d_6">
      <path d="M 570.768807 502.02 
L 570.768807 7.2 
" clip-path="url(#p8c9759ee92)" style="fill: none; stroke: #ffffff; stroke-linecap: round"/>
     </g>
     <g id="text_6">
      <!-- 2000 -->
      <g style="fill: #262626" transform="translate(549.136307 524.437344) scale(0.17 -0.17)">
       <use xlink:href="#DejaVuSans-32"/>
       <use xlink:href="#DejaVuSans-30" transform="translate(63.623047 0)"/>
       <use xlink:href="#DejaVuSans-30" transform="translate(127.246094 0)"/>
       <use xlink:href="#DejaVuSans-30" transform="translate(190.869141 0)"/>
      </g>
     </g>
    </g>
    <g id="text_7">
     <!-- Time (Years) -->
     <g style="fill: #262626" transform="translate(285.344609 550.968906) scale(0.25 -0.25)">
      <defs>
       <path id="DejaVuSans-54" d="M -19 4666 
L 3928 4666 
L 3928 4134 
L 2272 4134 
L 2272 0 
L 1638 0 
L 1638 4134 
L -19 4134 
L -19 4666 
z
" transform="scale(0.015625)"/>
       <path id="DejaVuSans-69" d="M 603 3500 
L 1178 3500 
L 1178 0 
L 603 0 
L 603 3500 
z
M 603 4863 
L 1178 4863 
L 1178 4134 
L 603 4134 
L 603 4863 
z
" transform="scale(0.015625)"/>
       <path id="DejaVuSans-6d" d="M 3328 2828 
Q 3544 3216 3844 3400 
Q 4144 3584 4550 3584 
Q 5097 3584 5394 3201 
Q 5691 2819 5691 2113 
L 5691 0 
L 5113 0 
L 5113 2094 
Q 5113 2597 4934 2840 
Q 4756 3084 4391 3084 
Q 3944 3084 3684 2787 
Q 3425 2491 3425 1978 
L 3425 0 
L 2847 0 
L 2847 2094 
Q 2847 2600 2669 2842 
Q 2491 3084 2119 3084 
Q 1678 3084 1418 2786 
Q 1159 2488 1159 1978 
L 1159 0 
L 581 0 
L 581 3500 
L 1159 3500 
L 1159 2956 
Q 1356 3278 1631 3431 
Q 1906 3584 2284 3584 
Q 2666 3584 2933 3390 
Q 3200 3197 3328 2828 
z
" transform="scale(0.015625)"/>
       <path id="DejaVuSans-65" d="M 3597 1894 
L 3597 1613 
L 953 1613 
Q 991 1019 1311 708 
Q 1631 397 2203 397 
Q 2534 397 2845 478 
Q 3156 559 3463 722 
L 3463 178 
Q 3153 47 2828 -22 
Q 2503 -91 2169 -91 
Q 1331 -91 842 396 
Q 353 884 353 1716 
Q 353 2575 817 3079 
Q 1281 3584 2069 3584 
Q 2775 3584 3186 3129 
Q 3597 2675 3597 1894 
z
M 3022 2063 
Q 3016 2534 2758 2815 
Q 2500 3097 2075 3097 
Q 1594 3097 1305 2825 
Q 1016 2553 972 2059 
L 3022 2063 
z
" transform="scale(0.015625)"/>
       <path id="DejaVuSans-20" transform="scale(0.015625)"/>
       <path id="DejaVuSans-28" d="M 1984 4856 
Q 1566 4138 1362 3434 
Q 1159 2731 1159 2009 
Q 1159 1288 1364 580 
Q 1569 -128 1984 -844 
L 1484 -844 
Q 1016 -109 783 600 
Q 550 1309 550 2009 
Q 550 2706 781 3412 
Q 1013 4119 1484 4856 
L 1984 4856 
z
" transform="scale(0.015625)"/>
       <path id="DejaVuSans-59" d="M -13 4666 
L 666 4666 
L 1959 2747 
L 3244 4666 
L 3922 4666 
L 2272 2222 
L 2272 0 
L 1638 0 
L 1638 2222 
L -13 4666 
z
" transform="scale(0.015625)"/>
       <path id="DejaVuSans-61" d="M 2194 1759 
Q 1497 1759 1228 1600 
Q 959 1441 959 1056 
Q 959 750 1161 570 
Q 1363 391 1709 391 
Q 2188 391 2477 730 
Q 2766 1069 2766 1631 
L 2766 1759 
L 2194 1759 
z
M 3341 1997 
L 3341 0 
L 2766 0 
L 2766 531 
Q 2569 213 2275 61 
Q 1981 -91 1556 -91 
Q 1019 -91 701 211 
Q 384 513 384 1019 
Q 384 1609 779 1909 
Q 1175 2209 1959 2209 
L 2766 2209 
L 2766 2266 
Q 2766 2663 2505 2880 
Q 2244 3097 1772 3097 
Q 1472 3097 1187 3025 
Q 903 2953 641 2809 
L 641 3341 
Q 956 3463 1253 3523 
Q 1550 3584 1831 3584 
Q 2591 3584 2966 3190 
Q 3341 2797 3341 1997 
z
" transform="scale(0.015625)"/>
       <path id="DejaVuSans-72" d="M 2631 2963 
Q 2534 3019 2420 3045 
Q 2306 3072 2169 3072 
Q 1681 3072 1420 2755 
Q 1159 2438 1159 1844 
L 1159 0 
L 581 0 
L 581 3500 
L 1159 3500 
L 1159 2956 
Q 1341 3275 1631 3429 
Q 1922 3584 2338 3584 
Q 2397 3584 2469 3576 
Q 2541 3569 2628 3553 
L 2631 2963 
z
" transform="scale(0.015625)"/>
       <path id="DejaVuSans-73" d="M 2834 3397 
L 2834 2853 
Q 2591 2978 2328 3040 
Q 2066 3103 1784 3103 
Q 1356 3103 1142 2972 
Q 928 2841 928 2578 
Q 928 2378 1081 2264 
Q 1234 2150 1697 2047 
L 1894 2003 
Q 2506 1872 2764 1633 
Q 3022 1394 3022 966 
Q 3022 478 2636 193 
Q 2250 -91 1575 -91 
Q 1294 -91 989 -36 
Q 684 19 347 128 
L 347 722 
Q 666 556 975 473 
Q 1284 391 1588 391 
Q 1994 391 2212 530 
Q 2431 669 2431 922 
Q 2431 1156 2273 1281 
Q 2116 1406 1581 1522 
L 1381 1569 
Q 847 1681 609 1914 
Q 372 2147 372 2553 
Q 372 3047 722 3315 
Q 1072 3584 1716 3584 
Q 2034 3584 2315 3537 
Q 2597 3491 2834 3397 
z
" transform="scale(0.015625)"/>
       <path id="DejaVuSans-29" d="M 513 4856 
L 1013 4856 
Q 1481 4119 1714 3412 
Q 1947 2706 1947 2009 
Q 1947 1309 1714 600 
Q 1481 -109 1013 -844 
L 513 -844 
Q 928 -128 1133 580 
Q 1338 1288 1338 2009 
Q 1338 2731 1133 3434 
Q 928 4138 513 4856 
z
" transform="scale(0.015625)"/>
      </defs>
      <use xlink:href="#DejaVuSans-54"/>
      <use xlink:href="#DejaVuSans-69" transform="translate(57.958984 0)"/>
      <use xlink:href="#DejaVuSans-6d" transform="translate(85.742188 0)"/>
      <use xlink:href="#DejaVuSans-65" transform="translate(183.154297 0)"/>
      <use xlink:href="#DejaVuSans-20" transform="translate(244.677734 0)"/>
      <use xlink:href="#DejaVuSans-28" transform="translate(276.464844 0)"/>
      <use xlink:href="#DejaVuSans-59" transform="translate(315.478516 0)"/>
      <use xlink:href="#DejaVuSans-65" transform="translate(363.3125 0)"/>
      <use xlink:href="#DejaVuSans-61" transform="translate(424.835938 0)"/>
      <use xlink:href="#DejaVuSans-72" transform="translate(486.115234 0)"/>
      <use xlink:href="#DejaVuSans-73" transform="translate(527.228516 0)"/>
      <use xlink:href="#DejaVuSans-29" transform="translate(579.328125 0)"/>
     </g>
    </g>
   </g>
   <g id="matplotlib.axis_2">
    <g id="ytick_1">
     <g id="line2d_7">
      <path d="M 108.250625 479.528234 
L 617.020625 479.528234 
" clip-path="url(#p8c9759ee92)" style="fill: none; stroke: #ffffff; stroke-linecap: round"/>
     </g>
     <g id="text_8">
      <!-- 0.0000 -->
      <g style="fill: #262626" transform="translate(39.266563 485.986906) scale(0.17 -0.17)">
       <defs>
        <path id="DejaVuSans-2e" d="M 684 794 
L 1344 794 
L 1344 0 
L 684 0 
L 684 794 
z
" transform="scale(0.015625)"/>
       </defs>
       <use xlink:href="#DejaVuSans-30"/>
       <use xlink:href="#DejaVuSans-2e" transform="translate(63.623047 0)"/>
       <use xlink:href="#DejaVuSans-30" transform="translate(95.410156 0)"/>
       <use xlink:href="#DejaVuSans-30" transform="translate(159.033203 0)"/>
       <use xlink:href="#DejaVuSans-30" transform="translate(222.65625 0)"/>
       <use xlink:href="#DejaVuSans-30" transform="translate(286.279297 0)"/>
      </g>
     </g>
    </g>
    <g id="ytick_2">
     <g id="line2d_8">
      <path d="M 108.250625 411.302186 
L 617.020625 411.302186 
" clip-path="url(#p8c9759ee92)" style="fill: none; stroke: #ffffff; stroke-linecap: round"/>
     </g>
     <g id="text_9">
      <!-- 0.0005 -->
      <g style="fill: #262626" transform="translate(39.266563 417.760858) scale(0.17 -0.17)">
       <defs>
        <path id="DejaVuSans-35" d="M 691 4666 
L 3169 4666 
L 3169 4134 
L 1269 4134 
L 1269 2991 
Q 1406 3038 1543 3061 
Q 1681 3084 1819 3084 
Q 2600 3084 3056 2656 
Q 3513 2228 3513 1497 
Q 3513 744 3044 326 
Q 2575 -91 1722 -91 
Q 1428 -91 1123 -41 
Q 819 9 494 109 
L 494 744 
Q 775 591 1075 516 
Q 1375 441 1709 441 
Q 2250 441 2565 725 
Q 2881 1009 2881 1497 
Q 2881 1984 2565 2268 
Q 2250 2553 1709 2553 
Q 1456 2553 1204 2497 
Q 953 2441 691 2322 
L 691 4666 
z
" transform="scale(0.015625)"/>
       </defs>
       <use xlink:href="#DejaVuSans-30"/>
       <use xlink:href="#DejaVuSans-2e" transform="translate(63.623047 0)"/>
       <use xlink:href="#DejaVuSans-30" transform="translate(95.410156 0)"/>
       <use xlink:href="#DejaVuSans-30" transform="translate(159.033203 0)"/>
       <use xlink:href="#DejaVuSans-30" transform="translate(222.65625 0)"/>
       <use xlink:href="#DejaVuSans-35" transform="translate(286.279297 0)"/>
      </g>
     </g>
    </g>
    <g id="ytick_3">
     <g id="line2d_9">
      <path d="M 108.250625 343.076138 
L 617.020625 343.076138 
" clip-path="url(#p8c9759ee92)" style="fill: none; stroke: #ffffff; stroke-linecap: round"/>
     </g>
     <g id="text_10">
      <!-- 0.0010 -->
      <g style="fill: #262626" transform="translate(39.266563 349.53481) scale(0.17 -0.17)">
       <use xlink:href="#DejaVuSans-30"/>
       <use xlink:href="#DejaVuSans-2e" transform="translate(63.623047 0)"/>
       <use xlink:href="#DejaVuSans-30" transform="translate(95.410156 0)"/>
       <use xlink:href="#DejaVuSans-30" transform="translate(159.033203 0)"/>
       <use xlink:href="#DejaVuSans-31" transform="translate(222.65625 0)"/>
       <use xlink:href="#DejaVuSans-30" transform="translate(286.279297 0)"/>
      </g>
     </g>
    </g>
    <g id="ytick_4">
     <g id="line2d_10">
      <path d="M 108.250625 274.850089 
L 617.020625 274.850089 
" clip-path="url(#p8c9759ee92)" style="fill: none; stroke: #ffffff; stroke-linecap: round"/>
     </g>
     <g id="text_11">
      <!-- 0.0015 -->
      <g style="fill: #262626" transform="translate(39.266563 281.308761) scale(0.17 -0.17)">
       <use xlink:href="#DejaVuSans-30"/>
       <use xlink:href="#DejaVuSans-2e" transform="translate(63.623047 0)"/>
       <use xlink:href="#DejaVuSans-30" transform="translate(95.410156 0)"/>
       <use xlink:href="#DejaVuSans-30" transform="translate(159.033203 0)"/>
       <use xlink:href="#DejaVuSans-31" transform="translate(222.65625 0)"/>
       <use xlink:href="#DejaVuSans-35" transform="translate(286.279297 0)"/>
      </g>
     </g>
    </g>
    <g id="ytick_5">
     <g id="line2d_11">
      <path d="M 108.250625 206.624041 
L 617.020625 206.624041 
" clip-path="url(#p8c9759ee92)" style="fill: none; stroke: #ffffff; stroke-linecap: round"/>
     </g>
     <g id="text_12">
      <!-- 0.0020 -->
      <g style="fill: #262626" transform="translate(39.266563 213.082713) scale(0.17 -0.17)">
       <use xlink:href="#DejaVuSans-30"/>
       <use xlink:href="#DejaVuSans-2e" transform="translate(63.623047 0)"/>
       <use xlink:href="#DejaVuSans-30" transform="translate(95.410156 0)"/>
       <use xlink:href="#DejaVuSans-30" transform="translate(159.033203 0)"/>
       <use xlink:href="#DejaVuSans-32" transform="translate(222.65625 0)"/>
       <use xlink:href="#DejaVuSans-30" transform="translate(286.279297 0)"/>
      </g>
     </g>
    </g>
    <g id="ytick_6">
     <g id="line2d_12">
      <path d="M 108.250625 138.397993 
L 617.020625 138.397993 
" clip-path="url(#p8c9759ee92)" style="fill: none; stroke: #ffffff; stroke-linecap: round"/>
     </g>
     <g id="text_13">
      <!-- 0.0025 -->
      <g style="fill: #262626" transform="translate(39.266563 144.856664) scale(0.17 -0.17)">
       <use xlink:href="#DejaVuSans-30"/>
       <use xlink:href="#DejaVuSans-2e" transform="translate(63.623047 0)"/>
       <use xlink:href="#DejaVuSans-30" transform="translate(95.410156 0)"/>
       <use xlink:href="#DejaVuSans-30" transform="translate(159.033203 0)"/>
       <use xlink:href="#DejaVuSans-32" transform="translate(222.65625 0)"/>
       <use xlink:href="#DejaVuSans-35" transform="translate(286.279297 0)"/>
      </g>
     </g>
    </g>
    <g id="ytick_7">
     <g id="line2d_13">
      <path d="M 108.250625 70.171944 
L 617.020625 70.171944 
" clip-path="url(#p8c9759ee92)" style="fill: none; stroke: #ffffff; stroke-linecap: round"/>
     </g>
     <g id="text_14">
      <!-- 0.0030 -->
      <g style="fill: #262626" transform="translate(39.266563 76.630616) scale(0.17 -0.17)">
       <defs>
        <path id="DejaVuSans-33" d="M 2597 2516 
Q 3050 2419 3304 2112 
Q 3559 1806 3559 1356 
Q 3559 666 3084 287 
Q 2609 -91 1734 -91 
Q 1441 -91 1130 -33 
Q 819 25 488 141 
L 488 750 
Q 750 597 1062 519 
Q 1375 441 1716 441 
Q 2309 441 2620 675 
Q 2931 909 2931 1356 
Q 2931 1769 2642 2001 
Q 2353 2234 1838 2234 
L 1294 2234 
L 1294 2753 
L 1863 2753 
Q 2328 2753 2575 2939 
Q 2822 3125 2822 3475 
Q 2822 3834 2567 4026 
Q 2313 4219 1838 4219 
Q 1578 4219 1281 4162 
Q 984 4106 628 3988 
L 628 4550 
Q 988 4650 1302 4700 
Q 1616 4750 1894 4750 
Q 2613 4750 3031 4423 
Q 3450 4097 3450 3541 
Q 3450 3153 3228 2886 
Q 3006 2619 2597 2516 
z
" transform="scale(0.015625)"/>
       </defs>
       <use xlink:href="#DejaVuSans-30"/>
       <use xlink:href="#DejaVuSans-2e" transform="translate(63.623047 0)"/>
       <use xlink:href="#DejaVuSans-30" transform="translate(95.410156 0)"/>
       <use xlink:href="#DejaVuSans-30" transform="translate(159.033203 0)"/>
       <use xlink:href="#DejaVuSans-33" transform="translate(222.65625 0)"/>
       <use xlink:href="#DejaVuSans-30" transform="translate(286.279297 0)"/>
      </g>
     </g>
    </g>
    <g id="text_15">
     <!-- Carbon formation efficiency -->
     <g style="fill: #262626" transform="translate(29.235469 456.359375) rotate(-90) scale(0.29 -0.29)">
      <defs>
       <path id="DejaVuSans-43" d="M 4122 4306 
L 4122 3641 
Q 3803 3938 3442 4084 
Q 3081 4231 2675 4231 
Q 1875 4231 1450 3742 
Q 1025 3253 1025 2328 
Q 1025 1406 1450 917 
Q 1875 428 2675 428 
Q 3081 428 3442 575 
Q 3803 722 4122 1019 
L 4122 359 
Q 3791 134 3420 21 
Q 3050 -91 2638 -91 
Q 1578 -91 968 557 
Q 359 1206 359 2328 
Q 359 3453 968 4101 
Q 1578 4750 2638 4750 
Q 3056 4750 3426 4639 
Q 3797 4528 4122 4306 
z
" transform="scale(0.015625)"/>
       <path id="DejaVuSans-62" d="M 3116 1747 
Q 3116 2381 2855 2742 
Q 2594 3103 2138 3103 
Q 1681 3103 1420 2742 
Q 1159 2381 1159 1747 
Q 1159 1113 1420 752 
Q 1681 391 2138 391 
Q 2594 391 2855 752 
Q 3116 1113 3116 1747 
z
M 1159 2969 
Q 1341 3281 1617 3432 
Q 1894 3584 2278 3584 
Q 2916 3584 3314 3078 
Q 3713 2572 3713 1747 
Q 3713 922 3314 415 
Q 2916 -91 2278 -91 
Q 1894 -91 1617 61 
Q 1341 213 1159 525 
L 1159 0 
L 581 0 
L 581 4863 
L 1159 4863 
L 1159 2969 
z
" transform="scale(0.015625)"/>
       <path id="DejaVuSans-6f" d="M 1959 3097 
Q 1497 3097 1228 2736 
Q 959 2375 959 1747 
Q 959 1119 1226 758 
Q 1494 397 1959 397 
Q 2419 397 2687 759 
Q 2956 1122 2956 1747 
Q 2956 2369 2687 2733 
Q 2419 3097 1959 3097 
z
M 1959 3584 
Q 2709 3584 3137 3096 
Q 3566 2609 3566 1747 
Q 3566 888 3137 398 
Q 2709 -91 1959 -91 
Q 1206 -91 779 398 
Q 353 888 353 1747 
Q 353 2609 779 3096 
Q 1206 3584 1959 3584 
z
" transform="scale(0.015625)"/>
       <path id="DejaVuSans-6e" d="M 3513 2113 
L 3513 0 
L 2938 0 
L 2938 2094 
Q 2938 2591 2744 2837 
Q 2550 3084 2163 3084 
Q 1697 3084 1428 2787 
Q 1159 2491 1159 1978 
L 1159 0 
L 581 0 
L 581 3500 
L 1159 3500 
L 1159 2956 
Q 1366 3272 1645 3428 
Q 1925 3584 2291 3584 
Q 2894 3584 3203 3211 
Q 3513 2838 3513 2113 
z
" transform="scale(0.015625)"/>
       <path id="DejaVuSans-66" d="M 2375 4863 
L 2375 4384 
L 1825 4384 
Q 1516 4384 1395 4259 
Q 1275 4134 1275 3809 
L 1275 3500 
L 2222 3500 
L 2222 3053 
L 1275 3053 
L 1275 0 
L 697 0 
L 697 3053 
L 147 3053 
L 147 3500 
L 697 3500 
L 697 3744 
Q 697 4328 969 4595 
Q 1241 4863 1831 4863 
L 2375 4863 
z
" transform="scale(0.015625)"/>
       <path id="DejaVuSans-74" d="M 1172 4494 
L 1172 3500 
L 2356 3500 
L 2356 3053 
L 1172 3053 
L 1172 1153 
Q 1172 725 1289 603 
Q 1406 481 1766 481 
L 2356 481 
L 2356 0 
L 1766 0 
Q 1100 0 847 248 
Q 594 497 594 1153 
L 594 3053 
L 172 3053 
L 172 3500 
L 594 3500 
L 594 4494 
L 1172 4494 
z
" transform="scale(0.015625)"/>
       <path id="DejaVuSans-63" d="M 3122 3366 
L 3122 2828 
Q 2878 2963 2633 3030 
Q 2388 3097 2138 3097 
Q 1578 3097 1268 2742 
Q 959 2388 959 1747 
Q 959 1106 1268 751 
Q 1578 397 2138 397 
Q 2388 397 2633 464 
Q 2878 531 3122 666 
L 3122 134 
Q 2881 22 2623 -34 
Q 2366 -91 2075 -91 
Q 1284 -91 818 406 
Q 353 903 353 1747 
Q 353 2603 823 3093 
Q 1294 3584 2113 3584 
Q 2378 3584 2631 3529 
Q 2884 3475 3122 3366 
z
" transform="scale(0.015625)"/>
       <path id="DejaVuSans-79" d="M 2059 -325 
Q 1816 -950 1584 -1140 
Q 1353 -1331 966 -1331 
L 506 -1331 
L 506 -850 
L 844 -850 
Q 1081 -850 1212 -737 
Q 1344 -625 1503 -206 
L 1606 56 
L 191 3500 
L 800 3500 
L 1894 763 
L 2988 3500 
L 3597 3500 
L 2059 -325 
z
" transform="scale(0.015625)"/>
      </defs>
      <use xlink:href="#DejaVuSans-43"/>
      <use xlink:href="#DejaVuSans-61" transform="translate(69.824219 0)"/>
      <use xlink:href="#DejaVuSans-72" transform="translate(131.103516 0)"/>
      <use xlink:href="#DejaVuSans-62" transform="translate(172.216797 0)"/>
      <use xlink:href="#DejaVuSans-6f" transform="translate(235.693359 0)"/>
      <use xlink:href="#DejaVuSans-6e" transform="translate(296.875 0)"/>
      <use xlink:href="#DejaVuSans-20" transform="translate(360.253906 0)"/>
      <use xlink:href="#DejaVuSans-66" transform="translate(392.041016 0)"/>
      <use xlink:href="#DejaVuSans-6f" transform="translate(427.246094 0)"/>
      <use xlink:href="#DejaVuSans-72" transform="translate(488.427734 0)"/>
      <use xlink:href="#DejaVuSans-6d" transform="translate(527.791016 0)"/>
      <use xlink:href="#DejaVuSans-61" transform="translate(625.203125 0)"/>
      <use xlink:href="#DejaVuSans-74" transform="translate(686.482422 0)"/>
      <use xlink:href="#DejaVuSans-69" transform="translate(725.691406 0)"/>
      <use xlink:href="#DejaVuSans-6f" transform="translate(753.474609 0)"/>
      <use xlink:href="#DejaVuSans-6e" transform="translate(814.65625 0)"/>
      <use xlink:href="#DejaVuSans-20" transform="translate(878.035156 0)"/>
      <use xlink:href="#DejaVuSans-65" transform="translate(909.822266 0)"/>
      <use xlink:href="#DejaVuSans-66" transform="translate(971.345703 0)"/>
      <use xlink:href="#DejaVuSans-66" transform="translate(1006.550781 0)"/>
      <use xlink:href="#DejaVuSans-69" transform="translate(1041.755859 0)"/>
      <use xlink:href="#DejaVuSans-63" transform="translate(1069.539062 0)"/>
      <use xlink:href="#DejaVuSans-69" transform="translate(1124.519531 0)"/>
      <use xlink:href="#DejaVuSans-65" transform="translate(1152.302734 0)"/>
      <use xlink:href="#DejaVuSans-6e" transform="translate(1213.826172 0)"/>
      <use xlink:href="#DejaVuSans-63" transform="translate(1277.205078 0)"/>
      <use xlink:href="#DejaVuSans-79" transform="translate(1332.185547 0)"/>
     </g>
    </g>
   </g>
   <g id="line2d_14">
    <path d="M 131.376534 479.528182 
L 136.001716 458.011794 
L 140.626898 412.479885 
L 145.25208 244.384372 
L 149.877261 290.203024 
L 154.502443 258.661275 
L 159.127625 244.07496 
L 163.752807 209.298212 
L 168.377989 183.259954 
L 173.00317 169.150401 
L 177.628352 138.829502 
L 182.253534 123.895921 
L 186.878716 111.337866 
L 191.503898 115.376948 
L 196.12908 144.164537 
L 200.754261 161.065987 
L 205.379443 126.838947 
L 210.004625 150.395032 
L 214.629807 163.44712 
L 219.254989 186.531802 
L 223.88017 217.169031 
L 228.505352 228.01793 
L 233.130534 223.684171 
L 237.755716 222.553791 
L 242.380898 213.471329 
L 247.00608 213.561997 
L 251.631261 256.079713 
L 256.256443 256.451518 
L 260.881625 267.095828 
L 265.506807 271.223552 
L 270.131989 276.396006 
L 274.75717 296.526532 
L 279.382352 325.355623 
L 284.007534 335.370941 
L 288.632716 351.214462 
L 293.257898 361.498568 
L 297.88308 362.488004 
L 302.508261 363.512907 
L 307.133443 359.031464 
L 311.758625 357.166193 
L 316.383807 355.346162 
L 321.008989 360.030311 
L 325.63417 370.292432 
L 330.259352 372.932701 
L 334.884534 375.849248 
L 339.509716 360.052214 
L 344.134898 362.074977 
L 348.76008 364.292455 
L 353.385261 369.916162 
L 358.010443 375.76583 
L 362.635625 375.459166 
L 367.260807 367.531366 
L 371.885989 351.404659 
L 376.51117 343.53645 
L 381.136352 330.858349 
L 385.761534 342.087122 
L 390.386716 335.44075 
L 395.011898 327.657785 
L 399.63708 326.115919 
L 404.262261 312.297667 
L 408.887443 309.818054 
L 413.512625 307.103207 
L 418.137807 310.280699 
L 422.762989 325.203288 
L 427.38817 340.054384 
L 432.013352 345.884233 
L 436.638534 344.729034 
L 441.263716 358.031648 
L 445.888898 357.194561 
L 450.51408 370.866711 
L 455.139261 382.577145 
L 459.764443 396.52342 
L 464.389625 411.105643 
L 469.014807 411.307821 
L 473.639989 409.551708 
L 478.26517 413.221188 
L 482.890352 421.239835 
L 487.515534 417.294158 
L 492.140716 414.926033 
L 496.765898 416.538014 
L 501.39108 419.140608 
L 506.016261 418.807114 
L 510.641443 414.720158 
L 515.266625 418.113199 
L 519.891807 421.87324 
L 524.516989 414.401081 
L 529.14217 411.19196 
L 533.767352 417.001843 
L 538.392534 424.90364 
L 543.017716 424.373433 
L 547.642898 424.348476 
L 552.26808 425.846681 
L 556.893261 432.158334 
L 561.518443 430.848392 
L 566.143625 438.941417 
L 570.768807 448.200952 
L 575.393989 450.159459 
L 580.01917 449.534335 
L 584.644352 451.722239 
L 589.269534 455.594899 
L 593.894716 457.875966 
" clip-path="url(#p8c9759ee92)" style="fill: none; stroke: #1f77b4; stroke-width: 1.5; stroke-linecap: round"/>
   </g>
   <g id="line2d_15">
    <path d="M 131.376534 479.528182 
L 136.001716 462.026779 
L 140.626898 421.450574 
L 145.25208 291.041901 
L 149.877261 245.931069 
L 154.502443 203.233504 
L 159.127625 184.938853 
L 163.752807 157.504023 
L 168.377989 126.354772 
L 173.00317 108.654143 
L 177.628352 66.122205 
L 182.253534 45.597067 
L 186.878716 29.691818 
L 191.503898 32.990718 
L 196.12908 68.063274 
L 200.754261 89.412599 
L 205.379443 41.043791 
L 210.004625 49.942871 
L 214.629807 65.390074 
L 219.254989 82.621309 
L 223.88017 122.981582 
L 228.505352 135.377955 
L 233.130534 116.144183 
L 237.755716 107.013259 
L 242.380898 85.492621 
L 247.00608 76.539793 
L 251.631261 131.89041 
L 256.256443 132.885296 
L 260.881625 139.476172 
L 265.506807 143.634376 
L 270.131989 149.349333 
L 274.75717 175.158883 
L 279.382352 223.372769 
L 284.007534 238.015379 
L 288.632716 263.958931 
L 293.257898 276.46922 
L 297.88308 275.563217 
L 302.508261 272.915882 
L 307.133443 267.728573 
L 311.758625 253.088215 
L 316.383807 234.381042 
L 321.008989 238.945214 
L 325.63417 254.83825 
L 330.259352 257.135628 
L 334.884534 250.030806 
L 339.509716 212.307799 
L 344.134898 211.719502 
L 348.76008 206.482156 
L 353.385261 206.182413 
L 358.010443 222.773524 
L 362.635625 234.250094 
L 367.260807 226.894409 
L 371.885989 204.796481 
L 376.51117 190.477953 
L 381.136352 172.432392 
L 385.761534 196.452222 
L 390.386716 189.621303 
L 395.011898 177.801971 
L 399.63708 176.141267 
L 404.262261 155.532419 
L 408.887443 146.64462 
L 413.512625 136.437086 
L 418.137807 124.814259 
L 422.762989 148.960917 
L 427.38817 176.895557 
L 432.013352 191.648675 
L 436.638534 184.45879 
L 441.263716 208.831592 
L 445.888898 202.585587 
L 450.51408 214.639447 
L 455.139261 227.087977 
L 459.764443 250.399016 
L 464.389625 282.550676 
L 469.014807 284.306185 
L 473.639989 271.213656 
L 478.26517 268.572797 
L 482.890352 281.019361 
L 487.515534 269.868534 
L 492.140716 260.495134 
L 496.765898 258.50008 
L 501.39108 265.859305 
L 506.016261 264.255715 
L 510.641443 248.871612 
L 515.266625 252.370783 
L 519.891807 266.185741 
L 524.516989 247.085381 
L 529.14217 234.870029 
L 533.767352 243.819384 
L 538.392534 260.484429 
L 543.017716 261.345153 
L 547.642898 255.035122 
L 552.26808 254.128808 
L 556.893261 267.041588 
L 561.518443 258.942716 
L 566.143625 273.841951 
L 570.768807 304.005203 
L 575.393989 306.943669 
L 580.01917 306.460597 
L 584.644352 311.103461 
L 589.269534 319.754761 
L 593.894716 330.521021 
" clip-path="url(#p8c9759ee92)" style="fill: none; stroke: #ff7f0e; stroke-width: 1.5; stroke-linecap: round"/>
   </g>
   <g id="line2d_16">
    <path d="M 131.376534 479.528182 
L 136.001716 463.933441 
L 140.626898 426.106938 
L 145.25208 325.084623 
L 149.877261 248.650529 
L 154.502443 194.920841 
L 159.127625 176.862607 
L 163.752807 149.868897 
L 168.377989 117.341011 
L 173.00317 97.179974 
L 177.628352 55.816276 
L 182.253534 40.491944 
L 186.878716 32.164028 
L 191.503898 39.780724 
L 196.12908 83.124944 
L 200.754261 104.850645 
L 205.379443 61.173255 
L 210.004625 71.329384 
L 214.629807 89.076646 
L 219.254989 107.593764 
L 223.88017 149.455218 
L 228.505352 159.690867 
L 233.130534 139.375683 
L 237.755716 129.585312 
L 242.380898 110.384331 
L 247.00608 101.692402 
L 251.631261 152.761154 
L 256.256443 149.630144 
L 260.881625 155.618338 
L 265.506807 158.349915 
L 270.131989 163.304997 
L 274.75717 189.304594 
L 279.382352 235.516835 
L 284.007534 250.168058 
L 288.632716 274.56474 
L 293.257898 287.38295 
L 297.88308 286.651167 
L 302.508261 290.050268 
L 307.133443 288.172902 
L 311.758625 274.673306 
L 316.383807 254.771734 
L 321.008989 258.582032 
L 325.63417 272.84877 
L 330.259352 274.627757 
L 334.884534 268.534851 
L 339.509716 230.340152 
L 344.134898 230.451991 
L 348.76008 222.818961 
L 353.385261 220.649944 
L 358.010443 235.871222 
L 362.635625 243.858886 
L 367.260807 237.313879 
L 371.885989 219.657768 
L 376.51117 209.201432 
L 381.136352 192.474445 
L 385.761534 218.250038 
L 390.386716 211.040061 
L 395.011898 203.256095 
L 399.63708 201.288583 
L 404.262261 181.953352 
L 408.887443 179.652981 
L 413.512625 170.859017 
L 418.137807 158.758871 
L 422.762989 180.202564 
L 427.38817 206.916704 
L 432.013352 222.47228 
L 436.638534 218.80069 
L 441.263716 239.925783 
L 445.888898 234.984742 
L 450.51408 246.578086 
L 455.139261 258.062412 
L 459.764443 280.239633 
L 464.389625 310.314181 
L 469.014807 312.771786 
L 473.639989 302.198357 
L 478.26517 298.938286 
L 482.890352 308.157129 
L 487.515534 296.847462 
L 492.140716 287.360377 
L 496.765898 287.78358 
L 501.39108 294.140673 
L 506.016261 291.655141 
L 510.641443 278.683739 
L 515.266625 279.907477 
L 519.891807 291.676754 
L 524.516989 276.835044 
L 529.14217 266.36307 
L 533.767352 275.402852 
L 538.392534 292.174016 
L 543.017716 292.331558 
L 547.642898 288.023961 
L 552.26808 287.855221 
L 556.893261 299.291688 
L 561.518443 292.715699 
L 566.143625 305.153997 
L 570.768807 330.376247 
L 575.393989 335.485944 
L 580.01917 335.804311 
L 584.644352 340.095591 
L 589.269534 348.456876 
L 593.894716 357.137299 
" clip-path="url(#p8c9759ee92)" style="fill: none; stroke: #2ca02c; stroke-width: 1.5; stroke-linecap: round"/>
   </g>
   <g id="line2d_17">
    <path d="M 131.376534 479.528182 
L 136.001716 463.508651 
L 140.626898 420.557783 
L 145.25208 330.219866 
L 149.877261 253.604524 
L 154.502443 206.528759 
L 159.127625 189.345816 
L 163.752807 163.423732 
L 168.377989 132.580554 
L 173.00317 112.743173 
L 177.628352 71.163402 
L 182.253534 54.918276 
L 186.878716 46.751384 
L 191.503898 53.674841 
L 196.12908 93.64842 
L 200.754261 114.24148 
L 205.379443 68.951001 
L 210.004625 78.2196 
L 214.629807 95.245393 
L 219.254989 113.026184 
L 223.88017 156.091453 
L 228.505352 167.381177 
L 233.130534 149.288009 
L 237.755716 141.081842 
L 242.380898 123.540234 
L 247.00608 115.760424 
L 251.631261 168.184539 
L 256.256443 164.785978 
L 260.881625 171.151026 
L 265.506807 173.304915 
L 270.131989 176.435827 
L 274.75717 200.640574 
L 279.382352 243.775133 
L 284.007534 258.023046 
L 288.632716 283.629012 
L 293.257898 296.988722 
L 297.88308 297.256126 
L 302.508261 301.599334 
L 307.133443 300.536899 
L 311.758625 290.5529 
L 316.383807 273.235917 
L 321.008989 278.191522 
L 325.63417 292.390565 
L 330.259352 292.524021 
L 334.884534 285.931941 
L 339.509716 251.967638 
L 344.134898 252.246792 
L 348.76008 247.021958 
L 353.385261 245.285904 
L 358.010443 258.710612 
L 362.635625 265.595384 
L 367.260807 258.993463 
L 371.885989 240.670175 
L 376.51117 230.540801 
L 381.136352 210.553383 
L 385.761534 235.011066 
L 390.386716 228.829511 
L 395.011898 219.50429 
L 399.63708 218.327413 
L 404.262261 200.051124 
L 408.887443 197.046737 
L 413.512625 188.98343 
L 418.137807 182.536782 
L 422.762989 205.862574 
L 427.38817 235.314886 
L 432.013352 247.960111 
L 436.638534 244.236621 
L 441.263716 265.485467 
L 445.888898 261.319002 
L 450.51408 273.266546 
L 455.139261 287.920335 
L 459.764443 309.55135 
L 464.389625 336.439493 
L 469.014807 337.39183 
L 473.639989 328.703049 
L 478.26517 326.058341 
L 482.890352 334.426378 
L 487.515534 322.98341 
L 492.140716 312.266132 
L 496.765898 314.825323 
L 501.39108 319.770261 
L 506.016261 317.705172 
L 510.641443 303.983798 
L 515.266625 306.196751 
L 519.891807 316.562135 
L 524.516989 302.985088 
L 529.14217 294.390945 
L 533.767352 305.158498 
L 538.392534 321.612458 
L 543.017716 320.717065 
L 547.642898 317.076964 
L 552.26808 317.439581 
L 556.893261 329.400594 
L 561.518443 324.125804 
L 566.143625 335.699145 
L 570.768807 357.981981 
L 575.393989 363.06548 
L 580.01917 362.666754 
L 584.644352 367.752232 
L 589.269534 374.72391 
L 593.894716 383.013078 
" clip-path="url(#p8c9759ee92)" style="fill: none; stroke: #d62728; stroke-width: 1.5; stroke-linecap: round"/>
   </g>
   <g id="line2d_18"/>
   <g id="line2d_19"/>
   <g id="line2d_20"/>
   <g id="line2d_21"/>
   <g id="patch_3">
    <path d="M 108.250625 502.02 
L 108.250625 7.2 
" style="fill: none; stroke: #ffffff; stroke-width: 1.25; stroke-linejoin: miter; stroke-linecap: square"/>
   </g>
   <g id="patch_4">
    <path d="M 108.250625 502.02 
L 617.020625 502.02 
" style="fill: none; stroke: #ffffff; stroke-width: 1.25; stroke-linejoin: miter; stroke-linecap: square"/>
   </g>
  </g>
  <g id="legend_1">
   <g id="line2d_22">
    <path d="M 505.076025 49.236875 
L 525.076025 49.236875 
L 545.076025 49.236875 
" style="fill: none; stroke: #1f77b4; stroke-width: 1.5; stroke-linecap: round"/>
   </g>
   <g id="text_16">
    <!-- 137 -->
    <g style="fill: #262626" transform="translate(561.076025 56.236875) scale(0.2 -0.2)">
     <defs>
      <path id="DejaVuSans-37" d="M 525 4666 
L 3525 4666 
L 3525 4397 
L 1831 0 
L 1172 0 
L 2766 4134 
L 525 4134 
L 525 4666 
z
" transform="scale(0.015625)"/>
     </defs>
     <use xlink:href="#DejaVuSans-31"/>
     <use xlink:href="#DejaVuSans-33" transform="translate(63.623047 0)"/>
     <use xlink:href="#DejaVuSans-37" transform="translate(127.246094 0)"/>
    </g>
   </g>
   <g id="line2d_23">
    <path d="M 505.076025 78.593125 
L 525.076025 78.593125 
L 545.076025 78.593125 
" style="fill: none; stroke: #ff7f0e; stroke-width: 1.5; stroke-linecap: round"/>
   </g>
   <g id="text_17">
    <!-- 180 -->
    <g style="fill: #262626" transform="translate(561.076025 85.593125) scale(0.2 -0.2)">
     <use xlink:href="#DejaVuSans-31"/>
     <use xlink:href="#DejaVuSans-38" transform="translate(63.623047 0)"/>
     <use xlink:href="#DejaVuSans-30" transform="translate(127.246094 0)"/>
    </g>
   </g>
   <g id="line2d_24">
    <path d="M 505.076025 107.949375 
L 525.076025 107.949375 
L 545.076025 107.949375 
" style="fill: none; stroke: #2ca02c; stroke-width: 1.5; stroke-linecap: round"/>
   </g>
   <g id="text_18">
    <!-- 217 -->
    <g style="fill: #262626" transform="translate(561.076025 114.949375) scale(0.2 -0.2)">
     <use xlink:href="#DejaVuSans-32"/>
     <use xlink:href="#DejaVuSans-31" transform="translate(63.623047 0)"/>
     <use xlink:href="#DejaVuSans-37" transform="translate(127.246094 0)"/>
    </g>
   </g>
   <g id="line2d_25">
    <path d="M 505.076025 137.305625 
L 525.076025 137.305625 
L 545.076025 137.305625 
" style="fill: none; stroke: #d62728; stroke-width: 1.5; stroke-linecap: round"/>
   </g>
   <g id="text_19">
    <!-- 247 -->
    <g style="fill: #262626" transform="translate(561.076025 144.305625) scale(0.2 -0.2)">
     <use xlink:href="#DejaVuSans-32"/>
     <use xlink:href="#DejaVuSans-34" transform="translate(63.623047 0)"/>
     <use xlink:href="#DejaVuSans-37" transform="translate(127.246094 0)"/>
    </g>
   </g>
  </g>
 </g>
 <defs>
  <clipPath id="p8c9759ee92">
   <rect x="108.250625" y="7.2" width="508.77" height="494.82"/>
  </clipPath>
 </defs>
</svg>
